SplineFontDB: 3.0
FontName: Crimson-Italic
FullName: Crimson Italic
FamilyName: Crimson
Weight: Italic
Copyright: Copyright (c) 2010, Sebastian Kosch (sebastian@aldusleaf.org),\nwith Reserved Font Name "Crimson".\nThis Font Software is licensed under the SIL Open Font License, Version 1.1.\nThis license is available with a FAQ at: http://scripts.sil.org/OFL
UComments: "2010-5-9: Created."
Version: 0.8
ItalicAngle: -11
UnderlinePosition: -102
UnderlineWidth: 51
Ascent: 742
Descent: 282
InvalidEm: 0
LayerCount: 2
Layer: 0 0 "Back" 1
Layer: 1 0 "Fore" 0
XUID: [1021 85 519305545 10852408]
FSType: 0
OS2Version: 3
OS2_WeightWidthSlopeOnly: 0
OS2_UseTypoMetrics: 1
CreationTime: 1273443993
ModificationTime: 1413031882
PfmFamily: 17
TTFWeight: 400
TTFWidth: 5
LineGap: 256
VLineGap: 0
OS2TypoAscent: 742
OS2TypoAOffset: 0
OS2TypoDescent: -282
OS2TypoDOffset: 0
OS2TypoLinegap: 256
OS2WinAscent: 948
OS2WinAOffset: 0
OS2WinDescent: 332
OS2WinDOffset: 0
HheadAscent: 742
HheadAOffset: 0
HheadDescent: -282
HheadDOffset: 0
OS2SubXSize: 665
OS2SubYSize: 614
OS2SubXOff: -16
OS2SubYOff: 76
OS2SupXSize: 665
OS2SupYSize: 614
OS2SupXOff: 76
OS2SupYOff: 358
OS2StrikeYSize: 51
OS2StrikeYPos: 261
OS2CapHeight: 658
OS2XHeight: 429
OS2FamilyClass: 258
OS2Vendor: 'PfEd'
Lookup: 4 0 1 "'liga' Ligatures standard lookups5" { "'liga' Ligatures standard lookups5-1"  } ['liga' ('DFLT' <'dflt' > 'cyrl' <'dflt' > 'grek' <'dflt' > 'latn' <'TRK ' 'dflt' > ) ]
Lookup: 1 0 0 "'ccmp' Turkish i" { "'ccmp' Turkish i-1"  } ['ccmp' ('latn' <'TRK ' > ) ]
Lookup: 1 0 0 "'onum' Oldstyle Figures in Latin lookup 5" { "'onum' Oldstyle Figures in Latin lookup 5-1" ("onum") } ['onum' ('DFLT' <'dflt' > 'latn' <'TRK ' 'dflt' > ) ]
Lookup: 1 0 0 "'pnum' Proportional Numbers lookup 12" { "'pnum' Proportional Numbers lookup 12-1" ("prop") } ['pnum' ('DFLT' <'dflt' > 'grek' <'dflt' > 'latn' <'TRK ' 'dflt' > ) ]

StartChar: exclam
Encoding: 33 33 0
Width: 234
VWidth: 0
Flags: W
HStem: -14 116<36.9533 111.814>
VStem: 20 109<3.29198 85.0467> 133 90<492.709 614.186>
LayerCount: 2
Back
Fore
SplineSet
20 36 m 27
 20 73 49 102 86 102 c 27
 110 102 129 80 129 56 c 27
 129 18 102 -14 64 -14 c 27
 38 -14 20 10 20 36 c 27
192 631 m 3
 213 631 223 609 223 588 c 3
 223 561 160 352 114 170 c 0
 111 156 90 148 86 148 c 3
 81 148 80 159 80 166 c 3
 80 170 112 429 133 577 c 0
 136 596 160 631 192 631 c 3
EndSplineSet
Validated: 1
Substitution2: "'c2sc' Capitals to Small Capitals lookup 5-1" exclam.sc
Substitution2: "'smcp' Lowercase to Small Capitals in Latin lookup 3-1" exclam.sc
EndChar

StartChar: quotedbl
Encoding: 34 34 1
Width: 331
VWidth: 0
Flags: W
HStem: 434 264<138 144.81 288 294.81>
VStem: 107 95<556.545 674.219> 257 95<556.545 674.219>
LayerCount: 2
Back
Fore
SplineSet
324 698 m 27
 352 698 363 692 352 633 c 0
 341 577 312 516 293 449 c 0
 290 439 279 434 272 434 c 0
 265 434 256 439 257 447 c 0
 266 537 257 590 257 636 c 1
 260 654 288 698 324 698 c 27
174 698 m 27
 202 698 213 692 202 633 c 0
 191 577 162 516 143 449 c 0
 140 439 129 434 122 434 c 0
 115 434 106 439 107 447 c 0
 116 537 107 590 107 636 c 1
 110 654 138 698 174 698 c 27
EndSplineSet
Validated: 33
EndChar

StartChar: numbersign
Encoding: 35 35 2
Width: 447
VWidth: 0
Flags: W
HStem: 178 50<19.3572 98 163 238 303 380.643> 320 50<67.3572 145 210 285 350 428.229>
LayerCount: 2
Back
Fore
SplineSet
350 370 m 1
 430 370 l 0
 435 370 435 370 435 368 c 0
 435 352 420 320 412 320 c 0
 333 320 l 1
 303 228 l 1
 382 228 l 0
 386 228 387 228 387 225 c 0
 387 209 372 178 364 178 c 0
 285 178 l 1
 234 25 l 0
 234 24 231 18 203 18 c 0
 195 18 186 20 184 21 c 1
 186 30 236 173 236 174 c 0
 238 178 l 1
 145 178 l 1
 94 25 l 0
 94 24 91 18 63 18 c 0
 55 18 46 20 44 21 c 1
 46 30 96 173 96 174 c 0
 98 178 l 1
 18 178 l 0
 14 178 13 178 13 181 c 0
 13 197 28 228 36 228 c 0
 115 228 l 1
 145 320 l 1
 66 320 l 0
 62 320 61 320 61 323 c 0
 61 339 76 370 84 370 c 0
 163 370 l 1
 214 523 l 0
 214 524 217 530 245 530 c 0
 253 530 262 527 264 526 c 1
 262 519 212 375 212 374 c 0
 210 370 l 1
 303 370 l 1
 354 523 l 0
 354 524 357 530 385 530 c 0
 393 530 402 527 404 526 c 1
 402 519 352 375 352 374 c 0
 350 370 l 1
285 320 m 1
 193 320 l 1
 163 228 l 1
 255 228 l 1
 285 320 l 1
EndSplineSet
Validated: 1
EndChar

StartChar: dollar
Encoding: 36 36 3
Width: 435
UnlinkRmOvrlpSave: 1
Flags: W
HStem: -8 34<143.192 247.727> 607 34<208.102 319.355>
VStem: 19 34<105.938 182.525> 84 75<428.041 538.638> 306 86<103.403 212.666> 368 30<472.526 569.644>
LayerCount: 2
Back
Fore
SplineSet
286 641 m 0xf8
 342 641 371 630 418 618 c 1
 415 585 404 508 398 479 c 0
 397 472 392 472 389 472 c 0
 385 472 374 473 368 479 c 1xf4
 373 556 353 607 272 607 c 0
 193 607 159 549 159 500 c 0
 159 421 219 390 270 350 c 0
 321 310 392 275 392 185 c 0
 392 66 268 -8 172 -8 c 0
 117 -8 69 14 30 32 c 1
 17 84 17 165 19 177 c 1
 22 181 36 183 43 183 c 0
 48 183 51 181 53 177 c 1
 53 124 88 26 186 26 c 0
 242 26 306 65 306 141 c 0
 306 210 262 239 214 277 c 0
 156 324 84 359 84 458 c 0
 84 569 196 641 286 641 c 0xf8
120 -52 m 17
 112 -52 88 -50 89 -43 c 9
 89 -43 342 683 342 683 c 17
 349 683 374 683 373 676 c 9
 373 676 120 -52 120 -52 c 17
EndSplineSet
Validated: 37
EndChar

StartChar: percent
Encoding: 37 37 4
Width: 630
VWidth: 0
Flags: W
HStem: -8 28<381.061 451.221> 300 27<418.525 488.689> 338 28<169.061 239.221> 643 20G<615 626> 646 27<206.525 276.689>
VStem: 74 63<389.827 559.144> 286 63<43.8269 213.144> 304 65<451.145 624.049> 516 65<105.145 278.049>
LayerCount: 2
Back
Fore
SplineSet
458 300 m 3xe680
 395 300 349 210 349 132 c 27
 349 81 366 20 414 20 c 3
 477 20 516 116 516 195 c 27
 516 242 503 300 458 300 c 3xe680
468 327 m 3
 545 327 581 263 581 195 c 3
 581 99 500 -8 402 -8 c 3
 326 -8 286 55 286 123 c 3
 286 221 366 327 468 327 c 3
246 646 m 3xed80
 183 646 137 556 137 478 c 27
 137 427 154 366 202 366 c 3
 265 366 304 462 304 541 c 27
 304 588 291 646 246 646 c 3xed80
256 673 m 3
 333 673 369 609 369 541 c 3
 369 445 288 338 190 338 c 3
 114 338 74 401 74 469 c 3
 74 567 154 673 256 673 c 3
647 650 m 9
 647 650 51 0 51 0 c 2
 47 -4 31 -12 17 -12 c 27
 10 -12 4 -9 2 -1 c 9
 2 -1 598 652 598 652 c 2
 602 656 610 663 620 663 c 27xf480
 632 663 643 660 647 650 c 9
EndSplineSet
Validated: 1
EndChar

StartChar: ampersand
Encoding: 38 38 5
Width: 781
UnlinkRmOvrlpSave: 1
Flags: W
HStem: -5 32<327.813 472.689> 494 42<323.959 441>
VStem: -7 50<99 180.223> 409 93<382.172 486.883> 431 37<130.403 207.5> 597 63<146.155 237.616> 737 42<434.8 531.738>
LayerCount: 2
Back
Fore
SplineSet
418 536 m 27xee
 464 536 502 498 502 452 c 27
 502 300 247 241 185 227 c 0
 115 211 43 196 43 154 c 3
 43 136 55 130 63 123 c 0
 72 115 82 106 82 90 c 3
 82 61 62 47 38 47 c 27
 28 47 20 48 13 52 c 1
 0 63 -7 91 -7 107 c 0
 -7 169 31 218 102 238 c 0
 180 260 409 313 409 435 c 3xf6
 409 470 396 494 358 494 c 3
 289 494 221 394 221 255 c 3
 221 102 290 27 410 27 c 3
 502 27 597 99 597 192 c 0
 597 209 588 232 582 238 c 1
 532 222 468 189 468 145 c 3
 468 136 469 128 472 123 c 1
 468 121 457 122 452 128 c 1
 441 137 431 160 431 185 c 3
 431 230 472 261 546 293 c 0
 637 332 746 402 737 542 c 1
 746 543 754 537 757 534 c 1
 769 510 779 482 779 440 c 3
 779 360 724 298 654 264 c 1
 658 256 660 243 660 228 c 0
 660 108 525 -5 378 -5 c 0
 247 -5 139 56 139 224 c 3
 139 370 255 536 418 536 c 27xee
EndSplineSet
Validated: 37
EndChar

StartChar: quotesingle
Encoding: 39 39 6
Width: 181
VWidth: 0
Flags: W
HStem: 434 264<138 144.81>
VStem: 107 95<556.545 674.219>
LayerCount: 2
Back
Fore
SplineSet
174 698 m 27
 202 698 213 692 202 633 c 0
 191 577 162 516 143 449 c 0
 140 439 129 434 122 434 c 0
 115 434 106 439 107 447 c 0
 116 537 107 590 107 636 c 1
 110 654 138 698 174 698 c 27
EndSplineSet
Validated: 33
EndChar

StartChar: parenleft
Encoding: 40 40 7
Width: 260
VWidth: 0
Flags: W
VStem: 49 235
LayerCount: 2
Back
Fore
SplineSet
277 748 m 1
 282 746 284 739 284 735 c 1
 222 664 86 418 108 164 c 0
 120 23 152 -54 203 -109 c 1
 203 -112 203 -119 198 -121 c 1
 139 -99 64 4 49 177 c 0
 23 474 197 676 277 748 c 1
EndSplineSet
Validated: 33
Substitution2: "'c2sc' Capitals to Small Capitals lookup 5-1" parenleft.sc
Substitution2: "'smcp' Lowercase to Small Capitals in Latin lookup 3-1" parenleft.sc
EndChar

StartChar: parenright
Encoding: 41 41 8
Width: 260
VWidth: 0
Flags: W
VStem: -5 235
LayerCount: 2
Back
Fore
SplineSet
2 -121 m 1
 -3 -119 -6 -112 -5 -108 c 1
 57 -37 193 209 171 463 c 0
 159 604 127 681 76 736 c 1
 76 739 76 746 81 748 c 1
 140 726 215 623 230 450 c 0
 256 153 82 -49 2 -121 c 1
EndSplineSet
Validated: 33
Substitution2: "'c2sc' Capitals to Small Capitals lookup 5-1" parenright.sc
Substitution2: "'smcp' Lowercase to Small Capitals in Latin lookup 3-1" parenright.sc
EndChar

StartChar: asterisk
Encoding: 42 42 9
Width: 400
Flags: W
HStem: 432 68<70.7409 166.231> 466 48<245.834 267.802> 473 20<186.821 225.891> 644 20G<202.5 226.5>
VStem: 161 64<305.242 381.874> 226 167<409.5 471> 228 41<493.177 514.922>
LayerCount: 2
Back
Fore
SplineSet
256 514 m 0x5a
 281 514 328 633 379 633 c 0
 393 633 402 623 402 609 c 0
 402 552 269 523 269 491 c 0x5a
 269 464 393 473 393 419 c 0
 393 400 376 383 356 383 c 0
 313 383 280 466 255 466 c 0x5c
 232 466 243 398 225 341 c 0
 216 311 198 298 184 298 c 0
 171 298 161 309 161 326 c 0
 161 366 226 438 226 464 c 0
 226 469 224 473 217 473 c 0x3c
 196 473 132 432 94 432 c 0
 77 432 64 440 64 456 c 0
 64 469 71 500 125 500 c 0x9c
 154 500 183 493 203 493 c 0x3c
 225 493 228 503 228 510 c 0
 228 534 177 580 177 623 c 0
 177 648 194 664 211 664 c 0
 242 664 244 620 244 580 c 0
 244 574 242 514 256 514 c 0x5a
EndSplineSet
Validated: 33
EndChar

StartChar: plus
Encoding: 43 43 10
Width: 454
Flags: W
HStem: 217 43<19.6117 195 251 424.103>
LayerCount: 2
Back
Fore
SplineSet
23 217 m 2
 20 217 18 220 18 225 c 0
 18 238 21 247 31 260 c 1
 203 260 l 1
 236 435 l 2
 239 448 273 451 277 451 c 0
 285 451 287 447 286 443 c 2
 251 260 l 1
 422 260 l 2
 424 260 425 257 425 252 c 0
 425 239 424 229 413 217 c 1
 243 217 l 1
 208 39 l 2
 206 29 189 23 173 23 c 0
 163 23 159 27 159 31 c 2
 195 217 l 1
 23 217 l 2
EndSplineSet
Validated: 1
EndChar

StartChar: comma
Encoding: 44 44 11
Width: 200
VWidth: 0
Flags: W
HStem: -109 238
VStem: 23 86<0.260574 119.381>
LayerCount: 2
Back
Fore
SplineSet
-28 -89 m 1
 -15 -83 40 -48 40 -2 c 0
 40 47 23 46 23 79 c 0
 23 110 49 129 78 129 c 0
 90 129 102 124 106 119 c 1
 108 114 109 98 109 95 c 0
 109 51 98 13 73 -28 c 0
 45 -74 4 -102 -14 -109 c 1
 -18 -109 -28 -97 -28 -89 c 1
EndSplineSet
Validated: 1
EndChar

StartChar: hyphen
Encoding: 45 45 12
Width: 371
VWidth: 0
Flags: W
VStem: 53 254<210.346 261>
LayerCount: 2
Back
Fore
SplineSet
74 261 m 2
 301 273 l 2
 306 273 307 266 307 261 c 0
 307 248 294 211 284 210 c 10
 58 199 l 2
 55 199 53 206 53 214 c 0
 53 225 63 260 74 261 c 2
EndSplineSet
Validated: 1
EndChar

StartChar: period
Encoding: 46 46 13
Width: 208
VWidth: 0
Flags: W
HStem: -14 116<27.9536 97.375>
VStem: 8 110<6.4082 82.5449>
LayerCount: 2
Back
Fore
SplineSet
8 33 m 0
 8 70 42 102 75 102 c 0
 101 102 118 83 118 57 c 0
 118 20 85 -14 52 -14 c 0
 26 -14 8 6 8 33 c 0
EndSplineSet
Validated: 1
Substitution2: "'c2sc' Capitals to Small Capitals lookup 5-1" period.sc
Substitution2: "'smcp' Lowercase to Small Capitals in Latin lookup 3-1" period.sc
EndChar

StartChar: slash
Encoding: 47 47 14
Width: 382
VWidth: 0
Flags: W
LayerCount: 2
Back
Fore
SplineSet
451 755 m 1
 27 -12 l 2
 24 -17 3 -34 -20 -34 c 0
 -24 -34 -31 -30 -32 -28 c 9
 393 739 l 2
 398 747 421 761 439 761 c 0
 445 761 449 758 451 755 c 1
EndSplineSet
Validated: 1
Substitution2: "'c2sc' Capitals to Small Capitals lookup 5-1" slash.sc
Substitution2: "'smcp' Lowercase to Small Capitals in Latin lookup 3-1" slash.sc
EndChar

StartChar: zero
Encoding: 48 48 15
Width: 456
Flags: W
HStem: -3 35<194.175 279.473> 606 35<303.156 388.016>
LayerCount: 2
Back
Fore
SplineSet
169.506835938 320 m 0
 138.506835938 163 161.506835938 32 230.506835938 32 c 0
 313.506835938 32 381.506835938 168 412.506835938 325 c 0
 443.506835938 482 419.506835938 606 350.506835938 606 c 0
 272.506835938 606 200.506835938 477 169.506835938 320 c 0
87.5068359375 319 m 0
 121.506835938 493 224.506835938 641 352.506835938 641 c 0
 482.506835938 641 526.506835938 493 492.506835938 319 c 0
 458.506835938 145 355.506835938 -3 227.506835938 -3 c 0
 101.506835938 -3 53.5068359375 145 87.5068359375 319 c 0
EndSplineSet
Validated: 33
Substitution2: "'pnum' Proportional Numbers lookup 12-1" zero.prop
Substitution2: "'onum' Oldstyle Figures in Latin lookup 5-1" zero.onum
EndChar

StartChar: one
Encoding: 49 49 16
Width: 456
Flags: W
HStem: -3 29<130.495 197.004 297.41 349.349> 622 20G<394.786 401.286>
VStem: 129.286 277
LayerCount: 2
Back
Fore
SplineSet
224.286132812 534 m 1
 217.286132812 538 214.286132812 547 215.286132812 554 c 0
 215.286132812 556 215.286132812 559 218.286132812 560 c 0
 311.286132812 604 393.286132812 642 396.286132812 642 c 2
 398.286132812 642 l 2
 404.286132812 642 406.286132812 628 406.286132812 623 c 1
 406.286132812 623 390.286132812 590 378.286132812 529 c 2
 302.286132812 135 l 2
 296.286132812 102 291.286132812 73 292.286132812 46 c 0
 293.286132812 35 343.286132812 26 350.286132812 26 c 0
 353.286132812 26 351.286132812 15 350.286132812 8 c 0
 349.286132812 3 348.286132812 -1 347.286132812 -3 c 1
 310.286132812 -1 274.286132812 2 237.286132812 2 c 0
 200.286132812 2 167.286132812 -1 129.286132812 -3 c 1
 125.286132812 2 130.286132812 26 135.286132812 26 c 0
 146.286132812 26 199.286132812 35 204.286132812 46 c 0
 213.286132812 66 216.286132812 84 220.286132812 103 c 2
 290.286132812 463 l 2
 302.286132812 523 307.286132812 554 288.286132812 554 c 0
 281.286132812 554 242.286132812 543 224.286132812 534 c 1
EndSplineSet
Validated: 33
Substitution2: "'pnum' Proportional Numbers lookup 12-1" one.prop
Substitution2: "'onum' Oldstyle Figures in Latin lookup 5-1" one.onum
EndChar

StartChar: two
Encoding: 50 50 17
Width: 456
Flags: W
HStem: 0 73<143.037 379.809> 577 65<268.325 370.637>
VStem: 396.037 89<411.7 550.393>
LayerCount: 2
Back
Fore
SplineSet
485.037109375 512 m 0
 485.037109375 421 438.037109375 358 367.037109375 286 c 0
 283.037109375 200 141.037109375 73 143.037109375 73 c 9
 313.037109375 73 l 2
 367.037109375 73 399.037109375 105 418.037109375 147 c 0
 420.037109375 152 425.037109375 156 431.037109375 156 c 0
 435.037109375 156 447.037109375 152 448.037109375 150 c 1
 422.037109375 101 379.037109375 18 371.037109375 0 c 9
 371.037109375 0 53.037109375 0 46.037109375 0 c 1
 44.037109375 2 40.037109375 9 40.037109375 15 c 1
 95.037109375 65 238.037109375 212 297.037109375 279 c 0
 365.037109375 356 396.037109375 418 396.037109375 486 c 0
 396.037109375 542 363.037109375 577 314.037109375 577 c 0
 240.037109375 577 180.037109375 511 165.037109375 491 c 1
 158.037109375 491 150.037109375 503 151.037109375 507 c 1
 162.037109375 532 250.037109375 642 347.037109375 642 c 0
 420.037109375 642 485.037109375 590 485.037109375 512 c 0
EndSplineSet
Validated: 33
Substitution2: "'pnum' Proportional Numbers lookup 12-1" two.prop
Substitution2: "'onum' Oldstyle Figures in Latin lookup 5-1" two.onum
EndChar

StartChar: three
Encoding: 51 51 18
Width: 456
Flags: W
HStem: -5 40<161.142 261.364> 317 31<202.768 256.164> 588 54<274.593 369.294>
VStem: 362.73 85<156.672 292.44> 387.73 73<465.959 570.265>
LayerCount: 2
Back
Fore
SplineSet
359.73046875 642 m 0xe8
 406.73046875 642 460.73046875 607 460.73046875 533 c 0xe8
 460.73046875 467 396.73046875 408 344.73046875 379 c 1
 400.73046875 372 447.73046875 304 447.73046875 244 c 0
 447.73046875 90 264.73046875 -5 176.73046875 -5 c 0
 128.73046875 -5 94.73046875 4 71.73046875 20 c 1
 67.73046875 25 62.73046875 37 62.73046875 48 c 0
 62.73046875 78 82.73046875 106 104.73046875 106 c 0
 137.73046875 106 142.73046875 76 156.73046875 59 c 0
 173.73046875 38 195.73046875 35 220.73046875 35 c 0
 277.73046875 35 362.73046875 106 362.73046875 219 c 0xf0
 362.73046875 286 326.73046875 327 265.73046875 327 c 0
 245.73046875 327 218.73046875 320 206.73046875 317 c 1
 203.73046875 322 202.73046875 326 202.73046875 331 c 0
 202.73046875 335 203.73046875 345 205.73046875 348 c 1
 285.73046875 362 387.73046875 425 387.73046875 513 c 0
 387.73046875 568 352.73046875 588 310.73046875 588 c 0
 251.73046875 588 209.73046875 535 199.73046875 528 c 1
 193.73046875 528 192.73046875 543 194.73046875 552 c 1
 232.73046875 598 286.73046875 642 359.73046875 642 c 0xe8
EndSplineSet
Validated: 1
Substitution2: "'pnum' Proportional Numbers lookup 12-1" three.prop
Substitution2: "'onum' Oldstyle Figures in Latin lookup 5-1" three.onum
EndChar

StartChar: four
Encoding: 52 52 19
Width: 456
Flags: W
HStem: -6 21G<312.725 341.725> 174 57<128.725 324.725 411.725 473.661> 624 20G<472.225 480.225>
LayerCount: 2
Back
Fore
SplineSet
475.724609375 644 m 0
 484.724609375 644 490.724609375 634 488.724609375 626 c 2
 411.724609375 231 l 25
 467.724609375 231 l 18
 473.724609375 231 476.724609375 211 472.724609375 190 c 0
 470.724609375 181 467.724609375 177 465.724609375 174 c 1
 400.724609375 174 l 25
 366.724609375 -1 l 1
 366.724609375 -1 359.724609375 -6 323.724609375 -6 c 0
 301.724609375 -6 289.724609375 -5 290.724609375 2 c 2
 324.724609375 174 l 25
 62.724609375 174 l 1
 56.724609375 178 56.724609375 187 57.724609375 193 c 1
 442.724609375 619 l 2
 449.724609375 627 468.724609375 644 475.724609375 644 c 0
392.724609375 524 m 25
 128.724609375 231 l 25
 335.724609375 231 l 25
 392.724609375 524 l 25
EndSplineSet
Validated: 33
Substitution2: "'pnum' Proportional Numbers lookup 12-1" four.prop
Substitution2: "'onum' Oldstyle Figures in Latin lookup 5-1" four.onum
EndChar

StartChar: five
Encoding: 53 53 20
Width: 456
Flags: W
HStem: -5 40<161.419 261.855> 332 63<204.55 321.087> 551 80<251.247 451.832> 624 20G<459.507 480.007>
VStem: 363.007 85<160.249 291.599>
LayerCount: 2
Back
Fore
SplineSet
448.006835938 247 m 0xe8
 448.006835938 93 266.006835938 -5 177.006835938 -5 c 0
 129.006835938 -5 95.0068359375 4 72.0068359375 20 c 1
 68.0068359375 25 63.0068359375 37 63.0068359375 48 c 0
 63.0068359375 78 83.0068359375 106 105.006835938 106 c 0
 138.006835938 106 143.006835938 76 157.006835938 59 c 0
 174.006835938 38 196.006835938 35 221.006835938 35 c 0
 278.006835938 35 363.006835938 106 363.006835938 219 c 0
 363.006835938 255 350.006835938 332 242.006835938 332 c 3
 222.006835938 332 186.006835938 325 167.006835938 319 c 1
 164.006835938 321 157.006835938 328 153.006835938 333 c 1
 198.006835938 465 228.006835938 589 243.006835938 631 c 1xe8
 309.006835938 633 442.006835938 636 477.006835938 644 c 1xd8
 483.006835938 641 487.006835938 635 487.006835938 631 c 0
 487.006835938 614 464.006835938 575 454.006835938 561 c 1
 409.006835938 551 273.006835938 554 258.006835938 551 c 1
 254.006835938 544 223.006835938 430 204.006835938 377 c 1
 224.006835938 385 276.006835938 395 301.006835938 395 c 0
 401.006835938 395 448.006835938 314 448.006835938 247 c 0xe8
EndSplineSet
Validated: 1
Substitution2: "'pnum' Proportional Numbers lookup 12-1" five.prop
Substitution2: "'onum' Oldstyle Figures in Latin lookup 5-1" five.onum
EndChar

StartChar: six
Encoding: 54 54 21
Width: 456
VWidth: 0
Flags: W
HStem: -6 33<200.242 285.742> 333 47<260.325 343.152> 623 20G<431.203 492.203>
VStem: 81.2031 82<70.6657 291.425> 375.203 80<143.812 301.216>
LayerCount: 2
Back
Fore
SplineSet
325.203125 380 m 0
 402.203125 380 455.203125 311 455.203125 230 c 0
 455.203125 114 337.203125 -6 228.203125 -6 c 0
 140.203125 -6 81.203125 61 81.203125 173 c 0
 81.203125 251 118.203125 365 205.203125 464 c 0
 263.203125 530 373.203125 603 489.203125 643 c 1
 495.203125 643 497.203125 624 496.203125 618 c 1
 381.203125 569 265.203125 491 205.203125 350 c 0
 171.203125 270 163.203125 215 163.203125 160 c 0
 163.203125 99 182.203125 27 240.203125 27 c 0
 294.203125 27 375.203125 106 375.203125 224 c 0
 375.203125 286 348.203125 333 279.203125 333 c 0
 255.203125 333 240.203125 324 231.203125 319 c 1
 228.203125 321 225.203125 325 225.203125 329 c 3
 225.203125 341 291.203125 380 325.203125 380 c 0
EndSplineSet
Validated: 1
Substitution2: "'pnum' Proportional Numbers lookup 12-1" six.prop
Substitution2: "'onum' Oldstyle Figures in Latin lookup 5-1" six.onum
EndChar

StartChar: seven
Encoding: 55 55 22
Width: 456
Flags: W
HStem: -6 21G<134.28 143.78> 557 76<192.28 468.28>
LayerCount: 2
Back
Fore
SplineSet
103.280273438 14 m 1
 235.280273438 180 468.280273438 557 468.280273438 557 c 1
 236.280273438 557 l 2
 199.280273438 557 172.280273438 512 154.280273438 480 c 0
 153.280273438 478 150.280273438 477 147.280273438 477 c 0
 140.280273438 477 131.280273438 479 126.280273438 482 c 1
 142.280273438 520 182.280273438 598 192.280273438 633 c 9
 478.280273438 633 l 2
 502.280273438 633 535.280273438 636 541.280273438 636 c 0
 547.280273438 636 546.280273438 632 545.280273438 627 c 0
 542.280273438 614 523.280273438 588 505.280273438 560 c 2
 151.280273438 -3 l 1
 149.280273438 -5 146.280273438 -6 141.280273438 -6 c 0
 127.280273438 -6 101.280273438 5 103.280273438 14 c 1
EndSplineSet
Validated: 33
Substitution2: "'pnum' Proportional Numbers lookup 12-1" seven.prop
Substitution2: "'onum' Oldstyle Figures in Latin lookup 5-1" seven.onum
EndChar

StartChar: eight
Encoding: 56 56 23
Width: 456
Flags: W
HStem: -9 36<186.114 294.031> 608 35<299.549 387.909>
LayerCount: 2
Back
Fore
SplineSet
357.697265625 643 m 0
 440.697265625 643 498.697265625 586 480.697265625 491 c 0
 467.697265625 424 395.697265625 373 347.697265625 344 c 1
 343.697265625 343 344.697265625 340 346.697265625 338 c 0
 395.697265625 304 449.697265625 239 435.697265625 167 c 0
 416.697265625 67 316.697265625 -9 223.697265625 -9 c 0
 121.697265625 -9 63.697265625 57 82.697265625 154 c 0
 99.697265625 242 193.697265625 293 234.697265625 318 c 0
 237.697265625 320 238.697265625 323 236.697265625 324 c 0
 202.697265625 349 157.697265625 406 171.697265625 480 c 0
 188.697265625 565 275.697265625 643 357.697265625 643 c 0
345.697265625 608 m 0
 300.697265625 608 256.697265625 562 242.697265625 492 c 0
 230.697265625 430 283.697265625 386 314.697265625 364 c 0
 316.697265625 363 317.697265625 362 319.697265625 362 c 0
 321.697265625 362 322.697265625 362 325.697265625 364 c 0
 368.697265625 391 401.697265625 431 412.697265625 486 c 0
 423.697265625 544 401.697265625 608 345.697265625 608 c 0
232.697265625 27 m 0
 293.697265625 27 341.697265625 70 354.697265625 138 c 0
 370.697265625 221 276.697265625 287 265.697265625 295 c 0
 263.697265625 296 263.697265625 297 260.697265625 297 c 0
 259.697265625 297 257.697265625 297 256.697265625 296 c 0
 198.697265625 261 168.697265625 221 156.697265625 157 c 0
 140.697265625 75 183.697265625 27 232.697265625 27 c 0
EndSplineSet
Validated: 33
Substitution2: "'pnum' Proportional Numbers lookup 12-1" eight.prop
Substitution2: "'onum' Oldstyle Figures in Latin lookup 5-1" eight.onum
EndChar

StartChar: nine
Encoding: 57 57 24
Width: 456
VWidth: 0
Flags: W
HStem: -6 21G<87.6172 148.617> 257 47<236.668 319.495> 610 33<294.078 379.578>
VStem: 124.617 80<335.784 493.188> 416.617 82<345.575 566.334>
LayerCount: 2
Back
Fore
SplineSet
254.6171875 257 m 0
 177.6171875 257 124.6171875 326 124.6171875 407 c 0
 124.6171875 523 242.6171875 643 351.6171875 643 c 0
 439.6171875 643 498.6171875 576 498.6171875 464 c 0
 498.6171875 386 461.6171875 272 374.6171875 173 c 0
 316.6171875 107 206.6171875 34 90.6171875 -6 c 1
 84.6171875 -6 82.6171875 13 83.6171875 19 c 1
 198.6171875 68 314.6171875 146 374.6171875 287 c 0
 408.6171875 367 416.6171875 422 416.6171875 477 c 0
 416.6171875 538 397.6171875 610 339.6171875 610 c 0
 285.6171875 610 204.6171875 531 204.6171875 413 c 0
 204.6171875 351 231.6171875 304 300.6171875 304 c 0
 324.6171875 304 339.6171875 313 348.6171875 318 c 1
 351.6171875 316 354.6171875 312 354.6171875 308 c 3
 354.6171875 296 288.6171875 257 254.6171875 257 c 0
EndSplineSet
Validated: 1
Substitution2: "'pnum' Proportional Numbers lookup 12-1" nine.prop
Substitution2: "'onum' Oldstyle Figures in Latin lookup 5-1" nine.onum
EndChar

StartChar: colon
Encoding: 58 58 25
Width: 236
VWidth: 0
Flags: W
HStem: -14 120<40.25 110.75> 318 120<103.544 175.353>
VStem: 19 113<6.94727 85.0527> 83 114<339.191 416.75>
LayerCount: 2
Back
Fore
SplineSet
83 367 m 0xd0
 83 405 118 438 152 438 c 0
 179 438 197 418 197 391 c 0
 197 353 163 318 129 318 c 0
 102 318 83 339 83 367 c 0xd0
19 34 m 0xe0
 19 72 53 106 87 106 c 0
 114 106 132 85 132 58 c 0
 132 20 98 -14 64 -14 c 0
 37 -14 19 7 19 34 c 0xe0
EndSplineSet
Validated: 1
Substitution2: "'c2sc' Capitals to Small Capitals lookup 5-1" colon.sc
Substitution2: "'smcp' Lowercase to Small Capitals in Latin lookup 3-1" colon.sc
EndChar

StartChar: semicolon
Encoding: 59 59 26
Width: 252
VWidth: 0
Flags: W
HStem: -109 238 318 120<119.544 191.353>
VStem: 34 86<0.260574 119.381> 99 114<339.191 416.75>
LayerCount: 2
Back
Fore
SplineSet
99 367 m 0xd0
 99 405 134 438 168 438 c 0
 195 438 213 418 213 391 c 0
 213 353 179 318 145 318 c 0
 118 318 99 339 99 367 c 0xd0
EndSplineSet
Refer: 11 44 N 1 0 0 1 11 0 2
Validated: 1
Substitution2: "'c2sc' Capitals to Small Capitals lookup 5-1" semicolon.sc
Substitution2: "'smcp' Lowercase to Small Capitals in Latin lookup 3-1" semicolon.sc
EndChar

StartChar: less
Encoding: 60 60 27
Width: 447
VWidth: 0
Flags: W
LayerCount: 2
Back
Fore
SplineSet
87 209 m 1
 361 41 l 1
 361 41 363 40 363 36 c 0
 363 23 343 -14 338 -14 c 0
 337 -14 336 -14 334 -13 c 2
 22 177 l 2
 16 181 12 191 12 203 c 0
 12 217 18 232 35 241 c 2
 416 428 l 2
 418 429 419 429 420 429 c 0
 423 429 427 408 427 394 c 0
 427 391 426 376 422 374 c 2
 87 209 l 1
EndSplineSet
Validated: 1
Substitution2: "'c2sc' Capitals to Small Capitals lookup 5-1" less.sc
Substitution2: "'smcp' Lowercase to Small Capitals in Latin lookup 3-1" less.sc
EndChar

StartChar: equal
Encoding: 61 61 28
Width: 560
VWidth: 0
Flags: W
HStem: 117 56<43.0048 454> 259 56<71.458 481>
LayerCount: 2
Back
Fore
SplineSet
39 117 m 1
 39 117 34 117 34 123 c 0
 34 126 48 173 57 173 c 2
 473 173 l 18
 478 173 479 170 479 168 c 0
 479 163 469 142 461 123 c 1
 457 117 454 117 454 117 c 1
 39 117 l 1
67 259 m 1
 67 259 63 259 63 265 c 0
 63 266 76 315 85 315 c 2
 500 315 l 2
 505 315 506 312 506 310 c 0
 506 305 497 284 489 265 c 0
 486 259 481 259 481 259 c 1
 67 259 l 1
EndSplineSet
Validated: 1
Substitution2: "'c2sc' Capitals to Small Capitals lookup 5-1" equal.sc
Substitution2: "'smcp' Lowercase to Small Capitals in Latin lookup 3-1" equal.sc
EndChar

StartChar: greater
Encoding: 62 62 29
Width: 448
VWidth: 0
Flags: W
LayerCount: 2
Back
Fore
SplineSet
339 209 m 1
 67 374 l 1
 67 374 65 375 65 378 c 0
 65 385 86 430 91 430 c 0
 92 430 93 429 95 428 c 2
 402 241 l 2
 409 237 414 230 414 221 c 0
 414 218 412 188 390 177 c 2
 5 -13 l 2
 3 -14 1 -15 -1 -15 c 0
 -6 -15 -7 4 -7 33 c 0
 -7 38 -2 41 -2 41 c 1
 339 209 l 1
EndSplineSet
Validated: 1
Substitution2: "'c2sc' Capitals to Small Capitals lookup 5-1" greater.sc
Substitution2: "'smcp' Lowercase to Small Capitals in Latin lookup 3-1" greater.sc
EndChar

StartChar: question
Encoding: 63 63 30
Width: 320
VWidth: 0
Flags: W
HStem: -14 116<59.0005 128.844> 582 49<182.561 265.849>
VStem: 40 110<7.125 82.8877> 66 70<230.186 312.884> 277 51<467.125 570.128>
LayerCount: 2
Back
Fore
SplineSet
40 32 m 0xe8
 40 70 72 102 105 102 c 0
 131 102 150 82 150 56 c 0
 150 19 115 -14 82 -14 c 0
 56 -14 40 6 40 32 c 0xe8
175 197 m 1
 175 193 170 184 165 181 c 1
 141 181 66 227 66 283 c 3
 66 325 89 348 115 366 c 0
 162 398 186 414 231 446 c 16
 251 460 277 484 277 522 c 3
 277 561 255 582 225 582 c 0
 181 582 181 536 143 536 c 0
 114 536 109 570 109 588 c 1
 114 603 157 631 195 631 c 0
 270 631 328 564 328 502 c 0
 328 460 316 428 284 398 c 0
 260 376 221 357 169 321 c 0
 144 304 136 288 136 261 c 27xd8
 136 232 164 205 175 197 c 1
EndSplineSet
Validated: 1
Substitution2: "'c2sc' Capitals to Small Capitals lookup 5-1" question.sc
Substitution2: "'smcp' Lowercase to Small Capitals in Latin lookup 3-1" question.sc
EndChar

StartChar: at
Encoding: 64 64 31
Width: 759
VWidth: 0
Flags: W
HStem: -6 36<443.5 539.027> -5 58<232.498 313.45> 395 40<376.703 478.5> 542 35<317.501 510.238>
VStem: 29 38<45.8709 265.271> 172 74<65.9005 219.522> 656 42<171.206 381.516>
LayerCount: 2
Back
Fore
SplineSet
421 577 m 3xbe
 606 577 698 443 698 282 c 0
 698 76 550 -6 468 -6 c 0xbe
 419 -6 398 28 398 58 c 0
 398 66 399 77 403 98 c 0
 407 117 407 123 408 130 c 1
 386 91 318 -5 260 -5 c 3x7e
 205 -5 172 45 172 115 c 3
 172 275 324 435 461 435 c 0
 496 435 515 429 534 422 c 9
 534 422 470 105 470 105 c 2
 460 57 473 30 497 30 c 3
 572 30 656 163 656 267 c 0
 656 433 572 542 413 542 c 3
 244 542 67 380 67 140 c 0
 67 60 107 -16 160 -58 c 0
 178 -72 197 -83 206 -87 c 1
 200 -92 193 -94 174 -94 c 0
 149 -94 114 -65 100 -49 c 0
 47 14 29 76 29 141 c 0
 29 393 213 577 421 577 c 3xbe
413 395 m 3
 336 395 246 265 246 150 c 0
 246 88 262 53 297 53 c 3x7e
 347 53 418 177 437 273 c 2
 437 273 458 380 458 380 c 17
 449 390 426 395 413 395 c 3
EndSplineSet
Validated: 33
Substitution2: "'smcp' Lowercase to Small Capitals in Latin lookup 3-1" at.sc
EndChar

StartChar: A
Encoding: 65 65 32
Width: 586
Flags: W
HStem: -3 29<-51.9062 2.55664 79.1218 134.297 336.546 391.212 500.464 550.297> 256 33<192 367> 643 20G<382 387.5>
LayerCount: 2
Back
Fore
SplineSet
341 26 m 1
 376 26 398 37 398 57 c 0
 398 67 398 87 395 106 c 2
 373 256 l 1
 174 256 l 1
 140 194 112 142 103 125 c 0
 85 90 74 65 74 50 c 0
 74 29 129 26 136 26 c 1
 138 23 135 3 132 -3 c 1
 95 -1 84 2 43 2 c 0
 0 2 -12 -1 -55 -3 c 1
 -57 0 -53 19 -49 26 c 1
 -38 26 -4 32 8 45 c 0
 32 71 50 103 70 139 c 2
 346 634 l 2
 355 650 378 663 386 663 c 0
 389 663 390 661 391 660 c 1
 477 126 l 2
 483 89 487 62 488 58 c 0
 494 29 544 26 551 26 c 1
 554 19 550 0 548 -3 c 1
 511 -1 480 2 439 2 c 0
 396 2 378 -1 335 -3 c 1
 331 2 335 21 341 26 c 1
192 289 m 1
 367 289 l 1
 329 535 l 1
 192 289 l 1
EndSplineSet
Validated: 1
Substitution2: "'c2sc' Capitals to Small Capitals lookup 5-1" a.sc
EndChar

StartChar: B
Encoding: 66 66 33
Width: 566
Flags: W
HStem: -3 29<-3.01852 67.0025 163.225 302.266> 339 31<218 350.359> 630 29<119.909 180.076 252.473 384.093>
VStem: 409 95<132.881 297.423> 433 88<454.807 592.757>
LayerCount: 2
Back
Fore
SplineSet
218 370 m 1xe8
 218 370 312 370 312 370 c 2
 379 370 433 437 433 522 c 0
 433 578 405 630 319 630 c 0
 308 630 275 629 270 620 c 0
 263 608 257 575 251 545 c 2
 251 545 218 370 218 370 c 1xe8
211 339 m 1
 211 339 167 114 167 114 c 2
 164 100 156 50 161 43 c 0
 172 27 197 26 231 26 c 0
 334 26 409 96 409 220 c 0xf0
 409 250 411 339 268 339 c 2
 268 339 211 339 211 339 c 1
233 657 m 0
 269 657 310 659 365 659 c 0
 450 659 521 623 521 537 c 0xe8
 521 437 441 387 401 366 c 1
 446 362 504 308 504 226 c 0
 504 90 378 -3 209 -3 c 0
 209 -3 -5 -3 -5 -3 c 1
 -9 2 -4 21 1 26 c 1
 12 26 63 31 68 42 c 0
 76 58 81 86 87 116 c 2
 87 116 170 543 170 543 c 2
 176 573 181 602 180 617 c 0
 180 629 130 633 119 633 c 1
 116 638 118 657 124 662 c 1
 162 660 197 657 233 657 c 0
EndSplineSet
Validated: 33
Substitution2: "'c2sc' Capitals to Small Capitals lookup 5-1" b.sc
EndChar

StartChar: C
Encoding: 67 67 34
Width: 645
Flags: W
HStem: -8 29<284.677 432.749> 635 31<351.961 505.109>
VStem: 59 95<157.83 395.926> 585 31<489.527 561.331>
LayerCount: 2
Back
Fore
SplineSet
569 173 m 1
 582 173 597 165 597 165 c 1
 593 145 540 40 525 28 c 1
 471 0 416 -8 330 -8 c 0
 168 -8 59 117 59 265 c 0
 59 517 258 670 465 666 c 0
 523 665 577 652 626 640 c 1
 624 604 619 522 616 494 c 0
 616 491 612 489 608 489 c 1
 602 489 593 490 585 494 c 1
 590 574 520 635 436 635 c 0
 280 635 153 499 154 282 c 0
 154 163 208 21 358 21 c 0
 460 21 526 91 569 173 c 1
EndSplineSet
Validated: 33
Substitution2: "'c2sc' Capitals to Small Capitals lookup 5-1" c.sc
EndChar

StartChar: D
Encoding: 68 68 35
Width: 684
Flags: W
HStem: -3 29<-3.01852 67.0025 159.256 322.371> 631 26<119.909 179.768 270.259 424.125>
LayerCount: 2
Back
Fore
SplineSet
252 546 m 2
 167 112 l 2
 164 98 156 46 159 40 c 0
 164 29 198 26 232 26 c 0
 375 26 511 118 549 313 c 0
 593 539 491 631 338 631 c 0
 327 631 276 630 271 620 c 0
 263 604 258 575 252 546 c 2
368 658 m 0
 583 658 681 519 645 334 c 0
 612 164 499 -2 228 -3 c 1
 -5 -3 l 1
 -9 2 -4 21 1 26 c 1
 12 26 63 31 68 42 c 0
 76 58 81 86 87 116 c 2
 170 543 l 2
 176 573 182 601 180 617 c 0
 179 628 130 633 119 633 c 1
 116 638 118 657 124 662 c 1
 162 660 197 657 233 657 c 0
 269 657 327 658 368 658 c 0
EndSplineSet
Validated: 33
Substitution2: "'c2sc' Capitals to Small Capitals lookup 5-1" d.sc
EndChar

StartChar: E
Encoding: 69 69 36
Width: 554
Flags: W
HStem: 0 30<-2.03058 69.1056 158.472 357.333> 316 33<214.68 369.546> 630 27<120.525 179 269.882 468.353>
VStem: 383 29<230.036 271.632> 505 29<523.182 590.783>
LayerCount: 2
Back
SplineSet
417 630 m 2
 337 630 l 2
 326 630 276 629 271 619 c 0
 263 603 256 574 251 547 c 1026
EndSplineSet
Fore
SplineSet
233 657 m 0
 320 657 432 664 533 664 c 1
 530 614 534 573 534 528 c 1
 531 525 523 523 516 523 c 0
 509 523 505 525 505 530 c 0
 500 610 466 630 417 630 c 2
 337 630 l 2
 326 630 276 629 271 619 c 0
 263 603 256 574 251 547 c 2
 214 355 l 2
 213 350 233 349 253 349 c 2
 302 349 l 2
 391 349 389 355 418 421 c 0
 420 426 427 428 434 428 c 0
 441 428 446 426 448 423 c 1
 412 234 l 1
 410 232 403 230 396 230 c 0
 389 230 384 233 383 238 c 0
 380 295 377 302 370 308 c 0
 361 315 308 316 273 316 c 0
 247 316 206 316 204 307 c 2
 165 109 l 2
 162 94 153 45 158 40 c 0
 168 30 183 30 222 30 c 2
 266 30 l 2
 317 30 358 40 390 61 c 0
 417 79 443 109 468 162 c 0
 470 166 476 168 483 168 c 0
 492 168 503 165 505 162 c 1
 477 108 437 40 422 -4 c 1
 321 -4 230 0 106 0 c 0
 62 0 31 -3 -5 -3 c 1
 -9 2 -5 21 -0 26 c 1
 11 26 63 31 68 42 c 0
 76 58 81 86 87 116 c 2
 170 543 l 2
 176 573 181 601 179 617 c 0
 178 628 129 633 118 633 c 1
 115 638 118 657 124 662 c 1
 162 660 197 657 233 657 c 0
EndSplineSet
Validated: 33
Substitution2: "'c2sc' Capitals to Small Capitals lookup 5-1" e.sc
EndChar

StartChar: F
Encoding: 70 70 37
Width: 508
Flags: W
HStem: -3 29<-3.82571 66.9961 158.506 226.284> 316 33<214.68 369.546> 630 27<120.525 179 269.882 468.353>
VStem: 383 29<230.036 271.632> 505 29<523.182 590.783>
LayerCount: 2
Back
Fore
SplineSet
233 657 m 0
 320 657 432 664 533 664 c 1
 530 614 534 573 534 528 c 1
 531 525 523 523 516 523 c 0
 509 523 505 525 505 530 c 0
 500 610 466 630 417 630 c 2
 337 630 l 2
 326 630 276 629 271 619 c 0
 263 603 256 574 251 547 c 2
 214 355 l 2
 213 350 233 349 253 349 c 2
 302 349 l 2
 391 349 389 355 418 421 c 0
 420 426 427 428 434 428 c 0
 441 428 446 426 448 423 c 1
 412 234 l 1
 410 232 403 230 396 230 c 0
 389 230 384 233 383 238 c 0
 380 295 377 302 370 308 c 0
 361 315 308 316 273 316 c 0
 247 316 206 316 204 307 c 2
 167 116 l 2
 161 86 156 58 158 42 c 0
 159 31 217 26 228 26 c 1
 231 21 228 2 222 -3 c 1
 184 -1 141 2 105 2 c 0
 61 2 31 -3 -5 -3 c 1
 -9 2 -5 21 -0 26 c 1
 11 26 63 31 68 42 c 0
 76 58 81 86 87 116 c 2
 170 543 l 2
 176 573 181 601 179 617 c 0
 178 628 129 633 118 633 c 1
 115 638 118 657 124 662 c 1
 162 660 197 657 233 657 c 0
EndSplineSet
Validated: 33
Substitution2: "'c2sc' Capitals to Small Capitals lookup 5-1" f.sc
EndChar

StartChar: G
Encoding: 71 71 38
Width: 697
Flags: W
HStem: -8 29<282.242 427.998> 265 29<441.909 506.52 596.978 663.633> 635 31<351.961 505.109>
VStem: 59 95<159.906 395.926> 585 31<489.527 562.104>
LayerCount: 2
Back
Fore
SplineSet
585 494 m 1
 590 574 520 635 436 635 c 0
 280 635 153 499 154 282 c 0
 154 163 210 21 355 21 c 0
 403 21 446 41 467 55 c 0
 473 59 476 65 477 72 c 0
 482 99 497 175 497 175 c 2
 503 205 509 233 507 249 c 0
 506 260 452 265 441 265 c 1
 438 270 440 289 446 294 c 1
 484 292 518 289 554 289 c 0
 590 289 625 292 664 294 c 1
 668 289 665 270 660 265 c 1
 649 265 601 260 596 249 c 0
 588 233 583 205 577 175 c 2
 563 104 l 2
 559 83 565 78 565 68 c 0
 565 62 561 55 543 46 c 0
 497 22 447 -8 324 -8 c 0
 170 -8 59 117 59 265 c 0
 59 517 258 670 465 666 c 0
 523 665 577 652 626 640 c 1
 624 604 618 524 616 494 c 0
 616 491 612 489 608 489 c 1
 602 489 593 490 585 494 c 1
EndSplineSet
Validated: 33
Substitution2: "'c2sc' Capitals to Small Capitals lookup 5-1" g.sc
EndChar

StartChar: H
Encoding: 72 72 39
Width: 686
Flags: W
HStem: -3 29<-3.82571 66.9961 158.448 217.284 369.174 439.996 531.448 590.284> 316 40<214 499> 633 29<119.716 178.552 270.997 341.019 492.716 551.552 643.997 714.019>
LayerCount: 2
Back
Fore
SplineSet
168 116 m 2
 162 86 156 58 158 42 c 0
 159 31 208 26 219 26 c 1
 222 21 219 2 213 -3 c 1
 175 -1 142 2 106 2 c 0
 70 2 34 -1 -5 -3 c 1
 -9 2 -5 21 -0 26 c 1
 11 26 63 31 68 42 c 0
 76 58 81 86 87 116 c 2
 170 543 l 2
 176 573 181 601 179 617 c 0
 178 628 129 633 118 633 c 1
 115 638 118 657 124 662 c 1
 162 660 197 657 233 657 c 0
 269 657 304 660 343 662 c 1
 347 657 342 638 337 633 c 1
 326 633 275 628 270 617 c 0
 262 601 256 573 251 543 c 2
 214 356 l 1
 506 356 l 1
 543 543 l 2
 548 573 554 601 552 617 c 0
 551 628 502 633 491 633 c 1
 488 638 491 657 497 662 c 1
 535 660 570 657 606 657 c 0
 642 657 677 660 716 662 c 1
 720 657 715 638 710 633 c 1
 699 633 648 628 643 617 c 0
 635 601 630 573 624 543 c 2
 541 116 l 2
 535 86 529 58 531 42 c 0
 532 31 581 26 592 26 c 1
 595 21 592 2 586 -3 c 1
 548 -1 514 2 478 2 c 0
 442 2 407 -1 368 -3 c 1
 364 2 368 21 373 26 c 1
 384 26 436 31 441 42 c 0
 449 58 454 86 460 116 c 2
 499 316 l 1
 207 316 l 1
 168 116 l 2
EndSplineSet
Validated: 33
Substitution2: "'c2sc' Capitals to Small Capitals lookup 5-1" h.sc
EndChar

StartChar: I
Encoding: 73 73 40
Width: 313
Flags: W
HStem: -3 29<-3.82571 66.9961 158.448 217.284> 633 29<119.716 178.552 270.997 341.019>
LayerCount: 2
Back
Fore
SplineSet
233 657 m 0
 269 657 304 660 343 662 c 1
 347 657 342 638 337 633 c 1
 326 633 275 628 270 617 c 0
 262 601 257 573 251 543 c 2
 168 116 l 2
 162 86 156 58 158 42 c 0
 159 31 208 26 219 26 c 1
 222 21 219 2 213 -3 c 1
 175 -1 142 2 106 2 c 0
 70 2 34 -1 -5 -3 c 1
 -9 2 -5 21 -0 26 c 1
 11 26 63 31 68 42 c 0
 76 58 81 86 87 116 c 2
 170 543 l 2
 176 573 181 601 179 617 c 0
 178 628 129 633 118 633 c 1
 115 638 118 657 124 662 c 1
 162 660 197 657 233 657 c 0
EndSplineSet
Validated: 33
Substitution2: "'c2sc' Capitals to Small Capitals lookup 5-1" i.sc
EndChar

StartChar: J
Encoding: 74 74 41
Width: 313
Flags: W
HStem: -233 19<-107 -85.2402> 633 29<113.716 172.552 264.997 335.019>
LayerCount: 2
Back
Fore
SplineSet
164 543 m 2
 169 573 175 601 173 617 c 0
 172 628 123 633 112 633 c 1
 109 638 112 657 118 662 c 1
 156 660 191 657 227 657 c 0
 263 657 298 660 337 662 c 1
 341 657 336 638 331 633 c 1
 320 633 269 628 264 617 c 0
 256 601 250 573 245 543 c 2
 164 116 l 2
 114 -148 -25 -233 -105 -233 c 1
 -107 -230 -108 -225 -108 -220 c 0
 -108 -218 -107 -214 -107 -214 c 1
 5 -179 49 -83 84 109 c 2
 164 543 l 2
EndSplineSet
Validated: 33
Substitution2: "'c2sc' Capitals to Small Capitals lookup 5-1" j.sc
EndChar

StartChar: K
Encoding: 75 75 42
Width: 614
Flags: W
HStem: -3 29<-2.82571 67.0025 159.448 218.284 520.353 569.826> 633 29<120.716 179.552 271.004 341.453 455.853 498.205 595.494 662.639>
LayerCount: 2
Back
Fore
SplineSet
481 72 m 0
 500 49 523 30 573 26 c 1
 577 21 568 -1 567 -3 c 1
 505 -3 454 1 437 8 c 0
 425 13 403 23 382 51 c 0
 367 72 302 175 222 304 c 0
 221 307 218 307 214 307 c 0
 211 307 207 306 205 305 c 1
 168 116 l 2
 162 86 157 58 159 42 c 0
 160 31 209 26 220 26 c 1
 223 21 220 2 214 -3 c 1
 176 -1 142 2 106 2 c 0
 70 2 35 -1 -4 -3 c 1
 -8 2 -4 21 1 26 c 1
 12 26 63 31 68 42 c 0
 76 58 81 86 87 116 c 2
 170 543 l 2
 176 573 182 601 180 617 c 0
 179 628 130 633 119 633 c 1
 116 638 119 657 125 662 c 1
 163 660 198 657 234 657 c 0
 270 657 304 660 343 662 c 1
 347 657 343 638 338 633 c 1
 327 633 275 628 270 617 c 0
 262 601 257 573 251 543 c 2
 212 340 l 1
 234 353 290 399 336 439 c 0
 424 516 425 515 481 576 c 0
 488 584 498 597 500 607 c 0
 505 632 461 632 453 632 c 1
 451 638 454 653 459 662 c 1
 493 660 530 656 564 656 c 0
 605 656 628 660 666 662 c 1
 667 656 663 632 658 632 c 0
 649 631 598 632 559 595 c 0
 461 501 399 450 302 366 c 0
 295 360 297 355 300 350 c 0
 368 238 424 145 481 72 c 0
EndSplineSet
Validated: 33
Substitution2: "'c2sc' Capitals to Small Capitals lookup 5-1" k.sc
EndChar

StartChar: L
Encoding: 76 76 43
Width: 530
Flags: W
HStem: 0 30<-1.08435 69.1056 158.472 356.306> 633 29<119.909 179.552 270.997 341.019>
LayerCount: 2
Back
Fore
SplineSet
166 112 m 2
 163 97 153 45 158 40 c 0
 168 30 183 30 222 30 c 2
 275 30 l 2
 310 30 352 39 383 57 c 0
 413 74 443 109 468 162 c 0
 470 166 476 168 483 168 c 0
 492 168 503 165 505 162 c 1
 477 108 437 40 422 -4 c 1
 321 -4 230 0 106 0 c 0
 62 0 31 -3 -5 -3 c 1
 -9 2 -4 21 1 26 c 1
 12 26 63 31 68 42 c 0
 76 58 81 86 87 116 c 2
 170 543 l 2
 176 573 182 601 180 617 c 0
 179 628 130 633 119 633 c 1
 116 638 118 657 124 662 c 1
 162 660 197 657 233 657 c 0
 269 657 304 660 343 662 c 1
 347 657 342 638 337 633 c 1
 326 633 275 628 270 617 c 0
 262 601 257 573 251 543 c 2
 166 112 l 2
EndSplineSet
Validated: 33
Substitution2: "'c2sc' Capitals to Small Capitals lookup 5-1" l.sc
EndChar

StartChar: M
Encoding: 77 77 44
Width: 838
Flags: W
HStem: -3 29<-21.0212 54.8934 119.256 185.418 528.979 594.372 692.339 751.406> 633 29<132.433 185.17 790.484 856>
LayerCount: 2
Back
Fore
SplineSet
397 49 m 2
 392 40 363 0 352 -2 c 0
 349 -3 347 -1 344 0 c 1
 230 584 l 1
 184 366 121 85 119 75 c 0
 117 66 116 52 117 44 c 0
 120 29 180 26 187 26 c 1
 190 20 185 0 183 -3 c 1
 146 -1 127 2 86 2 c 0
 43 2 19 -1 -24 -3 c 1
 -25 -1 -23 18 -18 26 c 1
 -7 26 49 31 60 44 c 0
 71 57 76 73 81 94 c 0
 136 334 184 554 187 572 c 0
 190 586 193 601 191 612 c 1
 190 624 141 633 130 633 c 1
 128 639 132 659 136 662 c 1
 165 660 189 658 226 658 c 0
 254 658 286 660 307 662 c 1
 313 599 408 139 407 139 c 1
 406 139 632 542 632 542 c 2
 658 588 696 662 696 662 c 1
 725 660 748 658 766 658 c 0
 799 658 834 660 858 662 c 1
 858 659 856 633 856 633 c 1
 843 633 793 625 786 615 c 1
 781 606 776 589 774 577 c 2
 698 140 l 2
 691 101 687 67 691 43 c 0
 693 29 745 26 752 26 c 1
 755 17 751 0 749 -3 c 1
 712 -1 680 2 639 2 c 0
 596 2 569 -1 526 -3 c 1
 525 -1 527 18 532 26 c 1
 543 26 582 30 595 37 c 0
 602 41 608 65 611 79 c 0
 614 93 659 376 690 566 c 17
 677 545 397 49 397 49 c 2
EndSplineSet
Validated: 37
Substitution2: "'c2sc' Capitals to Small Capitals lookup 5-1" m.sc
EndChar

StartChar: N
Encoding: 78 78 45
Width: 732
Flags: W
HStem: -3 29<-9.54809 61.6612 138.383 196.885> 633 29<114.31 179.209 564.485 625.862 700.276 772.334>
LayerCount: 2
Back
Fore
SplineSet
628 541 m 2
 635 577 637 597 631 613 c 0
 626 627 579 633 564 633 c 1
 561 640 564 657 567 662 c 1
 604 660 628 658 669 658 c 0
 712 658 730 660 773 662 c 1
 775 657 776 644 769 633 c 1
 758 633 703 626 694 614 c 0
 683 599 679 584 672 546 c 2
 593 139 l 2
 582 81 576 51 568 -1 c 1
 565 -4 554 -5 551 -5 c 0
 543 -5 531 4 524 18 c 2
 224 569 l 1
 136 115 l 2
 129 79 126 62 132 46 c 0
 136 36 184 26 199 26 c 1
 202 19 198 3 195 -3 c 1
 158 -1 132 2 91 2 c 0
 48 2 31 -1 -12 -3 c 1
 -14 2 -13 15 -6 26 c 1
 5 26 61 34 70 46 c 0
 81 61 86 76 93 114 c 2
 177 548 l 2
 184 586 186 601 181 616 c 0
 177 628 124 633 113 633 c 1
 110 644 114 657 118 662 c 1
 160 660 172 658 203 658 c 0
 231 658 272 661 285 662 c 1
 317 582 481 317 554 162 c 1
 628 541 l 2
EndSplineSet
Validated: 33
Substitution2: "'c2sc' Capitals to Small Capitals lookup 5-1" n.sc
EndChar

StartChar: O
Encoding: 79 79 46
Width: 710
Flags: W
HStem: -11 29<261.282 392.377> 635 30<340.506 472.819>
VStem: 61 94<148.992 404.767> 578 94<246.033 500.91>
LayerCount: 2
Back
Fore
SplineSet
406 635 m 0
 280 635 155 478 155 268 c 0
 155 153 191 18 328 18 c 0
 481 18 578 214 578 393 c 0
 578 489 547 635 406 635 c 0
415 665 m 0
 573 665 672 542 672 382 c 0
 672 148 511 -11 319 -11 c 0
 157 -11 61 115 61 273 c 0
 61 503 233 665 415 665 c 0
EndSplineSet
Validated: 1
Substitution2: "'c2sc' Capitals to Small Capitals lookup 5-1" o.sc
EndChar

StartChar: P
Encoding: 80 80 47
Width: 511
Flags: W
HStem: -3 29<-3.82571 66.9961 158.448 217.284> 282 26<244.129 328.126> 630 29<119.716 179.089 253.464 379.895>
VStem: 434 89<413.546 584.428>
LayerCount: 2
Back
Fore
SplineSet
523 508 m 0
 523 380 412 282 290 282 c 0
 269 282 250 288 245 292 c 0
 243 294 237 303 237 308 c 0
 237 310 239 311 241 312 c 1
 249 308 265 308 274 308 c 0
 348 308 434 382 434 494 c 0
 434 550 421 630 318 630 c 0
 307 630 275 629 270 620 c 0
 263 608 257 575 251 545 c 2
 167 116 l 2
 161 86 156 58 158 42 c 0
 159 31 208 26 219 26 c 1
 222 21 219 2 213 -3 c 1
 175 -1 141 2 105 2 c 0
 69 2 34 -1 -5 -3 c 1
 -9 2 -5 21 -0 26 c 1
 11 26 63 31 68 42 c 0
 76 58 81 86 87 116 c 2
 170 543 l 2
 176 573 181 601 179 617 c 0
 178 628 129 633 118 633 c 1
 115 638 118 657 124 662 c 1
 162 660 199 657 235 657 c 0
 271 657 287 659 342 659 c 0
 448 659 523 599 523 508 c 0
EndSplineSet
Validated: 33
Substitution2: "'c2sc' Capitals to Small Capitals lookup 5-1" p.sc
EndChar

StartChar: Q
Encoding: 81 81 48
Width: 710
Flags: W
HStem: -136 55<473.628 611.913> 635 30<340.506 472.819>
VStem: 61 94<150.494 404.767> 578 94<245.067 500.91>
LayerCount: 2
Back
Fore
SplineSet
415 665 m 0
 573 665 672 542 672 382 c 0
 672 176 547 28 386 -4 c 1
 459 -47 484 -81 575 -81 c 0
 612 -81 659 -70 666 -68 c 1
 673 -68 685 -77 685 -81 c 1
 628 -110 566 -136 509 -136 c 0
 411 -136 343 -37 228 4 c 16
 122 42 61 147 61 273 c 0
 61 503 233 665 415 665 c 0
406 635 m 0
 280 635 155 478 155 268 c 0
 155 153 191 18 328 18 c 0
 481 18 578 214 578 393 c 0
 578 489 547 635 406 635 c 0
EndSplineSet
Validated: 1
Substitution2: "'c2sc' Capitals to Small Capitals lookup 5-1" q.sc
EndChar

StartChar: R
Encoding: 82 82 49
Width: 579
Flags: W
HStem: -3 29<-3.82571 66.9961 158.448 217.284 505.551 555.826> 303 30<210 278.773> 630 29<119.716 179.089 253.973 383.615>
VStem: 435 89<437.886 588.748>
LayerCount: 2
Back
Fore
SplineSet
553 -3 m 1
 471 -3 408 1 384 47 c 0
 354 106 311 204 279 291 c 0
 276 300 266 303 253 303 c 2
 204 303 l 1
 168 116 l 2
 162 86 156 58 158 42 c 0
 159 31 208 26 219 26 c 1
 222 21 219 2 213 -3 c 1
 175 -1 142 2 106 2 c 0
 70 2 34 -1 -5 -3 c 1
 -9 2 -5 21 -0 26 c 1
 11 26 63 31 68 42 c 0
 76 58 81 86 87 116 c 2
 170 543 l 2
 176 573 181 601 179 617 c 0
 178 628 129 633 118 633 c 1
 115 638 118 657 124 662 c 1
 162 660 200 657 236 657 c 0
 272 657 313 659 368 659 c 0
 453 659 524 611 524 518 c 0
 524 422 437 348 360 320 c 1
 393 230 441 129 466 86 c 0
 489 45 509 30 559 26 c 1
 563 21 554 -1 553 -3 c 1
210 333 m 1
 260 333 l 2
 339 333 435 390 435 512 c 0
 435 553 422 630 319 630 c 0
 308 630 275 629 270 620 c 0
 263 608 257 575 251 545 c 2
 210 333 l 1
EndSplineSet
Validated: 33
Substitution2: "'c2sc' Capitals to Small Capitals lookup 5-1" r.sc
EndChar

StartChar: S
Encoding: 83 83 50
Width: 472
Flags: W
HStem: -8 30<148.738 265.296> 635 31<243.033 356.699>
VStem: 34 35<108.572 189.471> 102 78<447.268 557.764> 332 89<107.705 222.662> 397 31<491.469 591.837>
LayerCount: 2
Back
Fore
SplineSet
312 666 m 0xf8
 370 666 400 654 449 642 c 1
 446 608 434 528 428 498 c 0
 427 491 421 491 418 491 c 0
 414 491 403 492 397 498 c 1xf4
 402 578 375 635 304 635 c 0
 222 635 180 571 180 520 c 0
 180 438 242 406 295 364 c 0
 348 322 421 286 421 193 c 0
 421 69 301 -8 193 -8 c 0
 136 -8 84 12 46 34 c 1
 33 88 32 172 34 184 c 1
 37 188 52 190 59 190 c 0
 64 190 67 188 69 184 c 1
 69 129 106 22 205 22 c 0
 271 22 332 68 332 147 c 0
 332 219 287 254 237 294 c 0
 177 342 102 373 102 476 c 0
 102 591 219 666 312 666 c 0xf8
EndSplineSet
Validated: 33
Substitution2: "'c2sc' Capitals to Small Capitals lookup 5-1" s.sc
EndChar

StartChar: T
Encoding: 84 84 51
Width: 587
Flags: W
HStem: -3 29<133.981 204.003 295.448 355.091> 620 35<157.974 323 404 559.987>
VStem: 586 32<494.463 587.263>
LayerCount: 2
Back
Fore
SplineSet
550 655 m 2
 565 655 597 664 609 670 c 0
 619 675 622 675 627 672 c 1
 622 611 618 553 618 500 c 1
 615 497 606 492 598 493 c 0
 593 493 587 495 586 498 c 1
 587 568 568 620 522 620 c 2
 404 620 l 1
 305 116 l 2
 299 86 293 58 295 42 c 0
 296 31 345 26 356 26 c 1
 359 21 357 2 351 -3 c 1
 313 -1 279 2 243 2 c 0
 207 2 171 -1 132 -3 c 1
 128 2 133 21 138 26 c 1
 149 26 200 31 205 42 c 0
 213 58 218 86 224 116 c 2
 323 620 l 1
 203 620 l 2
 157 620 117 568 90 498 c 0
 88 495 81 493 76 493 c 0
 67 492 61 497 59 500 c 1
 80 553 99 611 117 672 c 1
 123 675 132 672 137 669 c 0
 147 663 172 655 187 655 c 2
 550 655 l 2
EndSplineSet
Validated: 33
Substitution2: "'c2sc' Capitals to Small Capitals lookup 5-1" t.sc
EndChar

StartChar: U
Encoding: 85 85 52
Width: 661
Flags: W
HStem: -4 58<230.527 397.799> 633 29<106.109 164.552 255.997 326.019 514.409 571.459 643.383 717.014>
LayerCount: 2
Back
Fore
SplineSet
218 657 m 0
 254 657 289 660 328 662 c 1
 332 657 327 638 322 633 c 1
 311 633 260 628 255 617 c 0
 247 601 242 573 236 543 c 2
 188 296 l 2
 173 218 174 159 193 120 c 0
 215 76 255 54 314 54 c 0
 410 54 483 102 519 274 c 0
 572 545 l 2
 579 581 582 598 576 614 c 0
 572 624 528 634 513 634 c 1
 510 641 514 657 517 663 c 1
 554 661 576 658 617 658 c 0
 660 658 676 661 719 663 c 1
 721 658 721 645 714 634 c 1
 703 634 646 626 637 614 c 0
 626 599 622 584 615 546 c 2
 562 276 l 2
 523 76 428 -4 283 -4 c 0
 213 -4 158 22 125 68 c 0
 94 112 83 174 98 251 c 2
 155 543 l 2
 161 573 167 601 165 617 c 0
 164 628 115 633 104 633 c 1
 101 638 104 657 110 662 c 1
 148 660 182 657 218 657 c 0
EndSplineSet
Validated: 33
Substitution2: "'c2sc' Capitals to Small Capitals lookup 5-1" u.sc
EndChar

StartChar: V
Encoding: 86 86 53
Width: 596
Flags: W
HStem: -2 21G<225 233> 633 29<65.4751 110.383 234.94 287.922 485.929 528.741 624.398 676.71>
LayerCount: 2
Back
Fore
SplineSet
175 657 m 0
 216 657 253 660 291 662 c 1
 292 656 288 634 284 633 c 1
 277 633 227 628 222 600 c 0
 220 590 221 565 226 529 c 0
 238 440 285 131 286 128 c 1
 290 133 511 524 511 524 c 2
 525 547 535 576 538 594 c 0
 544 626 496 633 485 633 c 1
 481 635 484 657 490 662 c 1
 524 660 554 657 588 657 c 0
 631 657 642 660 680 662 c 1
 682 657 676 633 673 633 c 0
 666 633 628 627 608 607 c 0
 594 593 563 544 542 506 c 2
 269 32 l 2
 254 5 239 -2 227 -2 c 0
 223 -2 222 10 221 14 c 0
 192 192 174 322 142 514 c 0
 136 553 129 584 118 610 c 0
 111 626 73 633 62 633 c 0
 60 633 66 660 68 662 c 1
 110 660 132 657 175 657 c 0
EndSplineSet
Validated: 33
Substitution2: "'c2sc' Capitals to Small Capitals lookup 5-1" v.sc
EndChar

StartChar: W
Encoding: 87 87 54
Width: 841
Flags: W
HStem: -2 21G<186 194 522 530> 633 29<68.4751 109.996 227.94 281.195 723.755 767.921 866.689 915.71>
LayerCount: 2
Back
SplineSet
252.402 163 m 9
 473.402 629 l 2
 482.402 648 503.402 662 513.402 662 c 0
 517.402 662 518.402 657 521.402 646 c 1
 523.402 624 553.402 360 577.402 161 c 0
 577.402 153 585.402 158 587.402 163 c 2
 750.402 524 l 2
 760.402 548 772.402 576 775.402 594 c 0
 781.402 626 730.402 633 719.402 633 c 1
 715.402 635 719.402 657 725.402 662 c 1
 759.402 660 790.402 657 824.402 657 c 0
 867.402 657 878.402 660 916.402 662 c 1
 918.402 657 912.402 633 909.402 633 c 0
 902.402 633 866.402 624 844.402 607 c 0
 829.402 595 815.402 572 796.402 531 c 2
 563.402 32 l 2
 555.402 14 533.402 -2 521.402 -2 c 0
 517.402 -2 515.402 10 515.402 14 c 0
 493.402 202 479.402 303 455.402 498 c 0
 455.402 501 452.402 502 449.402 499 c 1
 226.402 32 l 2
 218.402 14 197.402 -2 185.402 -2 c 0
 181.402 -2 178.402 10 178.402 14 c 2
 130.402 532 l 2
 127.402 572 127.402 595 113.402 613 c 0
 103.402 626 73.4023 633 62.4023 633 c 0
 60.4023 633 66.4023 660 68.4023 662 c 1
 110.402 660 138.402 657 181.402 657 c 0
 222.402 657 244.402 660 282.402 662 c 1
 283.402 656 278.402 634 274.402 633 c 1
 267.402 633 217.402 628 212.402 600 c 0
 208.402 578 226.402 362 242.402 161 c 1025
EndSplineSet
Fore
SplineSet
172 657 m 0
 213 657 247 660 285 662 c 1
 286 656 281 634 277 633 c 1
 270 633 220 628 215 600 c 0
 214 594 215 575 217 545 c 0
 222 460 235 294 247 145 c 1
 476 629 l 2
 486 648 506 662 516 662 c 0
 520 662 521 657 524 646 c 1
 526 624 559 343 583 144 c 1
 754 524 l 2
 765 548 775 576 778 594 c 0
 784 626 733 633 722 633 c 1
 718 635 722 657 728 662 c 1
 762 660 793 657 827 657 c 0
 870 657 881 660 919 662 c 1
 921 657 915 633 912 633 c 0
 905 633 869 624 847 607 c 0
 832 595 818 572 799 531 c 2
 566 32 l 2
 558 14 536 -2 524 -2 c 0
 520 -2 518 10 518 14 c 0
 496 202 481 317 457 511 c 1
 229 32 l 2
 221 14 200 -2 188 -2 c 0
 184 -2 181 10 181 14 c 2
 133 532 l 2
 130 572 130 595 116 613 c 0
 106 626 76 633 65 633 c 0
 63 633 69 660 71 662 c 1
 113 660 129 657 172 657 c 0
EndSplineSet
Validated: 33
Substitution2: "'c2sc' Capitals to Small Capitals lookup 5-1" w.sc
EndChar

StartChar: X
Encoding: 88 88 55
Width: 620
Flags: W
HStem: -3 29<-54.9126 12.6115 104.096 162.418 338.483 391.393 515.675 571.357> 633 29<104.828 149.263 286.916 341.205 474.63 528.289 618.62 675.713>
LayerCount: 2
Back
Fore
SplineSet
224 657 m 0
 270 657 306 660 344 662 c 1
 345 656 342 633 337 633 c 0
 324 633 280 627 275 601 c 0
 273 593 275 583 280 571 c 2
 354 392 l 1
 425 472 507 564 526 592 c 0
 528 595 533 602 534 608 c 0
 535 614 525 632 473 632 c 1
 469 633 473 654 477 661 c 1
 514 658 542 656 576 656 c 0
 624 656 656 659 679 661 c 1
 681 656 678 638 671 632 c 1
 664 632 614 628 581 592 c 2
 368 361 l 1
 491 66 l 2
 503 37 543 26 574 26 c 1
 577 21 570 -1 569 -3 c 1
 532 -1 513 2 475 2 c 0
 423 2 390 -1 338 -3 c 1
 334 2 338 26 343 26 c 0
 353 26 399 35 403 54 c 0
 404 57 402 63 401 66 c 2
 305 300 l 1
 234 220 128 93 106 66 c 0
 104 63 99 56 98 50 c 0
 97 44 112 26 164 26 c 1
 167 20 162 0 160 -3 c 1
 126 -1 90 2 56 2 c 0
 8 2 -21 -1 -59 -3 c 1
 -61 3 -54 23 -52 26 c 1
 -45 26 19 30 52 66 c 2
 289 332 l 1
 200 548 l 2
 186 584 175 601 152 617 c 0
 138 627 114 633 103 633 c 0
 98 633 103 657 109 662 c 1
 154 660 178 657 224 657 c 0
EndSplineSet
Validated: 33
Substitution2: "'c2sc' Capitals to Small Capitals lookup 5-1" x.sc
EndChar

StartChar: Y
Encoding: 89 89 56
Width: 556
Flags: W
HStem: -3 29<120.981 191.003 282.448 342.091> 633 29<60.8281 105.263 242.916 297.205 436.688 490.972 570.083 630.352>
LayerCount: 2
Back
Fore
SplineSet
211 116 m 2
 240 267 l 2
 241 274 242 285 239 295 c 2
 156 548 l 2
 144 585 131 601 108 617 c 0
 94 627 70 633 59 633 c 0
 54 633 59 657 65 662 c 1
 110 660 134 657 180 657 c 0
 226 657 262 660 300 662 c 1
 301 656 298 633 293 633 c 0
 280 633 236 627 231 601 c 0
 229 593 232 584 236 571 c 2
 317 331 l 1
 380 419 475 561 492 592 c 0
 494 595 497 601 498 607 c 0
 499 613 487 632 435 632 c 1
 432 635 436 657 439 661 c 1
 473 659 498 656 532 656 c 0
 580 656 597 659 635 661 c 1
 635 658 630 632 627 632 c 0
 620 632 567 632 538 592 c 2
 333 301 l 2
 325 290 325 279 323 270 c 2
 292 116 l 2
 286 86 280 58 282 42 c 0
 283 31 332 26 343 26 c 1
 346 21 344 2 338 -3 c 1
 300 -1 266 2 230 2 c 0
 194 2 158 -1 119 -3 c 1
 115 2 120 21 125 26 c 1
 136 26 187 31 192 42 c 0
 200 58 205 86 211 116 c 2
EndSplineSet
Validated: 33
Substitution2: "'c2sc' Capitals to Small Capitals lookup 5-1" y.sc
EndChar

StartChar: Z
Encoding: 90 90 57
Width: 602
Flags: W
HStem: 0 32<103 408.508> 629 32<222.617 506.348> 649 20G<145.5 164.5>
LayerCount: 2
Back
Fore
SplineSet
279 629 m 2xc0
 216 629 161 574 125 492 c 0
 123 489 119 488 114 488 c 0
 106 488 93 493 91 496 c 1
 116 542 136 601 155 669 c 1xa0
 174 666 205 661 230 661 c 2
 230 661 411 661 411 661 c 2xc0
 489 661 529 665 608 671 c 1
 612 670 622 657 620 649 c 0xa0
 617 641 312 270 103 32 c 1
 103 32 347 32 347 32 c 2
 394 32 432 58 457 85 c 0
 483 113 499 147 513 172 c 0
 514 174 521 175 526 175 c 0
 535 175 544 170 547 166 c 1
 509 87 493 50 474 0 c 1
 474 0 4 0 4 0 c 2
 -6 0 -15 8 -10 14 c 2
 -10 14 508 630 508 630 c 1
 508 630 279 629 279 629 c 2xc0
EndSplineSet
Validated: 1
Substitution2: "'c2sc' Capitals to Small Capitals lookup 5-1" z.sc
EndChar

StartChar: bracketleft
Encoding: 91 91 58
Width: 260
Flags: W
HStem: 695 45<211.001 314.966>
VStem: 7 332
LayerCount: 2
Back
Fore
SplineSet
161 717 m 2
 161 718 167 740 184 740 c 0
 259 740 319 749 334 749 c 0
 336 749 339 749 339 743 c 0
 339 721 316 707 315 706 c 2
 315 706 269 695 219 695 c 0
 213 695 211 687 211 687 c 1
 67 -49 l 1
 67 -49 66 -56 72 -57 c 0
 108 -61 153 -75 165 -82 c 0
 167 -83 178 -94 178 -103 c 0
 178 -114 171 -118 171 -118 c 1
 171 -118 90 -102 14 -102 c 0
 10 -102 6 -98 7 -91 c 0
 61 187 161 717 161 717 c 2
EndSplineSet
Validated: 1
Substitution2: "'c2sc' Capitals to Small Capitals lookup 5-1" bracketleft.sc
Substitution2: "'smcp' Lowercase to Small Capitals in Latin lookup 3-1" bracketleft.sc
EndChar

StartChar: backslash
Encoding: 92 92 59
Width: 368
Flags: W
VStem: 115 175
LayerCount: 2
Back
Fore
SplineSet
290 -4 m 2
 293 -20 274 -40 263 -40 c 0
 259 -40 255 -40 251 -37 c 1
 199 269 115 755 115 755 c 1
 117 758 123 762 129 762 c 0
 150 762 164 735 166 725 c 2
 290 -4 l 2
EndSplineSet
Validated: 33
Substitution2: "'smcp' Lowercase to Small Capitals in Latin lookup 3-1" backslash.sc
EndChar

StartChar: bracketright
Encoding: 93 93 60
Width: 258
Flags: W
HStem: -102 45<-36.9146 66.9978> 695 45<113.031 209.981>
VStem: -58 328
LayerCount: 2
Back
SplineSet
31 -114 m 1
 31 -114 27.2618 -111.508 27.2618 -105.133 c 0
 27.2618 -88.58 46.9951 -74.0039 47 -74 c 2
 47 -74 93 -57 143 -57 c 0
 149 -57 152 -49 152 -49 c 1025
EndSplineSet
Fore
SplineSet
109 749 m 0
 111 749 180 740 257 740 c 0
 268 740 270 732 270 725 c 0
 270 721 270 720 269 717 c 2
 115 -79 l 2
 115 -80 110 -102 93 -102 c 0
 17 -102 -54 -114 -54 -114 c 1
 -54 -114 -58 -111 -58 -105 c 0
 -58 -90 -43 -79 -38 -74 c 1
 -15 -66 18 -57 58 -57 c 0
 64 -57 67 -49 67 -49 c 1
 210 687 l 1
 210 687 211 695 205 695 c 0
 155 695 113 706 113 706 c 1
 111 708 101 713 101 728 c 0
 101 737 104 749 109 749 c 0
EndSplineSet
Validated: 1
Substitution2: "'c2sc' Capitals to Small Capitals lookup 5-1" bracketright.sc
Substitution2: "'smcp' Lowercase to Small Capitals in Latin lookup 3-1" bracketright.sc
EndChar

StartChar: asciicircum
Encoding: 94 94 61
Width: 303
Flags: W
HStem: 475 215
VStem: 13 283
LayerCount: 2
Back
Fore
SplineSet
13 499 m 1
 22 514 104 565 174 677 c 0
 180 687 179 690 186 690 c 0
 208 690 196 670 237 588 c 0
 252 558 295 505 296 500 c 1
 294 492 286 475 279 475 c 0
 259 475 190 564 172 597 c 1
 123 540 32 475 21 475 c 0
 13 475 13 491 13 499 c 1
EndSplineSet
Validated: 1
Substitution2: "'smcp' Lowercase to Small Capitals in Latin lookup 3-1" asciicircum.sc
EndChar

StartChar: underscore
Encoding: 95 95 62
Width: 475
Flags: W
HStem: -43 56<-29.5284 381>
LayerCount: 2
Back
Fore
SplineSet
-39 -37 m 0
 -39 -32 -23 13 -15 13 c 2
 399 13 l 2
 402 13 405 12 405 9 c 0
 405 5 397 -15 387 -37 c 0
 384 -43 381 -43 381 -43 c 1
 -34 -43 l 1
 -34 -43 -39 -43 -39 -37 c 0
EndSplineSet
Validated: 1
EndChar

StartChar: a
Encoding: 97 97 64
Width: 449
Flags: W
HStem: -6 55<81.8113 158.385 286.742 328.107> 395 40<221.739 322.5>
VStem: 19 74<65.1934 221.895>
LayerCount: 2
Back
Fore
SplineSet
305 435 m 0
 340 435 364 429 383 422 c 1
 322 106 l 2
 319 94 311 49 328 49 c 0
 349 49 395 104 398 107 c 1
 401 107 408 94 408 88 c 1
 397 69 324 -6 277 -6 c 0
 256 -6 243 16 243 46 c 0
 243 54 246 78 250 99 c 0
 253 117 254 123 255 130 c 1
 235 94 166 -5 108 -5 c 0
 54 -5 19 43 19 113 c 0
 19 287 183 435 305 435 c 0
259 395 m 0
 182 395 93 266 93 151 c 0
 93 89 109 53 144 53 c 0
 194 53 265 178 284 274 c 2
 305 380 l 1
 296 390 272 395 259 395 c 0
EndSplineSet
Validated: 33
Substitution2: "'smcp' Lowercase to Small Capitals in Latin lookup 3-1" a.sc
EndChar

StartChar: b
Encoding: 98 98 65
Width: 429
Flags: W
HStem: -6 33<127.543 200.431> 380 55<259.084 341> 631 21<76.307 132.742> 665 20G<201 214.5>
VStem: 137 81<547.219 666.737> 314 74<202.265 374.918>
LayerCount: 2
Back
Fore
SplineSet
275 380 m 0
 232 380 139 266 118 156 c 0
 102 75 117 27 164 27 c 0
 248 27 314 221 314 302 c 0
 314 339 310 380 275 380 c 0
143 285 m 1
 213 402 286 435 318 435 c 0
 364 435 388 391 388 322 c 0
 388 142 243 -6 136 -6 c 0
 80 -6 43 37 43 111 c 0
 43 121 47 146 49 158 c 2
 128 559 l 2
 132 577 137 601 137 612 c 0
 137 631 92 631 76 631 c 1
 73 635 76 648 80 652 c 1
 135 657 190 677 212 685 c 1
 217 682 218 672 218 666 c 0
 218 658 210 616 205 591 c 2
 143 285 l 1
EndSplineSet
Validated: 33
Substitution2: "'smcp' Lowercase to Small Capitals in Latin lookup 3-1" b.sc
EndChar

StartChar: c
Encoding: 99 99 66
Width: 359
Flags: W
HStem: -6 59<124.693 196.341> 394 41<201.636 291>
VStem: 24 78<74.6218 245.542>
LayerCount: 2
Back
Fore
SplineSet
275 435 m 0
 307 435 324 421 337 410 c 1
 340 406 346 394 346 383 c 0
 346 360 335 338 312 338 c 0
 298 338 283 346 276 358 c 0
 266 374 253 394 224 394 c 0
 169 394 102 296 102 162 c 0
 102 127 108 53 171 53 c 0
 216 53 271 119 274 122 c 1
 277 122 286 108 286 102 c 1
 275 83 198 -6 135 -6 c 0
 64 -6 24 47 24 140 c 0
 24 300 172 435 275 435 c 0
EndSplineSet
Validated: 1
Substitution2: "'smcp' Lowercase to Small Capitals in Latin lookup 3-1" c.sc
EndChar

StartChar: d
Encoding: 100 100 67
Width: 449
Flags: W
HStem: -5 58<76.4454 158.959 287 328.674> 395 40<222.947 290.664> 631 21<287.307 343.742> 665 20G<412 425.5>
VStem: 19 74<65.1712 219.36> 243 75<21.7226 163.305> 348 81<544.516 666.737>
LayerCount: 2
Back
Fore
SplineSet
296 341 m 2
 300 364 288 395 261 395 c 0
 180 395 93 265 93 150 c 0
 93 95 107 53 144 53 c 0
 195 53 265 179 284 276 c 1
 296 341 l 2
339 559 m 2
 342 577 348 601 348 612 c 0
 348 631 303 631 287 631 c 1
 284 635 287 648 291 652 c 1
 346 657 401 677 423 685 c 1
 428 682 429 672 429 666 c 0
 429 658 421 616 416 591 c 2
 322 106 l 2
 321 102 318 78 318 73 c 0
 318 64 318 49 328 49 c 0
 349 49 395 104 398 107 c 1
 401 107 408 94 408 88 c 1
 397 69 324 -6 277 -6 c 0
 256 -6 243 16 243 46 c 0
 243 54 246 78 250 99 c 0
 254 118 254 123 255 130 c 1
 240 100 167 -5 107 -5 c 0
 45 -5 19 58 19 116 c 0
 19 273 173 435 303 435 c 2
 303 435 316 435 316 435 c 1
 339 559 l 2
EndSplineSet
Validated: 33
Substitution2: "'smcp' Lowercase to Small Capitals in Latin lookup 3-1" d.sc
EndChar

StartChar: e
Encoding: 101 101 68
Width: 363
Flags: W
HStem: -6 59<123.417 196.244> 193 25<105 147.895> 394 41<196.759 299.5>
VStem: 23 78<76.3633 217.001 218 241.157> 266 74<313.223 388.912>
LayerCount: 2
Back
Fore
SplineSet
274 435 m 0
 325 435 340 403 340 373 c 0
 340 277 165 193 103 193 c 1
 102 190 101 166 101 161 c 0
 101 100 120 53 170 53 c 0
 215 53 270 119 273 122 c 1
 276 122 285 108 285 102 c 1
 272 80 196 -6 133 -6 c 0
 62 -6 23 46 23 139 c 0
 23 287 159 435 274 435 c 0
105 218 m 1
 144 218 266 280 266 354 c 0
 266 381 243 394 224 394 c 0
 155 394 110 269 105 218 c 1
EndSplineSet
Validated: 1
Substitution2: "'smcp' Lowercase to Small Capitals in Latin lookup 3-1" e.sc
EndChar

StartChar: f
Encoding: 102 102 69
Width: 296
Flags: W
HStem: -233 43<-84.5 -7.63745> 376 37<45.1577 123 203 307.371> 642 43<272.871 350.5>
LayerCount: 2
Back
Fore
SplineSet
336 685 m 0
 365 685 383 673 390 660 c 1
 390 657 390 654 390 651 c 0
 388 628 379 604 360 604 c 0
 343 604 333 615 322 627 c 0
 315 634 307 642 293 642 c 0
 254 642 234 572 203 413 c 1
 303 413 l 2
 307 413 308 406 308 401 c 0
 308 391 304 384 299 376 c 1
 196 376 l 1
 196 376 161 169 137 43 c 0
 105 -121 10 -233 -70 -233 c 0
 -99 -233 -117 -221 -124 -208 c 1
 -124 -203 -124 -197 -123 -192 c 0
 -120 -171 -111 -152 -94 -152 c 0
 -77 -152 -67 -163 -56 -175 c 0
 -49 -182 -41 -190 -27 -190 c 0
 12 -190 32 -120 63 39 c 1
 123 376 l 1
 38 376 l 2
 37 376 36 377 36 379 c 0
 36 389 59 413 82 413 c 2
 129 413 l 1
 161 577 256 685 336 685 c 0
EndSplineSet
Validated: 1
Substitution2: "'smcp' Lowercase to Small Capitals in Latin lookup 3-1" f.sc
EndChar

StartChar: g
Encoding: 103 103 70
Width: 412
Flags: W
HStem: -233 35<72.4048 225.958> 122 29<141.692 153> 407 29<172.391 240.84>
VStem: -48 74<-164.208 -76.9422> 40 74<174.296 327.093> 53 88<45 83.0928> 278 64<-150.513 -71.224 212.788 371.208>
LayerCount: 2
Back
Fore
SplineSet
278 -118 m 0xf2
 278 -55 185 -24 127 -6 c 1
 87 -23 26 -54 26 -110 c 0
 26 -177 91 -198 169 -198 c 0
 236 -198 278 -160 278 -118 c 0xf2
212 407 m 0
 148 407 114 316 114 247 c 0xfa
 114 198 134 151 176 151 c 0
 241 151 273 232 273 294 c 0
 273 343 251 407 212 407 c 0
333 381 m 1
 334 375 347 339 347 312 c 0
 347 206 276 157 256 145 c 0
 221 124 141 105 141 82 c 0
 141 49 342 39 342 -78 c 0
 342 -173 251 -233 108 -233 c 0
 18 -233 -48 -197 -48 -135 c 0
 -48 -66 37 -21 96 6 c 1
 96 6 78 18 78 18 c 2
 66 26 53 36 53 54 c 0xf6
 53 79 120 114 153 122 c 1
 121 122 40 160 40 239 c 0
 40 352 136 436 229 436 c 0
 267 436 289 426 314 414 c 0
 328 407 364 427 377 429 c 1
 390 425 418 407 418 394 c 0
 418 387 414 380 406 380 c 0
 392 380 346 382 333 381 c 1
EndSplineSet
Validated: 33
Substitution2: "'smcp' Lowercase to Small Capitals in Latin lookup 3-1" g.sc
EndChar

StartChar: h
Encoding: 104 104 71
Width: 470
Flags: W
HStem: -6 55<289 353.107> 361 74<286.866 356.5> 631 21<78.307 134.742> 665 20G<203 216.5>
VStem: 139 81<548.203 666.737> 266 75<21.7226 171.078> 315 77<222.125 388>
LayerCount: 2
Back
Fore
SplineSet
207 591 m 2xfa
 207 591 156 330 156 330 c 1
 156 330 138 238 138 238 c 1
 151 263 271 435 337 435 c 0
 376 435 392 407 392 369 c 0xfa
 392 335 386 298 378 260 c 2
 378 260 345 106 345 106 c 2
 344 102 341 79 341 74 c 0
 341 65 341 49 351 49 c 0
 372 49 418 104 421 107 c 1
 424 107 431 94 431 88 c 1
 420 69 347 -6 300 -6 c 0
 278 -6 266 16 266 46 c 0xfc
 266 54 268 78 273 99 c 2
 273 99 308 264 308 264 c 2
 310 273 315 307 315 318 c 0
 315 341 313 361 296 361 c 0
 260 361 140 236 117 119 c 0
 111 88 102 46 92 0 c 1
 82 -3 66 -4 56 -4 c 0
 46 -4 34 -3 22 0 c 1
 22 0 130 559 130 559 c 2
 133 577 139 601 139 612 c 0
 139 631 94 631 78 631 c 1
 75 635 78 648 82 652 c 1
 137 657 192 677 214 685 c 1
 219 682 220 672 220 666 c 0
 220 658 212 616 207 591 c 2xfa
EndSplineSet
Validated: 1
Substitution2: "'smcp' Lowercase to Small Capitals in Latin lookup 3-1" h.sc
EndChar

StartChar: i
Encoding: 105 105 72
Width: 262
Flags: W
HStem: -6 55<76.5 140.107> 380 55<97.7782 161.5> 546 100<127.035 191.228>
VStem: 53 75<46 126.683> 115 75<302.317 383> 116 88<557.783 635.875>
LayerCount: 2
Back
Fore
SplineSet
111 323 m 2xf0
 112 329 115 350 115 355 c 0
 115 364 115 380 105 380 c 0
 84 380 38 325 35 322 c 1
 32 322 25 335 25 341 c 1
 36 360 104 435 151 435 c 0
 172 435 190 413 190 383 c 0xe8
 190 375 187 351 183 330 c 2
 183 330 132 106 132 106 c 2
 130 96 128 79 128 74 c 0
 128 65 128 49 138 49 c 0
 159 49 205 104 208 107 c 1
 211 107 218 94 218 88 c 1
 207 69 134 -6 87 -6 c 0
 66 -6 53 16 53 46 c 0
 53 54 56 78 60 99 c 2
 60 99 111 323 111 323 c 2xf0
168 646 m 0
 189 646 204 627 204 606 c 0
 204 575 181 546 150 546 c 0
 128 546 116 567 116 589 c 0xe4
 116 619 138 646 168 646 c 0
EndSplineSet
Validated: 1
Substitution2: "'ccmp' Turkish i-1" i.TRK
Substitution2: "'smcp' Lowercase to Small Capitals in Latin lookup 3-1" i.sc
EndChar

StartChar: j
Encoding: 106 106 73
Width: 249
Flags: W
HStem: 380 55<103.778 167.5> 546 100<144.035 208.228>
VStem: 121 75<251.148 406.545> 133 88<557.783 635.875>
LayerCount: 2
Back
Fore
SplineSet
117 323 m 2xe0
 118 329 121 350 121 355 c 0
 121 364 121 380 111 380 c 0
 90 380 44 325 41 322 c 1
 38 322 31 335 31 341 c 1
 42 360 110 435 157 435 c 0
 178 435 196 413 196 383 c 0
 196 375 193 351 189 330 c 2
 189 330 134 45 134 45 c 2
 127 9 106 -67 63 -124 c 0
 21 -179 -41 -221 -76 -235 c 1
 -80 -232 -85 -222 -85 -215 c 1
 -18 -177 35 -89 57 22 c 2
 57 22 117 323 117 323 c 2xe0
185 646 m 0
 206 646 221 627 221 606 c 0
 221 575 198 546 167 546 c 0
 145 546 133 567 133 589 c 0xd0
 133 619 155 646 185 646 c 0
EndSplineSet
Validated: 1
Substitution2: "'smcp' Lowercase to Small Capitals in Latin lookup 3-1" j.sc
EndChar

StartChar: k
Encoding: 107 107 74
Width: 460
Flags: W
HStem: -4 55<294.109 353.184> 388 47<255.169 344.5> 631 21<79.307 135.742> 665 20G<204 217.5>
VStem: 140 81<547.516 666.737> 322 78<300.053 386.608>
LayerCount: 2
Back
Fore
SplineSet
325 435 m 0
 364 435 400 406 400 367 c 0
 400 276 300 230 189 211 c 1
 277 79 305 51 346 51 c 0
 363 51 403 93 414 107 c 1
 417 107 424 93 424 88 c 1
 416 74 346 -4 302 -4 c 0
 223 -4 173 119 130 191 c 1
 93 0 l 1
 82 -3 69 -5 58 -5 c 0
 47 -5 34 -3 22 0 c 1
 131 559 l 2
 135 577 140 601 140 612 c 0
 140 631 95 631 79 631 c 1
 76 635 79 648 83 652 c 1
 138 657 193 677 215 685 c 1
 220 682 221 672 221 666 c 0
 221 658 213 616 208 591 c 2
 156 322 l 1
 161 326 239 435 325 435 c 0
289 388 m 0
 231 388 150 291 138 230 c 1
 205 230 322 271 322 354 c 0
 322 372 317 388 289 388 c 0
EndSplineSet
Validated: 1
Substitution2: "'smcp' Lowercase to Small Capitals in Latin lookup 3-1" k.sc
EndChar

StartChar: l
Encoding: 108 108 75
Width: 243
Flags: W
HStem: -6 55<60 124.107> 631 21<82.307 138.742> 665 20G<207 220.5>
VStem: 37 75<21.7226 176.133> 143 81<545.078 666.737>
LayerCount: 2
Back
Fore
SplineSet
134 559 m 2
 138 577 143 601 143 612 c 0
 143 631 98 631 82 631 c 1
 79 635 82 648 86 652 c 1
 141 657 196 677 218 685 c 1
 223 682 224 672 224 666 c 0
 224 658 216 616 211 591 c 2
 116 106 l 2
 115 102 112 79 112 74 c 0
 112 65 112 49 122 49 c 0
 143 49 189 104 192 107 c 1
 195 107 202 94 202 88 c 1
 191 69 118 -6 71 -6 c 0
 49 -6 37 16 37 46 c 0
 37 54 40 78 44 99 c 2
 134 559 l 2
EndSplineSet
Validated: 1
Substitution2: "'smcp' Lowercase to Small Capitals in Latin lookup 3-1" l.sc
EndChar

StartChar: m
Encoding: 109 109 76
Width: 714
Flags: W
HStem: -6 55<554.004 595.107> 361 74<292.275 361.352 526.056 589.158> 380 55<94.7782 140.496>
VStem: 112 75<262.047 406.545> 329 75<221.316 360.953> 510 75<21.7226 171.078> 559 77<222.125 389.5>
LayerCount: 2
Back
Fore
SplineSet
517 99 m 2xdc
 517 99 552 264 552 264 c 2
 554 273 559 307 559 318 c 0
 559 344 558 361 540 361 c 0
 500 361 385 233 366 132 c 2
 366 132 341 0 341 0 c 1
 327 -2 318 -3 304 -3 c 0
 290 -3 282 -2 269 0 c 1
 269 0 325 284 325 284 c 2
 328 300 329 313 329 322 c 0
 329 348 322 361 309 361 c 0xda
 264 361 158 218 138 122 c 2
 138 122 113 0 113 0 c 1
 102 -3 91 -4 77 -4 c 0
 63 -4 54 -2 42 0 c 1
 42 0 108 323 108 323 c 2
 109 329 112 350 112 355 c 0
 112 364 112 380 102 380 c 0
 81 380 35 325 32 322 c 1
 29 322 22 335 22 341 c 1
 33 360 101 435 148 435 c 0xba
 169 435 187 413 187 383 c 0
 187 375 183 351 179 330 c 0
 172 294 167 273 159 237 c 1
 195 300 285 435 337 435 c 0
 395 435 404 384 404 340 c 0
 404 316 396 268 390 251 c 1
 426 314 522 435 574 435 c 0
 620 435 636 410 636 369 c 0xda
 636 335 629 292 622 260 c 2
 622 260 589 106 589 106 c 2
 587 96 585 79 585 74 c 0
 585 65 585 49 595 49 c 0
 616 49 662 104 665 107 c 1
 668 107 675 94 675 88 c 1
 664 69 591 -6 544 -6 c 0
 523 -6 510 16 510 46 c 0
 510 54 513 78 517 99 c 2xdc
EndSplineSet
Validated: 1
Substitution2: "'smcp' Lowercase to Small Capitals in Latin lookup 3-1" m.sc
EndChar

StartChar: n
Encoding: 110 110 77
Width: 497
Flags: W
HStem: -6 55<316.5 380.107> 361 74<306.5 372.158> 380 55<94.7782 158.5>
VStem: 112 75<250.133 406.545> 293 75<21.7226 171.078> 342 77<222.125 389.5>
LayerCount: 2
Back
Fore
SplineSet
179 330 m 2xb4
 179 330 161 246 161 246 c 1
 174 271 290 435 357 435 c 0
 403 435 419 410 419 369 c 0xd4
 419 338 412 294 405 260 c 2
 405 260 372 106 372 106 c 2
 370 96 368 79 368 74 c 0
 368 65 368 49 378 49 c 0
 399 49 445 104 448 107 c 1
 451 107 458 94 458 88 c 1
 447 69 374 -6 327 -6 c 0
 306 -6 293 16 293 46 c 0xd8
 293 54 296 78 300 99 c 2
 300 99 335 264 335 264 c 2
 337 273 342 307 342 318 c 0
 342 344 341 361 323 361 c 0xd4
 286 361 162 247 138 122 c 0
 129 74 123 48 113 0 c 1
 101 -3 91 -4 77 -4 c 0
 63 -4 54 -3 42 0 c 1
 42 0 108 323 108 323 c 2
 109 329 112 350 112 355 c 0
 112 364 112 380 102 380 c 0
 81 380 35 325 32 322 c 1
 29 322 22 335 22 341 c 1
 33 360 101 435 148 435 c 0
 169 435 187 413 187 383 c 0
 187 375 184 351 179 330 c 2xb4
EndSplineSet
Validated: 1
Substitution2: "'smcp' Lowercase to Small Capitals in Latin lookup 3-1" n.sc
EndChar

StartChar: o
Encoding: 111 111 78
Width: 414
Flags: W
HStem: -5 32<128.829 202.828> 403 32<192.936 265.934>
VStem: 24 78<49.2289 249.363> 290 78<176.798 384.03>
LayerCount: 2
Back
Fore
SplineSet
237 403 m 0
 153 403 102 258 102 158 c 0
 102 78 123 27 159 27 c 0
 242 27 290 173 290 273 c 0
 290 353 273 403 237 403 c 0
251 435 m 0
 331 435 368 374 368 288 c 0
 368 148 255 -5 140 -5 c 0
 60 -5 24 52 24 138 c 0
 24 278 136 435 251 435 c 0
EndSplineSet
Validated: 1
Substitution2: "'smcp' Lowercase to Small Capitals in Latin lookup 3-1" o.sc
EndChar

StartChar: p
Encoding: 112 112 79
Width: 448
Flags: W
HStem: -235 29<-54.225 -13.9507> -226 27<87.8041 134.581> -5 35<145.001 224.626> 380 55<257.572 352.498>
VStem: 333 74<198.629 368.99>
LayerCount: 2
Back
Fore
SplineSet
280 380 m 0x38
 247 380 189 338 162 300 c 1
 162 300 129 131 129 131 c 2
 118 72 146 30 176 30 c 0
 261 30 333 184 333 303 c 0
 333 358 312 380 280 380 c 0x38
320 435 m 0
 384 435 407 384 407 314 c 0
 407 159 277 -5 155 -5 c 0
 138 -5 115 -2 109 8 c 1
 109 8 76 -145 76 -145 c 2
 74 -154 73 -163 73 -173 c 0
 73 -178 77 -193 87 -196 c 0
 104 -200 131 -199 134 -199 c 0
 138 -200 136 -225 131 -227 c 1
 118 -227 107 -226 96 -226 c 0x78
 45 -226 6 -228 -52 -235 c 1
 -57 -234 -56 -209 -51 -206 c 1xb8
 -33 -206 -20 -201 -11 -190 c 0
 -4 -181 0 -170 5 -147 c 2
 5 -147 84 250 84 250 c 1
 84 250 36 202 36 202 c 1
 32 207 30 217 30 222 c 0
 30 226 32 228 33 229 c 2
 33 229 92 292 92 292 c 1
 92 292 118 433 118 433 c 1
 129 436 145 437 156 437 c 0
 167 437 178 435 188 430 c 1
 184 411 173 353 172 346 c 1
 199 371 269 435 320 435 c 0
EndSplineSet
Validated: 33
Substitution2: "'smcp' Lowercase to Small Capitals in Latin lookup 3-1" p.sc
EndChar

StartChar: q
Encoding: 113 113 80
Width: 426
Flags: W
HStem: -227 19<294.469 320.369> -5 58<76 159.391> 395 40<222.624 320.5>
VStem: 19 74<65.1712 219.36>
LayerCount: 2
Back
Fore
SplineSet
317 -228 m 1
 303 -228 290 -227 277 -227 c 0
 219 -227 164 -231 127 -235 c 1
 125 -233 124 -208 130 -208 c 0
 159 -205 193 -197 198 -171 c 2
 254 130 l 1
 234 94 165 -5 107 -5 c 0
 45 -5 19 58 19 116 c 0
 19 273 173 435 303 435 c 0
 338 435 363 429 382 422 c 1
 321 106 l 2
 320 102 275 -150 275 -150 c 2
 274 -158 273 -165 273 -171 c 0
 273 -185 275 -201 319 -201 c 0
 323 -201 322 -225 317 -228 c 1
296 341 m 2
 300 364 288 395 261 395 c 0
 180 395 93 265 93 150 c 0
 93 95 107 53 144 53 c 0
 195 53 265 179 284 276 c 1
 296 341 l 2
EndSplineSet
Validated: 33
Substitution2: "'smcp' Lowercase to Small Capitals in Latin lookup 3-1" q.sc
EndChar

StartChar: r
Encoding: 114 114 81
Width: 356
Flags: W
HStem: -3 21G<77.5 89.5> 365 70<266.712 339.811> 380 55<93.7782 157.5>
VStem: 111 75<242.42 406.545>
LayerCount: 2
Back
Fore
SplineSet
307 435 m 0xd0
 329 435 347 424 356 414 c 0
 360 409 365 396 365 386 c 0
 365 360 352 342 329 342 c 0
 320 342 307 348 299 357 c 0
 295 362 287 365 279 365 c 0xd0
 243 365 159 226 140 122 c 2
 140 122 118 0 118 0 c 1
 107 -2 95 -3 84 -3 c 0
 71 -3 59 -2 47 0 c 1
 47 0 107 323 107 323 c 2
 108 329 111 350 111 355 c 0
 111 364 111 380 101 380 c 0
 80 380 34 325 31 322 c 1
 28 322 21 335 21 341 c 1
 32 360 100 435 147 435 c 0xb0
 168 435 186 413 186 383 c 0
 186 375 182 351 178 330 c 0
 172 297 168 279 161 246 c 1
 189 313 260 435 307 435 c 0xd0
EndSplineSet
Validated: 1
Substitution2: "'smcp' Lowercase to Small Capitals in Latin lookup 3-1" r.sc
EndChar

StartChar: s
Encoding: 115 115 82
Width: 322
Flags: W
HStem: -6 32<93.9586 170.788> 404 34<132.121 203.386>
VStem: 60 58<293.506 376.858> 184 61<48.1324 139.924>
LayerCount: 2
Back
Fore
SplineSet
199 438 m 0
 239 438 264 429 285 411 c 1
 290 404 295 386 295 379 c 0
 295 356 281 338 261 338 c 0
 243 338 227 355 214 373 c 0
 203 389 196 404 167 404 c 0
 132 404 118 369 118 348 c 0
 118 308 153 277 184 242 c 0
 215 206 245 167 245 117 c 0
 245 43 184 -6 100 -6 c 0
 69 -6 38 2 12 24 c 1
 9 29 2 44 2 54 c 0
 2 83 19 100 39 100 c 0
 59 100 67 76 82 55 c 0
 93 40 108 26 135 26 c 0
 175 26 184 63 184 84 c 0
 184 119 158 146 132 176 c 0
 97 215 60 255 60 312 c 0
 60 368 115 438 199 438 c 0
EndSplineSet
Validated: 1
Substitution2: "'smcp' Lowercase to Small Capitals in Latin lookup 3-1" s.sc
EndChar

StartChar: t
Encoding: 116 116 83
Width: 278
Flags: W
HStem: -6 55<72.5 136.107> 376 37<50.1577 110 188 267.371>
VStem: 49 75<21.7226 177.312>
LayerCount: 2
Back
Fore
SplineSet
117 413 m 1
 128 472 l 1
 139 486 185 538 193 538 c 0
 199 538 206 535 210 532 c 1
 188 413 l 1
 263 413 l 2
 267 413 268 406 268 401 c 0
 268 391 264 384 259 376 c 1
 181 376 l 1
 128 106 l 2
 126 96 124 79 124 74 c 0
 124 65 124 49 134 49 c 0
 155 49 201 104 204 107 c 1
 207 107 214 94 214 88 c 1
 203 69 130 -6 83 -6 c 0
 62 -6 49 16 49 46 c 0
 49 54 52 78 56 99 c 2
 110 376 l 1
 43 376 l 2
 42 376 41 377 41 379 c 0
 41 389 64 413 87 413 c 2
 117 413 l 1
EndSplineSet
Validated: 1
Substitution2: "'smcp' Lowercase to Small Capitals in Latin lookup 3-1" t.sc
EndChar

StartChar: u
Encoding: 117 117 84
Width: 491
Flags: W
HStem: -6 74<103.553 164.733> -6 55<308.5 372.107> 380 55<92.7782 156.5>
VStem: 59 77<47 206.875> 110 75<257.922 406.545> 285 75<21.7226 187.893>
LayerCount: 2
Back
Fore
SplineSet
292 99 m 0x74
 298 133 303 152 310 186 c 1
 284 130 175 -6 109 -6 c 0
 70 -6 59 28 59 66 c 0xb4
 59 94 67 140 73 169 c 2
 73 169 106 323 106 323 c 2
 107 329 110 350 110 355 c 0
 110 364 110 380 100 380 c 0
 79 380 33 325 30 322 c 1
 27 322 20 335 20 341 c 1
 31 360 99 435 146 435 c 0
 167 435 185 413 185 383 c 0xac
 185 375 182 351 178 330 c 2
 178 330 143 165 143 165 c 2
 141 156 136 122 136 111 c 0
 136 88 138 68 155 68 c 0xb4
 191 68 310 194 334 319 c 0
 342 360 348 387 356 429 c 1
 366 432 377 433 387 433 c 0
 397 433 414 432 426 429 c 1
 426 429 364 106 364 106 c 2
 362 96 360 79 360 74 c 0
 360 65 360 49 370 49 c 0
 391 49 437 104 440 107 c 1
 443 107 450 94 450 88 c 1
 439 69 366 -6 319 -6 c 0
 298 -6 285 16 285 46 c 0
 285 54 288 78 292 99 c 0x74
EndSplineSet
Validated: 1
Substitution2: "'smcp' Lowercase to Small Capitals in Latin lookup 3-1" u.sc
EndChar

StartChar: v
Encoding: 118 118 85
Width: 439
Flags: W
HStem: -6 21G<111.5 149.5> 380 55<89.7782 153.5>
VStem: 107 75<66.0033 379.988> 339 76<274.116 407.361>
LayerCount: 2
Back
Fore
SplineSet
186 65 m 1
 257 126 283 164 314 226 c 0
 332 262 339 310 339 333 c 0
 339 354 330 379 313 396 c 1
 319 413 336 435 360 435 c 0
 398 435 415 401 415 355 c 0
 415 229 184 -6 115 -6 c 1
 108 2 107 118 107 148 c 2
 107 355 l 2
 107 364 107 380 97 380 c 0
 76 380 30 325 27 322 c 1
 24 322 17 335 17 341 c 1
 28 360 96 435 143 435 c 0
 164 435 182 411 182 381 c 2
 182 328 l 1
 182 176 l 2
 182 133 183 86 186 65 c 1
EndSplineSet
Validated: 1
Substitution2: "'smcp' Lowercase to Small Capitals in Latin lookup 3-1" v.sc
EndChar

StartChar: w
Encoding: 119 119 86
Width: 629
Flags: W
HStem: -6 21G<111.5 136 335.5 373.5> 380 55<89.7782 153.5>
VStem: 107 75<90.9852 379.988> 319 72<76.7733 213.972> 527 76<266.468 407.361>
LayerCount: 2
Back
Fore
SplineSet
385 375 m 1
 386 334 388 246 391 183 c 0
 393 140 396 92 406 76 c 1
 459 122 490 165 513 229 c 0
 527 267 527 310 527 333 c 0
 527 354 518 379 501 396 c 1
 507 413 524 435 548 435 c 0
 586 435 603 401 603 355 c 0
 603 229 408 -6 339 -6 c 1
 332 2 320 120 319 150 c 0
 318 176 317 214 317 214 c 1
 250 118 157 -6 115 -6 c 1
 108 2 107 118 107 148 c 2
 107 355 l 2
 107 364 107 380 97 380 c 0
 76 380 30 325 27 322 c 1
 24 322 17 335 17 341 c 1
 28 360 96 435 143 435 c 0
 164 435 182 411 182 381 c 2
 182 328 l 1
 182 176 l 2
 182 133 183 111 186 90 c 1
 231 138 281 223 299 255 c 0
 323 299 333 326 342 347 c 1
 350 357 372 372 385 375 c 1
EndSplineSet
Validated: 1
Substitution2: "'smcp' Lowercase to Small Capitals in Latin lookup 3-1" w.sc
EndChar

StartChar: x
Encoding: 120 120 87
Width: 482
Flags: W
HStem: -5 90<26.7507 82.7162> -4 56<275.5 342.062> 345 90<368.709 424.249> 380 55<122.098 188.5>
LayerCount: 2
Back
Fore
SplineSet
295 89 m 2x20
 299 68 308 52 330 52 c 0
 347 52 392 93 403 107 c 1
 406 107 413 93 413 88 c 1
 405 74 335 -4 291 -4 c 0x60
 260 -4 233 29 222 82 c 2
 222 82 205 168 205 168 c 1
 156 71 128 -5 73 -5 c 0
 59 -5 42 -3 26 7 c 1
 20 15 15 26 15 41 c 0
 15 65 29 85 52 85 c 0
 72 85 77 58 98 56 c 0
 113 55 121 67 128 79 c 0
 155 125 172 156 197 204 c 1
 197 204 169 342 169 342 c 2
 165 363 155 380 137 380 c 0
 117 380 72 338 61 324 c 1
 58 324 51 338 51 343 c 1
 59 357 129 435 173 435 c 0x90
 204 435 231 403 242 349 c 2
 242 349 256 281 256 281 c 1
 300 369 327 435 378 435 c 0
 392 435 409 433 425 423 c 1
 431 415 436 404 436 389 c 0
 436 365 422 345 399 345 c 0
 379 345 374 372 353 374 c 0
 338 375 330 363 323 351 c 0
 300 311 283 283 263 244 c 1
 263 244 295 89 295 89 c 2x20
EndSplineSet
Validated: 33
Substitution2: "'smcp' Lowercase to Small Capitals in Latin lookup 3-1" x.sc
EndChar

StartChar: y
Encoding: 121 121 88
Width: 447
Flags: W
HStem: -233 66<-95.8058 17.5759> 380 55<78.7782 175>
VStem: 146 75<15 256.979> 336 69<239.016 407.385>
LayerCount: 2
Back
Fore
SplineSet
132 435 m 0
 218 435 221 76 221 15 c 1
 257 59 336 176 336 285 c 0
 336 346 322 371 311 392 c 1
 319 418 337 435 361 435 c 0
 403 435 405 378 405 356 c 0
 405 122 84 -233 -51 -233 c 0
 -87 -233 -111 -214 -111 -192 c 0
 -111 -175 -103 -156 -88 -148 c 1
 -73 -157 -30 -167 -8 -167 c 0
 54 -167 95 -132 128 -84 c 0
 151 -50 146 19 146 62 c 0
 146 176 135 380 86 380 c 0
 65 380 19 325 16 322 c 1
 13 322 6 335 6 341 c 1
 17 360 85 435 132 435 c 0
EndSplineSet
Validated: 33
Substitution2: "'smcp' Lowercase to Small Capitals in Latin lookup 3-1" y.sc
EndChar

StartChar: z
Encoding: 122 122 89
Width: 387
Flags: W
HStem: 0 69<187.954 261.598> 32 71<53.8692 171.047> 332 72<190.805 310.44> 366 69<103.951 180.455>
VStem: 43 12<299.388 308.76>
LayerCount: 2
Back
Fore
SplineSet
145 435 m 0x18
 174 435 197 424 222 415 c 0
 239 409 257 404 278 404 c 0x28
 315 404 360 435 368 435 c 1
 376 431 379 422 379 415 c 0
 379 401 95 96 92 92 c 1
 96 94 116 103 138 103 c 0x58
 160 103 181 95 200 86 c 0
 219 78 237 69 253 69 c 0
 279 69 305 127 311 136 c 1
 320 136 322 128 323 120 c 1
 306 82 265 0 218 0 c 0x88
 194 0 164 12 138 22 c 0
 122 28 90 32 67 32 c 0x48
 38 32 21 10 1 0 c 1
 -5 2 -9 10 -10 19 c 1
 -10 34 290 349 292 353 c 1
 289 351 262 332 229 332 c 0xa8
 207 332 187 341 168 349 c 0
 149 358 131 366 114 366 c 0
 86 366 61 307 55 298 c 1
 48 298 44 305 43 314 c 1
 49 334 99 435 145 435 c 0x18
EndSplineSet
Validated: 1
Substitution2: "'smcp' Lowercase to Small Capitals in Latin lookup 3-1" z.sc
EndChar

StartChar: braceleft
Encoding: 123 123 90
Width: 210
Flags: W
LayerCount: 2
Back
Fore
SplineSet
128 402 m 0
 133 428 126 452 121 477 c 0
 115 503 110 529 116 560 c 0
 135 657 207 722 250 739 c 1
 257 739 264 729 262 720 c 1
 234 707 176 659 166 608 c 0
 159 570 166 545 172 517 c 0
 178 492 183 464 175 424 c 0
 162 359 111 317 85 307 c 1
 107 297 143 255 130 190 c 0
 122 150 106 122 90 97 c 0
 73 69 56 44 49 6 c 0
 39 -45 78 -93 101 -106 c 1
 99 -115 89 -125 82 -125 c 1
 45 -108 -1 -43 18 54 c 0
 24 85 39 111 55 137 c 0
 70 162 86 186 91 212 c 0
 101 265 71 286 37 296 c 1
 36 298 36 303 37 307 c 0
 38 311 39 316 41 318 c 1
 79 328 118 349 128 402 c 0
EndSplineSet
Validated: 33
Substitution2: "'c2sc' Capitals to Small Capitals lookup 5-1" braceleft.sc
Substitution2: "'smcp' Lowercase to Small Capitals in Latin lookup 3-1" braceleft.sc
EndChar

StartChar: bar
Encoding: 124 124 91
Width: 207
Flags: W
VStem: 0 228
LayerCount: 2
Back
Fore
SplineSet
169 757 m 1
 179 767 195 773 213 773 c 0
 220 773 229 770 228 766 c 2
 60 -106 l 1
 53 -114 33 -123 14 -123 c 0
 8 -123 -1 -120 0 -115 c 2
 169 757 l 1
EndSplineSet
Validated: 1
Substitution2: "'smcp' Lowercase to Small Capitals in Latin lookup 3-1" bar.sc
EndChar

StartChar: braceright
Encoding: 125 125 92
Width: 212
Flags: W
LayerCount: 2
Back
Fore
SplineSet
143 739 m 1
 180 722 227 657 208 560 c 0
 202 529 187 503 171 477 c 0
 156 452 140 428 135 402 c 0
 125 349 155 328 189 318 c 1
 190 316 190 311 189 307 c 0
 188 302 187 299 185 296 c 1
 147 286 108 265 98 212 c 0
 93 186 100 162 105 137 c 0
 111 111 116 85 110 54 c 0
 91 -43 18 -108 -25 -125 c 1
 -32 -125 -38 -115 -36 -106 c 1
 -8 -93 50 -45 60 6 c 0
 67 44 60 69 54 97 c 0
 48 122 43 150 51 190 c 0
 64 255 115 297 141 307 c 1
 119 317 83 359 96 424 c 0
 104 464 120 492 136 517 c 0
 153 545 170 570 177 608 c 0
 187 659 148 707 125 720 c 1
 127 729 136 739 143 739 c 1
EndSplineSet
Validated: 33
Substitution2: "'c2sc' Capitals to Small Capitals lookup 5-1" braceright.sc
Substitution2: "'smcp' Lowercase to Small Capitals in Latin lookup 3-1" braceright.sc
EndChar

StartChar: asciitilde
Encoding: 126 126 93
Width: 545
Flags: W
HStem: 250 51<311.779 448.709> 303 51<118.05 251.516>
LayerCount: 2
Back
Fore
SplineSet
197 354 m 0
 285 354 317 301 405 301 c 0
 441 301 467 322 498 345 c 1
 500 343 504 341 504 335 c 0
 504 305 440 250 369 250 c 0
 281 250 246 303 158 303 c 0
 122 303 96 282 65 259 c 1
 63 261 59 263 59 269 c 0
 59 308 142 354 197 354 c 0
EndSplineSet
Validated: 1
Substitution2: "'smcp' Lowercase to Small Capitals in Latin lookup 3-1" asciitilde.sc
EndChar

StartChar: exclamdown
Encoding: 161 161 95
Width: 203
VWidth: 0
Flags: W
HStem: 324 116<91.125 160>
VStem: -37 91<-253.388 -124.039> 71 108<342.451 420.226>
LayerCount: 2
Back
Fore
SplineSet
0 -269 m 19
 -25 -269 -37 -248 -37 -223 c 0
 -37 -198 -32 -193 82 256 c 0
 85 268 92 281 98 278 c 0
 111 271 115 267 115 257 c 1
 115 257 55 -199 54 -206 c 0
 48 -237 29 -269 0 -269 c 19
71 369 m 0
 71 406 103 440 136 440 c 0
 162 440 179 419 179 393 c 0
 179 355 147 324 114 324 c 0
 88 324 71 343 71 369 c 0
EndSplineSet
Validated: 1
Substitution2: "'c2sc' Capitals to Small Capitals lookup 5-1" exclamdown.sc
Substitution2: "'smcp' Lowercase to Small Capitals in Latin lookup 3-1" exclamdown.sc
EndChar

StartChar: cent
Encoding: 162 162 96
Width: 358
Flags: W
HStem: -6 59<118.693 190.341> 394 41<195.636 285>
VStem: 18 78<74.6218 245.542>
LayerCount: 2
Back
Fore
SplineSet
254 474 m 17
 261 474 286 473 285 466 c 9
 109 -45 l 17
 101 -45 77 -43 78 -36 c 9
 254 474 l 17
EndSplineSet
Refer: 66 99 N 1 0 0 1 -6 0 2
Validated: 37
EndChar

StartChar: sterling
Encoding: 163 163 97
Width: 447
UnlinkRmOvrlpSave: 1
Flags: W
HStem: -8 69<219.029 317.806> 29 64<67.9191 180.345> 280 39<60.8179 300.857> 593 42<257.524 356.5>
LayerCount: 2
Back
Fore
SplineSet
67 319 m 1x30
 94 319 298 319 311 319 c 1
 315 319 306 287 294 280 c 1
 267 280 63 280 50 280 c 1
 45 293 57 309 67 319 c 1x30
172 248 m 0
 157 173 117 118 87 88 c 1
 105 95 121 93 162 93 c 0x70
 212 93 266 61 302 61 c 0
 343 61 367 111 384 134 c 1
 388 134 393 127 393 117 c 0
 393 113 392 110 391 108 c 0
 371 71 325 -8 259 -8 c 0xb0
 199 -8 135 29 89 29 c 0x70
 60 29 31 7 12 -9 c 1
 0 -9 -3 4 -2 10 c 1
 19 40 36 56 56 82 c 1
 78 128 90 181 101 237 c 0
 110 281 107 356 119 417 c 0
 143 543 239 635 339 635 c 0
 374 635 393 622 403 598 c 1
 403 573 388 539 364 539 c 0
 326 539 332 593 294 593 c 0
 231 593 207 518 194 450 c 0
 183 391 181 296 172 248 c 0
EndSplineSet
Validated: 37
EndChar

StartChar: currency
Encoding: 164 164 98
Width: 504
Flags: W
HStem: 120 32<194.235 282.716> 463 33<234.118 323.983>
VStem: 84 70<197.092 362.424> 363 69<252.472 417.647>
LayerCount: 2
Back
Fore
SplineSet
237 152 m 0
 305 152 363 249 363 341 c 0
 363 411 330 463 281 463 c 0
 213 463 154 365 154 273 c 0
 154 203 188 152 237 152 c 0
392 455 m 1
 458 510 l 2
 459 511 461 511 462 511 c 3
 472 511 486 487 488 466 c 1
 421 410 l 1
 428 391 432 370 432 347 c 0
 432 282 400 228 376 199 c 1
 415 141 l 2
 415 140 416 140 416 139 c 3
 416 129 388 106 366 100 c 1
 329 155 l 1
 297 133 260 120 223 120 c 0
 183 120 149 135 125 160 c 1
 66 110 l 2
 65 109 63 109 62 109 c 3
 52 109 38 133 36 154 c 1
 96 205 l 1
 88 224 84 245 84 268 c 0
 84 330 114 388 146 423 c 1
 109 479 l 2
 109 480 108 480 108 481 c 3
 108 491 136 514 158 520 c 1
 195 465 l 1
 226 485 261 496 296 496 c 0
 336 496 368 481 392 455 c 1
EndSplineSet
Validated: 1
EndChar

StartChar: yen
Encoding: 165 165 99
Width: 592
Flags: W
HStem: -3 28<146.981 214.408 301.223 358.091> 138 38<156.449 413.873> 216 38<171.449 428.873> 604 28<88.7733 133.108 263.508 315.205 446.548 498.467 575.712 633.518>
LayerCount: 2
Back
Fore
SplineSet
173 216 m 2
 170 216 169 220 169 224 c 0
 169 231 175 248 182 254 c 1
 428 254 l 2
 430 254 431 251 431 247 c 0
 431 242 428 225 419 216 c 1
 173 216 l 2
158 138 m 2
 155 138 154 142 154 146 c 0
 154 153 160 170 167 176 c 1
 413 176 l 2
 415 176 416 173 416 169 c 0
 416 164 413 147 404 138 c 1
 158 138 l 2
233 111 m 2
 261 255 l 2
 262 262 263 272 260 282 c 2
 180 523 l 2
 168 558 157 574 135 589 c 0
 122 599 99 604 88 604 c 0
 83 604 87 627 93 632 c 1
 136 630 159 627 203 627 c 0
 247 627 282 630 318 632 c 1
 319 626 316 604 311 604 c 0
 299 604 257 599 252 574 c 0
 250 566 253 557 257 545 c 2
 333 316 l 1
 393 400 483 536 499 565 c 0
 501 568 504 573 505 579 c 0
 506 585 495 603 445 603 c 1
 442 606 446 627 449 631 c 1
 481 629 507 626 539 626 c 0
 585 626 602 629 638 631 c 1
 638 628 633 603 630 603 c 0
 623 603 573 603 545 565 c 2
 349 287 l 2
 341 276 342 267 340 258 c 2
 310 111 l 2
 304 82 299 55 301 40 c 0
 302 29 348 25 359 25 c 1
 362 20 360 2 354 -3 c 1
 318 -1 285 2 251 2 c 0
 217 2 182 -1 145 -3 c 1
 141 2 146 20 151 25 c 1
 162 25 210 29 215 40 c 0
 223 55 227 82 233 111 c 2
EndSplineSet
Validated: 37
EndChar

StartChar: brokenbar
Encoding: 166 166 100
Width: 211
VWidth: 0
Flags: W
VStem: 2 227
LayerCount: 2
Back
Fore
SplineSet
170 754 m 1
 180 764 196 770 214 770 c 27
 221 770 230 767 229 763 c 2
 160 400 l 1
 153 392 134 383 115 383 c 27
 109 383 99 386 100 391 c 2
 170 754 l 1
72 248 m 1
 82 258 98 264 116 264 c 27
 123 264 132 261 131 257 c 2
 62 -106 l 1
 55 -114 35 -123 16 -123 c 27
 10 -123 1 -120 2 -115 c 2
 72 248 l 1
EndSplineSet
Validated: 1
EndChar

StartChar: section
Encoding: 167 167 101
Width: 395
UnlinkRmOvrlpSave: 1
Flags: W
HStem: -78 50<35.7813 147.034> 603 50<255.477 368.219>
LayerCount: 2
Back
Fore
SplineSet
198 -25 m 0
 165 -51 112 -78 54 -78 c 0
 41 -78 29 -76 17 -70 c 1
 14 -60 16 -50 17 -44 c 0
 20 -30 42 -8 57 -8 c 0
 73 -8 80 -15 88 -20 c 0
 95 -24 102 -28 116 -28 c 0
 145 -28 195 -12 202 26 c 0
 211 72 156 149 121 192 c 0
 82 240 36 310 53 396 c 0
 66 463 128 541 206 600 c 0
 244 629 292 653 350 653 c 0
 363 653 375 651 387 645 c 1
 390 635 388 625 387 619 c 0
 384 605 362 583 347 583 c 0
 331 583 324 590 316 595 c 0
 309 599 301 603 287 603 c 0
 258 603 209 587 202 549 c 0
 193 503 248 426 283 383 c 0
 322 335 368 265 351 179 c 0
 338 112 267 27 198 -25 c 0
249 51 m 1
 270 79 285 99 292 135 c 0
 308 218 268 285 227 335 c 0
 191 379 137 435 151 507 c 0
 152 513 154 518 155 524 c 1
 134 496 119 476 112 440 c 0
 96 357 136 290 177 240 c 0
 213 196 267 140 253 68 c 0
 252 62 250 57 249 51 c 1
EndSplineSet
Validated: 33
EndChar

StartChar: copyright
Encoding: 169 169 103
Width: 603
Flags: W
HStem: 69 31<196.389 344.482> 195 32<266.935 375.097> 449 34<297.256 403.71> 584 31<287.104 437.705>
VStem: 57 30<213.253 374.562> 179 55<251.764 390.215> 423 22<394.59 424.07> 546 29<309.17 468.384>
LayerCount: 2
Back
Fore
SplineSet
342 483 m 0
 370 483 413 477 442 464 c 1
 443 462 444 459 444 456 c 16
 445 442 445 415 445 406 c 0
 445 395 432 394 429 394 c 0
 427 394 424 395 423 396 c 1
 423 409 413 449 347 449 c 0
 292 449 234 390 234 315 c 0
 234 255 275 227 312 227 c 0
 388 227 395 267 403 279 c 1
 403 279 405 280 407 280 c 27
 413 280 421 276 421 276 c 1
 420 273 397 217 390 214 c 0
 358 201 327 195 288 195 c 0
 223 195 179 242 179 307 c 0
 179 394 254 483 342 483 c 0
369 615 m 0
 491 615 575 522 575 398 c 0
 575 225 421 69 262 69 c 0
 140 69 57 162 57 286 c 0
 57 459 210 615 369 615 c 0
363 584 m 0
 224 584 87 446 87 292 c 0
 87 183 161 100 269 100 c 0
 408 100 546 238 546 391 c 0
 546 501 471 584 363 584 c 0
EndSplineSet
Validated: 1
EndChar

StartChar: ordfeminine
Encoding: 170 170 104
Width: 380
VWidth: 0
Flags: W
HStem: 249 41<124.915 172.02 265 299.923> 529 28<217.691 292.5>
VStem: 59 57<294.5 418.758> 231 58<268.065 376.821>
LayerCount: 2
Back
Fore
SplineSet
257 249 m 0
 241 249 231 265 231 286 c 0
 231 292 233 308 236 323 c 0
 238 336 240 339 241 344 c 1
 225 319 171 250 127 250 c 0
 85 250 59 283 59 332 c 0
 59 453 186 557 279 557 c 0
 306 557 324 553 339 548 c 1
 292 327 l 2
 291 324 289 308 289 305 c 0
 289 299 289 288 296 288 c 0
 312 288 349 326 351 328 c 1
 353 328 358 319 358 315 c 1
 350 302 293 249 257 249 c 0
244 529 m 0
 185 529 116 439 116 359 c 0
 116 316 128 290 155 290 c 0
 194 290 248 378 263 445 c 2
 279 519 l 1
 272 526 254 529 244 529 c 0
EndSplineSet
Validated: 1
EndChar

StartChar: guillemotleft
Encoding: 171 171 105
Width: 484
VWidth: 0
Flags: W
LayerCount: 2
Back
Fore
SplineSet
400 91 m 1
 395 82 385 76 379 73 c 1
 349 112 277 182 217 228 c 0
 211 232 207 236 207 242 c 0
 207 253 215 262 222 266 c 0
 333 329 375 368 446 423 c 1
 450 422 462 417 464 408 c 1
 459 396 296 249 296 249 c 1
 296 249 400 99 400 91 c 1
220 91 m 1
 215 82 205 76 199 73 c 1
 169 112 97 182 37 228 c 0
 31 232 27 236 27 242 c 0
 27 253 35 262 42 266 c 0
 153 329 195 368 266 423 c 1
 270 422 282 417 284 408 c 1
 279 396 116 249 116 249 c 1
 116 249 220 99 220 91 c 1
EndSplineSet
Validated: 1
EndChar

StartChar: logicalnot
Encoding: 172 172 106
Width: 540
VWidth: 0
Flags: W
HStem: 314 43<52 434>
LayerCount: 2
Back
Fore
SplineSet
70 357 m 2
 493 357 l 1
 446 115 l 1
 443 112 425 103 411 103 c 27
 405 103 396 105 397 111 c 2
 434 314 l 9
 52 314 l 1
 52 314 49 322 49 328 c 0
 49 345 61 357 70 357 c 2
EndSplineSet
Validated: 1
EndChar

StartChar: registered
Encoding: 174 174 107
Width: 603
Flags: W
HStem: 133 32<207.654 360.69> 272 13<186 212.682 273.283 292.686 429.727 447.229> 407 21<294.312 316.857> 529 25<297.653 373.849> 541 12<238.737 258.106> 648 32<296.425 449.447>
VStem: 382 46<438.76 526.673>
LayerCount: 2
Back
Fore
SplineSet
344 529 m 27xf6
 315 529 311 525 310 519 c 26
 310 519 296 444 296 444 c 2
 296 442 294 441 294 440 c 3
 294 429 317 428 332 428 c 27
 363 428 382 460 382 491 c 3
 382 519 365 529 344 529 c 27xf6
354 554 m 27
 392 554 428 534 428 493 c 3
 428 455 404 431 370 414 c 16
 369 413 369 412 369 411 c 2
 369 411 369 410 369 410 c 1
 371 398 386 362 401 333 c 0
 415 305 425 286 448 286 c 1
 448 282 447 277 446 275 c 1
 442 273 435 272 428 272 c 3
 369 272 357 294 317 398 c 0
 314 405 308 407 300 407 c 0
 291 407 288 405 287 399 c 26
 287 399 270 310 270 310 c 1
 270 310 270 299 270 299 c 2
 270 296 271 292 273 291 c 0
 279 288 288 285 292 285 c 0
 293 285 293 283 293 282 c 27
 293 278 292 276 291 272 c 25
 272 273 260 274 241 274 c 27
 220 274 207 273 186 272 c 25
 186 275 185 277 185 280 c 27
 185 282 187 283 188 285 c 17
 225 290 217 295 225 330 c 25
 225 330 258 499 258 499 c 26
 260 510 262 517 262 528 c 0
 262 537 246 541 240 541 c 3
 239 541 238 542 238 543 c 27
 238 547 240 549 241 553 c 25xee
 258 552 267 550 284 550 c 27
 311 550 327 554 354 554 c 27
381 680 m 0
 521 680 612 558 583 407 c 0
 554 256 415 133 275 133 c 0
 135 133 45 256 74 407 c 0
 103 558 241 680 381 680 c 0
376 648 m 0
 252 648 131 540 105 407 c 0
 79 274 158 165 282 165 c 0
 406 165 528 274 554 407 c 0
 580 540 500 648 376 648 c 0
EndSplineSet
Validated: 33
EndChar

StartChar: degree
Encoding: 176 176 109
Width: 266
VWidth: 0
Flags: W
HStem: 437 37<136.051 214.974> 597 37<150.647 231.277>
VStem: 90 36<483.773 571.242> 241 36<501.504 586.935>
LayerCount: 2
Back
Fore
SplineSet
126 524 m 0
 126 496 144 474 172 474 c 0
 207 474 241 509 241 548 c 0
 241 576 223 597 195 597 c 0
 160 597 126 565 126 524 c 0
90 517 m 0
 90 582 149 634 202 634 c 0
 246 634 277 600 277 555 c 0
 277 493 220 437 165 437 c 0
 121 437 90 472 90 517 c 0
EndSplineSet
Validated: 1
EndChar

StartChar: plusminus
Encoding: 177 177 110
Width: 489
VWidth: 0
Flags: W
HStem: 21 43<0.61171 405.103> 306 43<56.6117 231 287 461.082>
LayerCount: 2
Back
Fore
SplineSet
403 64 m 2
 405 64 406 61 406 56 c 0
 406 43 405 33 394 21 c 1
 4 21 l 2
 1 21 -1 24 -1 29 c 0
 -1 42 2 51 12 64 c 1
 403 64 l 2
59 306 m 2
 56 306 55 309 55 314 c 0
 55 327 58 336 68 349 c 1
 239 349 l 1
 273 524 l 2
 276 537 310 540 314 540 c 0
 322 540 324 536 323 532 c 2
 287 349 l 1
 458 349 l 2
 460 349 462 346 462 341 c 0
 462 328 461 318 450 306 c 1
 279 306 l 1
 245 128 l 2
 243 118 225 112 209 112 c 0
 199 112 196 116 196 120 c 2
 231 306 l 1
 59 306 l 2
EndSplineSet
Validated: 1
EndChar

StartChar: uni00B2
Encoding: 178 178 111
Width: 345
Flags: W
HStem: 255 54<117 278.023> 602 45<169.115 246.624>
VStem: 259 78<493.433 589.133>
LayerCount: 2
Back
Fore
SplineSet
337 564 m 0
 337 509 298 467 255 423 c 0
 204 371 116 309 117 309 c 9
 235 309 l 2
 266 309 283 334 295 360 c 0
 296 363 300 364 304 364 c 0
 306 364 317 357 318 356 c 1
 302 326 275 266 270 255 c 9
 270 255 54 255 50 255 c 1
 49 256 46 267 46 271 c 1
 80 301 167 384 203 425 c 0
 244 472 259 510 259 545 c 0
 259 579 231 602 201 602 c 0
 156 602 131 564 122 552 c 1
 118 552 112 567 113 569 c 1
 120 584 171 647 240 647 c 0
 285 647 337 621 337 564 c 0
EndSplineSet
Validated: 33
EndChar

StartChar: uni00B3
Encoding: 179 179 112
Width: 316
Flags: W
HStem: 247 31<111.954 190.868> 448 21<132.036 167.437> 608 40<167.921 233.212>
VStem: 231 71<329.69 438.728> 241 55<529.118 602.681>
LayerCount: 2
Back
Fore
SplineSet
229 648 m 0xe8
 258 648 296 627 296 581 c 0xe8
 296 540 252 503 220 485 c 1
 264 482 302 439 302 402 c 0
 302 296 180 247 125 247 c 0
 95 247 65 252 51 262 c 1
 49 265 45 273 45 280 c 0
 45 299 63 322 77 322 c 0
 97 322 102 305 111 294 c 0
 122 281 139 278 155 278 c 0
 190 278 231 316 231 386 c 0xf0
 231 428 206 452 168 452 c 0
 156 452 143 450 136 448 c 1
 134 451 132 452 132 455 c 0
 132 457 132 467 133 469 c 1
 183 478 241 513 241 560 c 0
 241 584 226 608 200 608 c 0
 163 608 140 571 134 567 c 1
 130 567 125 578 126 584 c 1
 153 622 184 648 229 648 c 0xe8
EndSplineSet
Validated: 1
EndChar

StartChar: paragraph
Encoding: 182 182 115
Width: 483
Flags: W
HStem: -90 43<159.5 236.363> 622 37<256.5 406.605> 633 24<466.954 522.019>
VStem: 64 215<352.908 530.271>
LayerCount: 2
Back
Fore
SplineSet
299 659 m 0xd0
 354 659 394 657 430 657 c 0
 466 657 485 660 524 662 c 1
 528 657 523 638 518 633 c 1xb0
 507 633 468 628 463 617 c 0
 455 601 449 573 444 543 c 0
 412 357 405 312 381 186 c 0
 349 22 254 -90 174 -90 c 0
 145 -90 127 -78 120 -65 c 1
 120 -60 120 -54 121 -49 c 0
 124 -28 133 -9 150 -9 c 0
 167 -9 177 -20 188 -32 c 0
 195 -39 203 -47 217 -47 c 0
 256 -47 276 23 307 182 c 1
 307 182 375 537 375 537 c 2
 381 567 387 600 385 612 c 0
 383 621 374 622 366 622 c 0
 322 622 279 516 279 439 c 0
 279 371 296 341 314 326 c 1
 316 325 324 318 324 316 c 0
 324 290 261 273 230 273 c 0
 108 273 64 369 64 440 c 0
 64 584 214 659 299 659 c 0xd0
EndSplineSet
Validated: 33
EndChar

StartChar: periodcentered
Encoding: 183 183 116
Width: 222
VWidth: 0
Flags: W
HStem: 205 117<74.4296 143.375>
VStem: 54 110<225.408 301.98>
LayerCount: 2
Back
Fore
SplineSet
54 252 m 0
 54 289 88 322 121 322 c 0
 147 322 164 302 164 276 c 0
 164 239 131 205 98 205 c 0
 72 205 54 225 54 252 c 0
EndSplineSet
Validated: 1
EndChar

StartChar: uni00B9
Encoding: 185 185 118
Width: 270
Flags: W
HStem: 253 22<55.04 107.713 184.696 227.9>
VStem: 55 198
LayerCount: 2
Back
Fore
SplineSet
106 556 m 1
 103 559 101 566 101 570 c 0
 101 571 102 575 104 576 c 0
 161 603 245 648 247 648 c 2
 248 648 l 2
 252 648 253 639 253 636 c 1
 253 636 243 616 236 579 c 2
 189 342 l 2
 185 321 182 305 183 288 c 0
 184 281 226 275 230 275 c 0
 232 275 233 266 232 262 c 0
 231 259 230 254 229 253 c 1
 206 254 153 256 130 256 c 0
 107 256 78 254 55 253 c 1
 53 256 55 275 58 275 c 0
 65 275 107 281 110 288 c 0
 116 300 118 311 120 323 c 2
 157 512 l 2
 164 549 168 570 159 570 c 0
 144 570 114 559 106 556 c 1
EndSplineSet
Validated: 33
EndChar

StartChar: ordmasculine
Encoding: 186 186 119
Width: 339
Flags: W
HStem: 247 22<145.56 200.411> 532 22<192.747 248.66>
VStem: 63 60<279.338 434.653> 267 60<363.749 525.328>
LayerCount: 2
Back
Fore
SplineSet
227 532 m 0
 162 532 123 431 123 361 c 0
 123 305 140 269 167 269 c 0
 231 269 267 371 267 441 c 0
 267 497 254 532 227 532 c 0
237 554 m 0
 299 554 327 511 327 451 c 0
 327 353 240 247 152 247 c 0
 90 247 63 287 63 347 c 0
 63 445 149 554 237 554 c 0
EndSplineSet
Validated: 1
EndChar

StartChar: guillemotright
Encoding: 187 187 120
Width: 485
VWidth: 0
Flags: W
LayerCount: 2
Back
Fore
SplineSet
257 405 m 1
 262 414 272 420 278 423 c 1
 308 384 380 314 440 268 c 0
 446 264 450 260 450 254 c 0
 450 243 442 234 435 230 c 0
 324 167 282 128 211 73 c 1
 207 74 195 79 193 88 c 1
 198 100 361 247 361 247 c 1
 361 247 257 397 257 405 c 1
77 405 m 1
 82 414 92 420 98 423 c 1
 128 384 200 314 260 268 c 0
 266 264 270 260 270 254 c 0
 270 243 262 234 255 230 c 0
 144 167 102 128 31 73 c 1
 27 74 15 79 13 88 c 1
 18 100 181 247 181 247 c 1
 181 247 77 397 77 405 c 1
EndSplineSet
Validated: 1
EndChar

StartChar: onequarter
Encoding: 188 188 121
Width: 637
VWidth: 0
Flags: W
HStem: -2 21G<134 148.114 473 491> 106 46<360 470 544 581.844> 253 22<39.04 91.7128 168.696 211.9> 622 20G<543.854 558>
LayerCount: 2
Back
Fore
SplineSet
580 405 m 0
 586 405 592 395 591 390 c 2
 544 152 l 25
 579 152 l 18
 583 152 583 134 581 121 c 0
 580 115 577 108 576 106 c 1
 536 106 l 25
 516 1 l 1
 516 1 502 -2 480 -2 c 0
 466 -2 449 -1 450 3 c 2
 470 106 l 25
 299 106 l 1
 295 108 294 116 295 120 c 1
 558 398 l 2
 563 403 576 405 580 405 c 0
513 314 m 25
 360 152 l 25
 479 152 l 25
 513 314 l 25
90 556 m 1
 87 559 85 566 85 570 c 0
 85 571 86 575 88 576 c 0
 145 603 229 648 231 648 c 2
 232 648 l 2
 236 648 237 639 237 636 c 1
 237 636 227 616 220 579 c 2
 173 342 l 2
 169 321 166 305 167 288 c 0
 168 281 210 275 214 275 c 0
 216 275 217 266 216 262 c 0
 215 259 214 254 213 253 c 1
 190 254 137 256 114 256 c 0
 91 256 62 254 39 253 c 1
 37 256 39 275 42 275 c 0
 49 275 91 281 94 288 c 0
 100 300 102 311 104 323 c 2
 141 512 l 2
 148 549 152 570 143 570 c 0
 128 570 98 559 90 556 c 1
580 626 m 2
 134 -6 l 1
 134 -6 109 -7 109 4 c 0
 109 6 110 8 111 10 c 26
 558 642 l 1
 558 642 581 642 581 631 c 0
 581 629 581 627 580 626 c 2
EndSplineSet
Validated: 33
EndChar

StartChar: onehalf
Encoding: 189 189 122
Width: 689
VWidth: 0
Flags: W
HStem: -6 21G<135 135> 2 54<429 591.023> 253 22<40.04 92.7128 169.696 212.9> 349 45<482.027 559.624> 622 20G<559 559>
VStem: 572 78<240.433 336.133>
LayerCount: 2
Back
Fore
SplineSet
650 311 m 0x7c
 650 256 611 214 568 170 c 0
 517 118 428 56 429 56 c 9
 429 56 548 56 548 56 c 2
 579 56 596 81 608 107 c 0
 609 110 613 111 617 111 c 0
 619 111 630 104 631 103 c 1
 615 73 588 13 583 2 c 9
 583 2 367 2 363 2 c 1
 362 3 359 14 359 18 c 1
 393 48 480 131 516 172 c 0
 557 219 572 257 572 292 c 0
 572 326 544 349 514 349 c 0
 469 349 443 311 434 299 c 1
 430 299 425 314 426 316 c 1
 433 331 484 394 553 394 c 0
 598 394 650 368 650 311 c 0x7c
91 556 m 1
 88 559 86 566 86 570 c 0
 86 571 87 575 89 576 c 0
 146 603 230 648 232 648 c 2
 232 648 233 648 233 648 c 2
 237 648 238 639 238 636 c 1
 238 636 228 616 221 579 c 2
 221 579 174 342 174 342 c 2
 170 321 167 305 168 288 c 0
 169 281 211 275 215 275 c 0
 217 275 218 266 217 262 c 0
 216 259 215 254 214 253 c 1
 191 254 138 256 115 256 c 0
 92 256 63 254 40 253 c 1
 38 256 40 275 43 275 c 0
 50 275 92 281 95 288 c 0
 101 300 103 311 105 323 c 2
 105 323 142 512 142 512 c 2
 149 549 153 570 144 570 c 0
 129 570 99 559 91 556 c 1
581 626 m 2
 581 626 135 -6 135 -6 c 1xbc
 135 -6 110 -7 110 4 c 0
 110 6 111 8 112 10 c 26
 112 10 559 642 559 642 c 1
 559 642 582 642 582 631 c 0
 582 629 582 627 581 626 c 2
EndSplineSet
Validated: 33
EndChar

StartChar: threequarters
Encoding: 190 190 123
Width: 651
VWidth: 0
Flags: W
HStem: -2 21G<134 134 488 506> 106 46<375 485 559 596.844> 247 31<98.9541 177.868> 448 21<119.036 154.437> 608 40<154.921 220.212> 622 20G<558 558>
VStem: 218 71<329.69 438.728> 228 55<529.118 602.681>
LayerCount: 2
Back
Fore
SplineSet
595 405 m 0xf0
 601 405 607 395 606 390 c 2
 606 390 559 152 559 152 c 25
 559 152 594 152 594 152 c 18
 598 152 598 134 596 121 c 0
 595 115 592 108 591 106 c 1
 591 106 551 106 551 106 c 25
 551 106 531 1 531 1 c 1
 531 1 517 -2 495 -2 c 0
 481 -2 464 -1 465 3 c 2
 465 3 485 106 485 106 c 25
 485 106 314 106 314 106 c 1
 310 108 309 116 310 120 c 1
 310 120 573 398 573 398 c 2
 578 403 591 405 595 405 c 0xf0
528 314 m 25
 528 314 375 152 375 152 c 25
 375 152 494 152 494 152 c 25
 494 152 528 314 528 314 c 25
216 648 m 0xf9
 245 648 283 627 283 581 c 0xf9
 283 540 239 503 207 485 c 1
 251 482 289 439 289 402 c 0
 289 296 167 247 112 247 c 0
 82 247 52 252 38 262 c 1
 36 265 32 273 32 280 c 0
 32 299 50 322 64 322 c 0
 84 322 89 305 98 294 c 0
 109 281 126 278 142 278 c 0
 177 278 218 316 218 386 c 0xfa
 218 428 193 452 155 452 c 0
 143 452 130 450 123 448 c 1
 121 451 119 452 119 455 c 0
 119 457 119 467 120 469 c 1
 170 478 228 513 228 560 c 0
 228 584 213 608 187 608 c 0
 150 608 127 571 121 567 c 1
 117 567 112 578 113 584 c 1
 140 622 171 648 216 648 c 0xf9
580 626 m 2
 580 626 134 -6 134 -6 c 1
 134 -6 109 -7 109 4 c 0
 109 6 110 8 111 10 c 26
 111 10 558 642 558 642 c 1xf4
 558 642 581 642 581 631 c 0
 581 629 581 627 580 626 c 2
EndSplineSet
Validated: 1
EndChar

StartChar: questiondown
Encoding: 191 191 124
Width: 310
VWidth: 0
Flags: W
HStem: -209 49<29.151 112.439> 320 116<166.156 236>
VStem: -33 51<-148.128 -45.1254> 145 110<339.112 414.875> 159 70<109.116 191.814>
LayerCount: 2
Back
Fore
SplineSet
255 390 m 0xf0
 255 352 223 320 190 320 c 0
 164 320 145 340 145 366 c 0
 145 403 180 436 213 436 c 0
 239 436 255 416 255 390 c 0xf0
120 225 m 1
 120 229 125 238 130 241 c 1
 154 241 229 195 229 139 c 3
 229 97 206 74 180 56 c 0
 133 24 109 8 64 -24 c 16
 44 -38 18 -62 18 -100 c 3
 18 -139 40 -160 70 -160 c 0
 114 -160 114 -114 152 -114 c 0
 181 -114 186 -148 186 -166 c 1
 181 -181 138 -209 100 -209 c 0
 25 -209 -33 -142 -33 -80 c 0
 -33 -38 -21 -6 11 24 c 0
 35 46 74 65 126 101 c 0
 151 118 159 134 159 161 c 27xe8
 159 190 131 217 120 225 c 1
EndSplineSet
Validated: 1
Substitution2: "'c2sc' Capitals to Small Capitals lookup 5-1" questiondown.sc
Substitution2: "'smcp' Lowercase to Small Capitals in Latin lookup 3-1" questiondown.sc
EndChar

StartChar: AE
Encoding: 198 198 131
Width: 785
Flags: W
HStem: -3 27<-56.5364 -4.22159 87.2291 132.78 272.154 319.727 448.216 619.527> 307 34<267 388 469.993 629.5> 630 34<502.808 707.485> 630 27<368.35 393.687 504.035 663.306>
VStem: 649 29<222.036 293.738> 746 18<530 664>
LayerCount: 2
Back
Fore
SplineSet
388 307 m 1xec
 388 307 243 307 243 307 c 1
 243 307 122 131 122 131 c 2
 87 81 77 61 77 50 c 0
 77 34 124 24 134 24 c 0
 135 24 134 2 131 -3 c 1
 94 -1 78 2 37 2 c 0
 -6 2 -16 -1 -59 -3 c 1
 -60 -2 -60 24 -56 24 c 0
 -45 24 -6 32 8 45 c 0
 37 71 62 102 87 139 c 2
 87 139 395 586 395 586 c 2
 397 590 400 595 400 601 c 0
 400 612 392 625 370 625 c 1
 366 628 367 650 370 656 c 1
 370 656 468 657 468 657 c 2xdc
 555 657 663 664 764 664 c 1
 765 614 772 573 776 528 c 1
 773 525 765 523 758 523 c 0
 751 523 746 525 746 530 c 0
 735 610 699 630 650 630 c 2
 650 630 570 630 570 630 c 2
 559 630 509 629 505 619 c 0
 498 603 494 574 491 547 c 2
 491 547 470 347 470 347 c 2
 469 342 489 341 509 341 c 2
 509 341 558 341 558 341 c 2
 647 341 645 347 669 413 c 0
 671 418 677 420 684 420 c 0
 691 420 696 418 698 415 c 1
 698 415 678 226 678 226 c 1
 676 224 669 222 662 222 c 0
 655 222 650 225 649 230 c 0
 641 287 637 294 630 300 c 0
 620 307 567 308 532 308 c 0
 506 308 466 308 465 299 c 2
 465 299 446 109 446 109 c 2
 445 94 440 45 445 40 c 0
 456 30 471 30 510 30 c 2
 510 30 554 30 554 30 c 2
 605 30 643 40 673 61 c 0
 699 79 722 109 743 162 c 0
 745 166 750 168 757 168 c 0
 766 168 778 165 780 162 c 1
 756 108 721 40 710 -4 c 1
 609 -4 517 0 394 0 c 0
 345 0 270 -3 270 -3 c 1
 268 2 271 29 276 31 c 1
 287 31 338 37 349 50 c 0
 365 69 368 89 371 124 c 2
 371 124 388 307 388 307 c 1xec
391 341 m 1
 391 341 411 550 411 550 c 1
 411 550 267 341 267 341 c 1
 267 341 391 341 391 341 c 1
EndSplineSet
Validated: 33
EndChar

StartChar: Eth
Encoding: 208 208 141
Width: 684
Flags: W
HStem: -3 29<-3.01852 67.0025 159.256 322.371> 313 36<71.2768 411.43> 631 26<119.909 179.768 270.259 424.125>
LayerCount: 2
Back
Fore
SplineSet
79 349 m 1
 107 349 396 349 409 349 c 0
 413 349 415 345 414 341 c 0
 413 336 409 320 404 313 c 1
 376 313 86 313 73 313 c 0
 69 313 69 320 70 324 c 0
 71 329 72 342 79 349 c 1
EndSplineSet
Refer: 35 68 N 1 0 0 1 0 0 2
Validated: 5
Substitution2: "'c2sc' Capitals to Small Capitals lookup 5-1" eth.sc
EndChar

StartChar: multiply
Encoding: 215 215 148
Width: 411
Flags: W
HStem: 213 61<188.375 207>
VStem: 170 61<226.125 259>
LayerCount: 2
Back
Fore
SplineSet
27 68 m 0
 21 68 14 92 14 108 c 1
 168 243 l 2
 169 244 170 245 170 246 c 0
 170 248 166 254 165 255 c 2
 68 388 l 1
 68 402 90 421 95 421 c 0
 97 421 97 419 99 417 c 2
 203 276 l 2
 204 275 206 274 207 274 c 2
 209 275 l 26
 367 416 l 2
 369 418 371 419 373 419 c 0
 380 419 386 396 386 378 c 1
 233 242 l 2
 232 241 231 241 231 240 c 3
 231 239 231 239 232 238 c 2
 332 102 l 1
 332 88 317 68 310 68 c 0
 306 68 304 69 303 71 c 2
 200 211 l 2
 199 212 198 213 197 213 c 0
 196 213 194 212 193 211 c 2
 32 71 l 2
 30 69 29 68 27 68 c 0
EndSplineSet
Validated: 1
Substitution2: "'smcp' Lowercase to Small Capitals in Latin lookup 3-1" multiply.sc
EndChar

StartChar: Oslash
Encoding: 216 216 149
Width: 710
Flags: W
HStem: -11 29<261.282 392.377> 635 30<340.506 472.819> 647 20G<612 616>
VStem: 61 94<148.992 404.767> 578 94<246.033 500.91>
LayerCount: 2
Back
Fore
SplineSet
118 -13 m 17xb8
 110 -10 91 4 96 10 c 9
 96 10 612 667 612 667 c 17
 620 665 640 651 635 645 c 9
 635 645 118 -13 118 -13 c 17xb8
EndSplineSet
Refer: 46 79 N 1 0 0 1 0 0 3
Validated: 5
Substitution2: "'c2sc' Capitals to Small Capitals lookup 5-1" oslash.sc
EndChar

StartChar: Thorn
Encoding: 222 222 155
Width: 470
Flags: W
HStem: -3 29<-3.82571 66.9961 158.448 217.284> 134 26<215.129 299.126> 482 29<242.907 350.895> 633 29<119.716 178.552 270.997 341.019>
VStem: 405 89<265.546 436.428>
LayerCount: 2
Back
Fore
SplineSet
234 458 m 8
 208 325 168 116 168 116 c 2
 162 86 156 58 158 42 c 0
 159 31 208 26 219 26 c 1
 222 21 219 2 213 -3 c 1
 175 -1 142 2 106 2 c 0
 70 2 34 -1 -5 -3 c 1
 -9 2 -5 21 -0 26 c 1
 11 26 63 31 68 42 c 0
 76 58 81 86 87 116 c 2
 170 543 l 2
 176 573 181 601 179 617 c 0
 178 628 129 633 118 633 c 1
 115 638 118 657 124 662 c 1
 162 660 197 657 233 657 c 0
 269 657 304 660 343 662 c 1
 347 657 342 638 337 633 c 1
 326 633 275 628 270 617 c 0
 262 601 257 573 251 543 c 2
 242 500 l 1
 265 509 290 511 313 511 c 0
 419 511 494 451 494 360 c 0
 494 232 383 134 261 134 c 0
 240 134 221 140 216 144 c 0
 214 146 208 155 208 160 c 0
 208 162 210 163 212 164 c 1
 220 160 236 160 245 160 c 0
 319 160 405 234 405 346 c 0
 405 402 392 482 289 482 c 0
 278 482 238 480 234 458 c 8
EndSplineSet
Validated: 33
Substitution2: "'c2sc' Capitals to Small Capitals lookup 5-1" thorn.sc
EndChar

StartChar: germandbls
Encoding: 223 223 156
Width: 500
VWidth: 0
Flags: W
HStem: -233 43<-85.5 -8.63745> -4 30<296.478 366.782> 376 37<44.1577 122> 642 43<271.961 352.473>
VStem: 252 57<307.268 378.998> 383 63<51.6239 148.412 482.277 612.202>
LayerCount: 2
Back
Fore
SplineSet
204 413 m 0
 177 267 160 169 136 43 c 0
 104 -121 9 -233 -71 -233 c 0
 -100 -233 -118 -221 -125 -208 c 1
 -125 -202 -125 -197 -124 -191 c 0
 -121 -171 -112 -152 -95 -152 c 0
 -78 -152 -68 -163 -57 -175 c 0
 -50 -182 -42 -190 -28 -190 c 0
 11 -190 31 -120 62 39 c 1
 122 376 l 1
 37 376 l 2
 36 376 35 377 35 379 c 0
 35 389 58 413 81 413 c 2
 128 413 l 1
 160 577 255 685 335 685 c 0
 386 685 452 651 452 572 c 0
 452 484 394 453 365 426 c 0
 338 401 309 376 309 352 c 3
 309 325 339 299 362 272 c 0
 402 226 446 189 446 122 c 27
 446 49 387 -4 308 -4 c 3
 248 -4 222 18 208 32 c 1
 206 38 201 50 202 58 c 0
 204 86 221 99 242 99 c 3
 271 99 280 26 329 26 c 0
 369 26 383 56 383 88 c 0
 383 131 334 186 308 216 c 0
 279 249 252 278 252 324 c 0
 252 369 276 380 331 435 c 0
 359 463 384 495 384 547 c 0
 384 608 341 642 300 642 c 0
 256 642 233 572 204 413 c 0
EndSplineSet
Validated: 1
Substitution2: "'smcp' Lowercase to Small Capitals in Latin lookup 3-1" germandbls.sc
EndChar

StartChar: ae
Encoding: 230 230 163
Width: 559
VWidth: 0
Flags: W
HStem: -8 54<68.9911 145.142 325.605 387.084> 199 31<306 359.456> 394 41<171.697 271.5 387.882 502>
VStem: 6 76<53.2352 143.03> 67 74<304.5 355.622> 232 65<156.558 198.707> 462 74<314.992 388.983>
LayerCount: 2
Back
Fore
SplineSet
421 394 m 3xe6
 358 394 315 302 306 230 c 1
 345 230 462 280 462 354 c 3
 462 379 441 394 421 394 c 3xe6
217 108 m 2
 217 108 232 201 232 201 c 1
 188 192 156 182 134 170 c 0
 91 148 82 123 82 101 c 0xf6
 82 69 101 46 127 46 c 3
 159 46 216 99 217 108 c 2
251 435 m 3
 292 435 319 401 323 366 c 1
 356 404 415 435 468 435 c 0
 536 435 536 384 536 370 c 3
 536 282 375 209 301 199 c 1
 300 193 297 171 297 158 c 0
 297 95 319 53 367 53 c 3
 409 53 465 118 469 122 c 1
 472 122 480 110 481 102 c 1
 445 51 379 -6 328 -6 c 3
 287 -6 238 22 224 70 c 1
 207 48 117 -8 90 -8 c 3
 48 -8 6 18 6 80 c 0xf6
 6 126 41 164 65 180 c 0
 80 190 195 222 232 234 c 0
 239 236 238 244 241 257 c 2
 241 257 252 317 252 317 c 2
 254 325 254 334 254 338 c 3
 254 362 234 397 198 397 c 0
 168 397 154 376 141 339 c 0
 129 307 112 294 90 294 c 0
 69 294 67 314 67 323 c 0xee
 67 336 73 348 78 356 c 1
 107 381 186 435 251 435 c 3
EndSplineSet
Validated: 1
Substitution2: "'smcp' Lowercase to Small Capitals in Latin lookup 3-1" ae.sc
EndChar

StartChar: eth
Encoding: 240 240 173
Width: 437
VWidth: 0
UnlinkRmOvrlpSave: 1
Flags: W
HStem: -5 32<144.126 216.612> 403 32<208.068 284.244> 672 16<138.251 155.487>
VStem: 39 78<49.0691 246.061> 313 75<426 487.714>
LayerCount: 2
Back
SplineSet
252 403 m 0
 168 403 117 258 117 158 c 0
 117 78 138 27 174 27 c 0
 257 27 305 173 305 273 c 0
 305 353 288 403 252 403 c 0
266 435 m 0
 346 435 383 374 383 288 c 0
 383 148 270 -5 155 -5 c 0
 75 -5 39 52 39 138 c 0
 39 278 151 435 266 435 c 0
EndSplineSet
Fore
SplineSet
156 509 m 17
 150 514 142 533 147 541 c 9
 393 704 l 17
 399 698 406 678 403 673 c 9
 156 509 l 17
259 435 m 0
 280 435 301 433 313 426 c 1
 315 506 255 642 135 672 c 1
 136 679 141 688 148 688 c 1
 309 661 388 509 388 353 c 0
 388 134 266 -5 153 -5 c 0
 64 -5 39 72 39 140 c 0
 39 250 132 435 259 435 c 0
251 403 m 0
 186 403 117 292 117 158 c 0
 117 112 125 27 175 27 c 0
 239 27 305 135 305 273 c 0
 305 300 304 340 302 353 c 0
 298 380 274 403 251 403 c 0
EndSplineSet
Validated: 37
Substitution2: "'smcp' Lowercase to Small Capitals in Latin lookup 3-1" eth.sc
EndChar

StartChar: divide
Encoding: 247 247 180
Width: 507
VWidth: 0
Flags: W
HStem: 4 100<179.312 243.658> 224 47<34.9908 464.432> 390 100<253.312 318.228>
VStem: 169 87<15.6658 94.1914> 243 88<401.666 480.191>
LayerCount: 2
Back
Fore
SplineSet
37 224 m 2xe0
 34 224 33 229 33 234 c 0
 33 245 38 263 43 271 c 1
 43 271 464 271 464 271 c 2
 466 271 467 268 467 263 c 0
 467 250 461 234 455 224 c 1
 455 224 37 224 37 224 c 2xe0
294 490 m 27
 315 490 331 471 331 450 c 27
 331 419 308 390 277 390 c 27
 255 390 243 412 243 434 c 27xe8
 243 464 264 490 294 490 c 27
220 104 m 27
 241 104 256 85 256 64 c 27
 256 33 234 4 203 4 c 27
 181 4 169 26 169 48 c 27xf0
 169 78 190 104 220 104 c 27
EndSplineSet
Validated: 1
Substitution2: "'smcp' Lowercase to Small Capitals in Latin lookup 3-1" divide.sc
EndChar

StartChar: oslash
Encoding: 248 248 181
Width: 414
VWidth: 0
Flags: W
HStem: -5 32<128.829 202.828> 0 21G<49 52> 403 32<192.936 265.934>
VStem: 24 78<49.2289 249.363> 290 78<176.798 384.03>
LayerCount: 2
Back
Fore
SplineSet
52 0 m 17x78
 46 3 29 14 33 20 c 9
 33 20 341 419 341 419 c 17
 347 416 364 406 360 400 c 9
 360 400 52 0 52 0 c 17x78
EndSplineSet
Refer: 78 111 N 1 0 0 1 0 0 2
Validated: 5
Substitution2: "'smcp' Lowercase to Small Capitals in Latin lookup 3-1" oslash.sc
EndChar

StartChar: thorn
Encoding: 254 254 187
Width: 449
Flags: W
HStem: -235 29<-53.225 -12.9507> -226 27<88.8041 135.581> -5 35<146.001 225.626> 380 55<258.572 353.498> 632 21<92.307 148.742> 666 20G<217 230.5>
VStem: 153 81<542.661 667.737> 334 74<198.629 368.99>
LayerCount: 2
Back
Fore
SplineSet
221 592 m 2xbf
 218 573 174 353 173 346 c 1
 200 371 270 435 321 435 c 0
 385 435 408 384 408 314 c 0
 408 159 278 -5 156 -5 c 0
 139 -5 116 -2 110 8 c 1
 110 8 77 -145 77 -145 c 2
 75 -154 74 -163 74 -173 c 0
 74 -178 78 -193 88 -196 c 0
 105 -200 132 -199 135 -199 c 0
 139 -200 137 -225 132 -227 c 1
 119 -227 108 -226 97 -226 c 0x7f
 46 -226 7 -228 -51 -235 c 1
 -56 -234 -55 -209 -50 -206 c 1
 -32 -206 -19 -201 -10 -190 c 0
 -3 -181 1 -170 6 -147 c 2
 6 -147 85 250 85 250 c 1
 85 250 37 202 37 202 c 1
 33 207 31 217 31 222 c 0
 31 226 33 228 34 229 c 2
 34 229 93 292 93 292 c 1
 93 292 144 560 144 560 c 2
 147 578 153 602 153 613 c 0
 153 632 108 632 92 632 c 1
 89 636 92 649 96 653 c 1
 151 658 206 678 228 686 c 1
 233 683 234 673 234 667 c 0
 234 659 226 617 221 592 c 2xbf
281 380 m 0
 248 380 190 338 163 300 c 1
 163 300 130 131 130 131 c 2
 119 72 147 30 177 30 c 0
 262 30 334 184 334 303 c 0
 334 358 313 380 281 380 c 0
EndSplineSet
Validated: 33
Substitution2: "'smcp' Lowercase to Small Capitals in Latin lookup 3-1" thorn.sc
EndChar

StartChar: dagger
Encoding: 8224 8224 190
Width: 358
Flags: W
HStem: -8 21G<123.5 126.5> 437 81<75.3174 133.836 310.813 364.59> 465 21<135.97 192.369 243.672 308.25> 642 20G<239.5 260>
VStem: 122 11<-5.93265 19.3369>
LayerCount: 2
Back
Fore
SplineSet
179 486 m 8xb8
 194 486 200 492 212 505 c 1
 218 538 224 606 210 625 c 1
 214 646 229 662 250 662 c 0
 270 662 290 646 286 625 c 1
 265 606 244 538 238 505 c 1
 245 492 252 486 264 486 c 0xb8
 295 486 324 499 345 518 c 1
 365 518 372 500 372 481 c 0
 372 460 350 437 330 437 c 1xd8
 316 456 289 465 260 465 c 24xb8
 243 465 228 449 226 437 c 1
 229 420 234 394 240 365 c 1
 193 227 178 171 133 4 c 1
 130 -2 128 -7 125 -8 c 1
 122 -7 123 0 122 4 c 1
 142 171 149 227 155 365 c 1
 170 390 187 420 197 437 c 1xd8
 199 449 189 465 175 465 c 24xb8
 142 465 115 456 94 437 c 1
 74 437 66 450 66 471 c 0
 66 492 90 518 110 518 c 1xd8
 124 499 148 486 179 486 c 8xb8
EndSplineSet
Validated: 33
EndChar

StartChar: daggerdbl
Encoding: 8225 8225 191
Width: 377
Flags: W
HStem: -8 21G<124.5 145> 136 81<24.9434 79.1867 255.35 315.299> 168 21<81.8051 146.484 197.268 254.03> 437 81<84.2879 143.65 319.813 374.986> 465 21<144.97 201.732 252.842 317.25> 642 20G<254.5 275>
LayerCount: 2
Back
Fore
SplineSet
235 289 m 1x94
 218 260 203 234 193 217 c 1xd4
 191 205 200 189 215 189 c 24xa4
 246 189 275 198 296 217 c 1
 316 217 328 199 324 178 c 0
 320 157 300 136 280 136 c 1xc4
 266 155 242 168 211 168 c 0
 199 168 190 162 178 149 c 1
 172 116 165 48 179 29 c 1
 175 8 155 -8 135 -8 c 0
 114 -8 99 8 103 29 c 1
 124 48 146 116 152 149 c 1
 145 162 139 168 126 168 c 16xa4
 95 168 66 155 45 136 c 1
 25 136 14 157 18 178 c 0
 22 199 41 217 61 217 c 1xc4
 75 198 99 189 130 189 c 24xa4
 145 189 161 205 163 217 c 1
 160 234 154 264 149 289 c 1
 164 306 169 311 184 327 c 1
 175 342 176 341 164 365 c 1
 179 390 196 420 206 437 c 1xd4
 208 449 199 465 184 465 c 24x8c
 153 465 124 456 103 437 c 1
 83 437 72 455 76 476 c 0
 80 497 99 518 119 518 c 1x94
 133 499 157 486 188 486 c 8
 201 486 209 492 221 505 c 1
 227 538 233 606 219 625 c 1
 223 646 244 662 265 662 c 0
 285 662 299 646 295 625 c 1
 274 606 253 538 247 505 c 1
 254 492 261 486 273 486 c 0x8c
 304 486 333 499 354 518 c 1
 374 518 386 497 382 476 c 0
 378 455 359 437 339 437 c 1x94
 325 456 300 465 269 465 c 24x8c
 254 465 237 449 235 437 c 1
 238 420 243 394 249 365 c 1
 229 343 228 342 214 327 c 1
 221 314 224 309 235 289 c 1x94
EndSplineSet
Validated: 33
EndChar

StartChar: bullet
Encoding: 8226 8226 192
Width: 334
Flags: W
HStem: 155 216<123.056 208.944>
VStem: 66 200
LayerCount: 2
Back
Fore
SplineSet
66 263 m 0
 77 322 132 371 187 371 c 0
 242 371 277 322 266 263 c 0
 255 204 200 155 145 155 c 0
 90 155 55 204 66 263 c 0
EndSplineSet
Validated: 33
EndChar

StartChar: uni2010
Encoding: 8208 8208 193
Width: 370
VWidth: 0
Flags: W
VStem: 52 254<210.346 261>
LayerCount: 2
Back
Fore
SplineSet
73 261 m 2
 300 273 l 2
 305 273 306 266 306 261 c 0
 306 248 293 211 283 210 c 10
 57 199 l 2
 54 199 52 206 52 214 c 0
 52 225 62 260 73 261 c 2
EndSplineSet
Validated: 1
EndChar

StartChar: uni2011
Encoding: 8209 8209 194
Width: 370
VWidth: 0
Flags: W
VStem: 52 254<210.346 261>
LayerCount: 2
Back
Fore
SplineSet
73 261 m 2
 300 273 l 2
 305 273 306 266 306 261 c 0
 306 248 293 211 283 210 c 10
 57 199 l 2
 54 199 52 206 52 214 c 0
 52 225 62 260 73 261 c 2
EndSplineSet
Validated: 1
EndChar

StartChar: figuredash
Encoding: 8210 8210 195
Width: 516
Flags: W
HStem: 200 62<58.5 443.5>
LayerCount: 2
Back
Fore
SplineSet
444 262 m 2
 448 262 450 256 450 249 c 0
 450 235 440 207 428 200 c 1
 58 200 l 2
 54 200 52 206 52 213 c 0
 52 227 62 255 74 262 c 1
 444 262 l 2
EndSplineSet
Validated: 1
EndChar

StartChar: endash
Encoding: 8211 8211 196
Width: 564
Flags: W
HStem: 200 62<59.5 490.5>
LayerCount: 2
Back
Fore
SplineSet
491 262 m 2
 495 262 497 256 497 249 c 0
 497 235 487 207 475 200 c 1
 59 200 l 2
 55 200 53 206 53 213 c 0
 53 227 63 255 75 262 c 1
 491 262 l 2
EndSplineSet
Validated: 1
EndChar

StartChar: emdash
Encoding: 8212 8212 197
Width: 800
Flags: W
HStem: 200 62<59.5 726.5>
LayerCount: 2
Back
Fore
SplineSet
727 262 m 2
 731 262 733 256 733 249 c 0
 733 235 723 207 711 200 c 1
 59 200 l 2
 55 200 53 206 53 213 c 0
 53 227 63 255 75 262 c 1
 727 262 l 2
EndSplineSet
Validated: 1
EndChar

StartChar: afii00208
Encoding: 8213 8213 198
Width: 1070
Flags: W
HStem: 200 62<59.5 996.5>
LayerCount: 2
Back
Fore
SplineSet
997 262 m 2
 1001 262 1003 256 1003 249 c 0
 1003 235 993 207 981 200 c 1
 59 200 l 2
 55 200 53 206 53 213 c 0
 53 227 63 255 75 262 c 1
 997 262 l 2
EndSplineSet
Validated: 1
EndChar

StartChar: quoteleft
Encoding: 8216 8216 199
Width: 183
Flags: W
HStem: 482 224
VStem: 103 87<496.757 576.344>
LayerCount: 2
Back
Fore
SplineSet
102 555 m 0
 120 649 226 706 234 706 c 0
 241 706 246 699 248 688 c 1
 185 652 167 606 165 597 c 0
 160 571 195 553 190 525 c 0
 185 501 151 482 121 482 c 0
 114 482 109 483 103 485 c 1
 97 498 97 530 102 555 c 0
EndSplineSet
Validated: 33
EndChar

StartChar: quoteright
Encoding: 8217 8217 200
Width: 193
Flags: W
HStem: 484 224
VStem: 143 86<609.555 694.012>
LayerCount: 2
Back
Fore
SplineSet
229 635 m 0
 211 541 106 484 98 484 c 0
 91 484 85 491 83 502 c 1
 146 538 165 584 167 593 c 0
 172 619 138 637 143 665 c 0
 148 689 181 708 211 708 c 0
 218 708 223 707 229 705 c 1
 235 692 234 660 229 635 c 0
EndSplineSet
Validated: 33
EndChar

StartChar: quotesinglbase
Encoding: 8218 8218 201
Width: 196
Flags: W
HStem: -97 223
VStem: 14 87<31.6731 111.243>
LayerCount: 2
Back
Fore
SplineSet
101 53 m 0
 83 -41 -22 -97 -30 -97 c 0
 -37 -97 -43 -91 -45 -80 c 1
 18 -44 37 2 39 11 c 0
 44 37 9 55 14 83 c 0
 19 107 53 126 83 126 c 0
 90 126 95 125 101 123 c 1
 107 110 106 78 101 53 c 0
EndSplineSet
Validated: 33
EndChar

StartChar: quotedblleft
Encoding: 8220 8220 202
Width: 316
Flags: W
HStem: 482 224<236 241>
VStem: 103 87<496.757 576.344> 236 87<495.988 576.344>
LayerCount: 2
Back
Fore
SplineSet
236 555 m 0
 254 649 359 706 367 706 c 0
 374 706 380 699 382 688 c 1
 319 652 300 606 298 597 c 0
 293 571 328 553 323 525 c 0
 318 501 285 482 255 482 c 0
 248 482 242 483 236 485 c 1
 230 498 231 530 236 555 c 0
102 555 m 0
 120 649 226 706 234 706 c 0
 241 706 246 699 248 688 c 1
 185 652 167 606 165 597 c 0
 160 571 195 553 190 525 c 0
 185 501 151 482 121 482 c 0
 114 482 109 483 103 485 c 1
 97 498 97 530 102 555 c 0
EndSplineSet
Validated: 33
EndChar

StartChar: quotedblright
Encoding: 8221 8221 203
Width: 327
Flags: W
HStem: 484 224<224 229>
VStem: 143 86<609.555 694.012> 276 86<609.555 694.012>
LayerCount: 2
Back
Fore
SplineSet
363 635 m 0
 345 541 239 484 231 484 c 0
 224 484 219 491 217 502 c 1
 280 538 298 584 300 593 c 0
 305 619 271 637 276 665 c 0
 281 689 314 708 344 708 c 0
 351 708 356 707 362 705 c 1
 368 692 368 660 363 635 c 0
229 635 m 0
 211 541 106 484 98 484 c 0
 91 484 85 491 83 502 c 1
 146 538 165 584 167 593 c 0
 172 619 138 637 143 665 c 0
 148 689 181 708 211 708 c 0
 218 708 223 707 229 705 c 1
 235 692 234 660 229 635 c 0
EndSplineSet
Validated: 33
EndChar

StartChar: quotedblbase
Encoding: 8222 8222 204
Width: 329
Flags: W
HStem: -99 223
VStem: 14 87<31.6731 111.243> 147 87<25.5793 109.243>
LayerCount: 2
Back
Fore
SplineSet
234 51 m 0
 216 -43 111 -99 103 -99 c 0
 96 -99 90 -93 88 -82 c 1
 151 -46 169 0 171 9 c 0
 176 35 142 53 147 81 c 0
 152 105 186 124 216 124 c 0
 223 124 228 123 234 121 c 1
 240 108 239 76 234 51 c 0
101 53 m 0
 83 -41 -22 -97 -30 -97 c 0
 -37 -97 -43 -91 -45 -80 c 1
 18 -44 37 2 39 11 c 0
 44 37 9 55 14 83 c 0
 19 107 53 126 83 126 c 0
 90 126 95 125 101 123 c 1
 107 110 106 78 101 53 c 0
EndSplineSet
Validated: 33
EndChar

StartChar: onedotenleader
Encoding: 8228 8228 205
Width: 207
Flags: W
HStem: -14 116<27.9761 96.375>
VStem: 9 108<6.4082 83.234>
LayerCount: 2
Back
Fore
SplineSet
9 32 m 0
 9 69 40 102 73 102 c 0
 99 102 117 83 117 57 c 0
 117 20 84 -14 51 -14 c 0
 25 -14 9 6 9 32 c 0
EndSplineSet
Validated: 1
EndChar

StartChar: ellipsis
Encoding: 8230 8230 206
Width: 680
Flags: W
HStem: -14 116<27.9761 96.375 264.976 333.375 500 568.875>
VStem: 9 108<6.4082 83.234> 246 108<6.4082 83.234> 481 109<6.94324 83.5491>
LayerCount: 2
Back
Fore
SplineSet
481 32 m 0
 481 70 513 102 546 102 c 0
 572 102 590 83 590 57 c 0
 590 20 556 -14 523 -14 c 0
 497 -14 481 6 481 32 c 0
246 32 m 0
 246 69 277 102 310 102 c 0
 336 102 354 83 354 57 c 0
 354 20 321 -14 288 -14 c 0
 262 -14 246 6 246 32 c 0
9 32 m 0
 9 69 40 102 73 102 c 0
 99 102 117 83 117 57 c 0
 117 20 84 -14 51 -14 c 0
 25 -14 9 6 9 32 c 0
EndSplineSet
Validated: 1
EndChar

StartChar: perthousand
Encoding: 8240 8240 207
Width: 942
VWidth: 0
Flags: W
HStem: -8 28<386.061 456.221 698.061 768.221> 300 27<423.525 493.689 735.525 805.689> 338 28<174.061 244.221> 643 20G<620 631> 646 27<211.525 281.689>
VStem: 79 63<389.827 559.144> 291 63<43.8269 213.144> 309 65<451.145 624.049> 521 65<105.145 278.049> 603 63<43.8269 213.144> 833 65<105.145 278.049>
LayerCount: 2
Back
Fore
SplineSet
775 300 m 3xe4e0
 712 300 666 210 666 132 c 27
 666 81 683 20 731 20 c 3
 794 20 833 116 833 195 c 27
 833 242 820 300 775 300 c 3xe4e0
785 327 m 3
 862 327 898 263 898 195 c 3
 898 99 817 -8 719 -8 c 3
 643 -8 603 55 603 123 c 3
 603 221 683 327 785 327 c 3
251 646 m 3xede0
 188 646 142 556 142 478 c 27
 142 427 159 366 207 366 c 3
 270 366 309 462 309 541 c 27
 309 588 296 646 251 646 c 3xede0
261 673 m 3
 338 673 374 609 374 541 c 3
 374 445 293 338 195 338 c 3
 119 338 79 401 79 469 c 3
 79 567 159 673 261 673 c 3
652 650 m 9
 652 650 56 0 56 0 c 2
 52 -4 36 -12 22 -12 c 27
 15 -12 9 -9 7 -1 c 9
 7 -1 603 652 603 652 c 2
 607 656 615 663 625 663 c 27xf4e0
 637 663 648 660 652 650 c 9
463 300 m 3
 400 300 354 210 354 132 c 27xe6e0
 354 81 371 20 419 20 c 3
 482 20 521 116 521 195 c 27
 521 242 508 300 463 300 c 3
473 327 m 3
 550 327 586 263 586 195 c 3
 586 99 505 -8 407 -8 c 3
 331 -8 291 55 291 123 c 3
 291 221 371 327 473 327 c 3
EndSplineSet
Validated: 1
EndChar

StartChar: minute
Encoding: 8242 8242 208
Width: 163
Flags: W
HStem: 494 205
VStem: 138 73<620.949 687.628>
LayerCount: 2
Back
Fore
SplineSet
191 699 m 0
 199 699 211 696 211 682 c 0
 211 642 143 541 117 502 c 0
 113 496 109 494 105 494 c 0
 99 494 95 499 96 506 c 0
 97 509 120 612 138 666 c 0
 142 678 173 699 191 699 c 0
EndSplineSet
Validated: 1
EndChar

StartChar: second
Encoding: 8243 8243 209
Width: 283
Flags: W
HStem: 494 205
VStem: 138 73<620.949 687.628> 260 71<618.641 687.628>
LayerCount: 2
Back
Fore
SplineSet
312 699 m 0
 320 699 331 696 331 682 c 0
 331 642 266 544 238 502 c 0
 234 496 230 494 226 494 c 0
 220 494 215 499 216 506 c 0
 217 509 242 612 260 666 c 0
 264 678 294 699 312 699 c 0
191 699 m 0
 199 699 211 696 211 682 c 0
 211 642 143 541 117 502 c 0
 113 496 109 494 105 494 c 0
 99 494 95 499 96 506 c 0
 97 509 120 612 138 666 c 0
 142 678 173 699 191 699 c 0
EndSplineSet
Validated: 1
EndChar

StartChar: uni2038
Encoding: 8248 8248 210
Width: 375
Flags: W
HStem: -36 146
VStem: 75 219
LayerCount: 2
Back
Fore
SplineSet
280 -36 m 0
 268 -36 222 11 196 47 c 1
 159 10 93 -36 81 -36 c 0
 76 -36 75 -28 75 -23 c 0
 75 -8 139 17 195 100 c 1
 199 108 201 110 206 110 c 0
 224 110 212 95 246 41 c 0
 258 21 293 -15 294 -18 c 1
 293 -22 286 -36 280 -36 c 0
EndSplineSet
Validated: 1
EndChar

StartChar: guilsinglleft
Encoding: 8249 8249 211
Width: 304
VWidth: 0
Flags: W
VStem: 27 257
LayerCount: 2
Back
Fore
SplineSet
220 91 m 1
 215 82 205 76 199 73 c 1
 169 112 97 182 37 228 c 0
 31 232 27 236 27 242 c 0
 27 253 35 262 42 266 c 0
 153 329 195 368 266 423 c 1
 270 422 282 417 284 408 c 1
 279 396 116 249 116 249 c 1
 116 249 220 99 220 91 c 1
EndSplineSet
Validated: 1
EndChar

StartChar: guilsinglright
Encoding: 8250 8250 212
Width: 305
VWidth: 0
Flags: W
VStem: 13 257
LayerCount: 2
Back
Fore
SplineSet
77 405 m 1
 82 414 92 420 98 423 c 1
 128 384 200 314 260 268 c 0
 266 264 270 260 270 254 c 0
 270 243 262 234 255 230 c 0
 144 167 102 128 31 73 c 1
 27 74 15 79 13 88 c 1
 18 100 181 247 181 247 c 1
 181 247 77 397 77 405 c 1
EndSplineSet
Validated: 1
EndChar

StartChar: uni203E
Encoding: 8254 8254 213
Width: 822
Flags: W
HStem: 739 62<233.5 787.5>
LayerCount: 2
Back
Fore
SplineSet
788 801 m 2
 792 801 794 795 794 788 c 0
 794 774 784 746 772 739 c 1
 233 739 l 2
 229 739 227 745 227 752 c 0
 227 766 237 794 249 801 c 1
 788 801 l 2
EndSplineSet
Validated: 1
EndChar

StartChar: Euro
Encoding: 8364 8364 214
Width: 618
Flags: W
HStem: -8 34<288.631 428.782> 242 39<30.4486 380.026> 340 39<45.4486 395.026> 600 33<348.147 484.882>
VStem: 80 91<151.891 332.662> 554 31<462.012 533.06>
LayerCount: 2
Back
Fore
SplineSet
422 600 m 0
 291 600 170 474 171 268 c 0
 171 155 231 26 357 26 c 0
 405 26 443 46 474 74 c 0
 504 101 526 136 540 164 c 1
 552 164 565 157 565 157 c 1
 561 138 514 37 501 26 c 1
 453 -1 405 -8 333 -8 c 0
 196 -8 80 111 80 252 c 0
 80 492 272 637 447 633 c 0
 496 632 550 619 593 608 c 1
 591 574 587 498 585 469 c 0
 585 462 578 462 575 462 c 0
 571 462 558 461 554 469 c 1
 558 545 493 600 422 600 c 0
47 340 m 2
 44 340 43 344 43 348 c 0
 43 355 49 373 56 379 c 1
 394 379 l 2
 396 379 397 375 397 371 c 0
 397 366 394 349 385 340 c 1
 47 340 l 2
32 242 m 2
 29 242 28 246 28 250 c 0
 28 257 34 275 41 281 c 1
 379 281 l 2
 381 281 382 277 382 273 c 0
 382 268 379 251 370 242 c 1
 32 242 l 2
EndSplineSet
Validated: 37
EndChar

StartChar: arrowleft
Encoding: 8592 8592 215
Width: 672
Flags: W
HStem: 216 62<119 653.5>
LayerCount: 2
Back
Fore
SplineSet
183 335 m 10
 119 278 l 25
 654 278 l 18
 658 278 660 272 660 265 c 0
 660 251 650 223 638 216 c 1
 109 216 l 1
 109 216 133 179 150 157 c 16
 189 106 193 105 193 94 c 0
 193 84 176 76 169 73 c 1
 168 75 126 132 8 227 c 0
 5 229 4 233 4 237 c 0
 4 244 8 259 17 268 c 1
 154 347 237 422 238 423 c 1
 250 419 258 413 256 404 c 1
 256 394 251 396 183 335 c 10
EndSplineSet
Validated: 1
EndChar

StartChar: arrowup
Encoding: 8593 8593 216
Width: 315
Flags: W
HStem: 438 21G<7 16.5 298 308>
VStem: 0 326
LayerCount: 2
Back
Fore
SplineSet
152 556 m 1
 86 499 l 1
 19 439 20 438 13 438 c 0
 1 438 2 456 0 461 c 1
 2 462 67 520 184 667 c 0
 187 672 192 674 198 674 c 0
 207 674 216 673 222 666 c 1
 270 535 325 461 326 460 c 1
 320 446 312 437 304 437 c 0
 292 437 297 440 248 505 c 2
 210 555 l 1
 99 -21 l 2
 98 -24 93 -28 86 -28 c 0
 71 -28 47 -21 41 -13 c 1
 152 556 l 1
EndSplineSet
Validated: 1
EndChar

StartChar: arrowright
Encoding: 8594 8594 217
Width: 676
Flags: W
HStem: 217 62<13.5 549>
LayerCount: 2
Back
Fore
SplineSet
549 217 m 1
 13 217 l 2
 9 217 7 223 7 230 c 0
 7 244 17 272 29 279 c 1
 563 279 l 1
 520 339 l 1
 473 401 477 387 477 404 c 1
 480 417 497 420 502 423 c 1
 503 421 544 363 662 268 c 0
 665 266 666 263 666 259 c 0
 666 253 663 236 654 227 c 1
 517 148 433 74 432 73 c 1
 420 77 413 82 415 91 c 1
 415 100 420 100 491 164 c 2
 549 217 l 1
EndSplineSet
Validated: 33
EndChar

StartChar: arrowdown
Encoding: 8595 8595 218
Width: 313
Flags: W
VStem: -10 325
LayerCount: 2
Back
Fore
SplineSet
105 90 m 1
 217 667 l 2
 218 671 223 673 230 673 c 0
 244 673 266 666 274 658 c 1
 164 89 l 1
 230 146 l 1
 296 206 289 207 303 207 c 0
 315 207 313 189 315 184 c 1
 313 183 248 125 131 -22 c 0
 128 -27 123 -29 117 -29 c 0
 108 -29 99 -27 93 -20 c 1
 45 111 -9 184 -10 185 c 1
 -4 199 3 208 11 208 c 0
 22 208 17 206 68 138 c 1
 105 90 l 1
EndSplineSet
Validated: 1
EndChar

StartChar: summation
Encoding: 8721 8721 219
Width: 570
Flags: W
HStem: 2 45<91.0067 417.802> 2 29<-21.5762 9.35864> 627 29<106.034 125.47> 638 20G<101.5 106>
VStem: 520 29<523.096 586.903>
LayerCount: 2
Back
Fore
SplineSet
404 616 m 2x28
 404 616 314 617 288 617 c 0
 255 617 227 615 224 607 c 1
 224 607 351 358 351 358 c 1
 353 346 352 335 344 327 c 0
 307 291 91 87 91 57 c 0
 91 51 100 47 159 47 c 0xa8
 191 47 227 48 258 48 c 0
 293 48 382 51 412 66 c 0
 432 76 459 109 484 162 c 0
 486 166 491 168 498 168 c 0
 507 168 519 165 521 162 c 1
 493 108 453 40 438 -4 c 1
 337 -4 174 2 89 2 c 0
 27 2 -22 -3 -22 -3 c 1
 -23 -2 -23 1 -23 5 c 0
 -23 13 -19 31 -16 31 c 0
 -6 31 18 51 29 63 c 2
 29 63 268 317 268 317 c 2
 270 320 271 323 269 327 c 0
 261 347 194 490 142 592 c 0
 133 609 111 627 100 627 c 0x68
 97 627 97 649 106 658 c 1x18
 106 658 152 656 214 656 c 0
 300 656 448 664 549 664 c 1
 548 648 548 632 548 617 c 0
 548 587 549 558 549 528 c 1
 546 525 539 523 532 523 c 0
 525 523 520 525 520 530 c 0
 517 587 495 602 487 607 c 0
 473 615 437 616 404 616 c 2x28
EndSplineSet
Validated: 1
EndChar

StartChar: minus
Encoding: 8722 8722 220
Width: 567
Flags: W
HStem: 218 56<61.0384 481>
LayerCount: 2
Back
Fore
SplineSet
53 228 m 1
 53 228 66 274 75 274 c 2
 500 274 l 2
 503 274 505 274 505 269 c 0
 505 265 496 242 488 224 c 0
 485 218 481 218 481 218 c 1
 57 218 l 1
 57 218 51 218 53 228 c 1
EndSplineSet
Validated: 1
EndChar

StartChar: uni2213
Encoding: 8723 8723 221
Width: 534
Flags: W
HStem: 221 57<61 231 299 465> 522 57<105.109 532.536>
LayerCount: 2
Back
Fore
SplineSet
536 579 m 1
 536 579 542 579 542 572 c 0
 542 571 542 569 541 567 c 0
 525 519 520 525 517 522 c 1
 101 522 l 1
 101 522 93 522 98 536 c 0
 110 572 113 579 119 579 c 2
 536 579 l 1
283 218 m 2
 246 26 l 1
 246 26 244 16 201 10 c 0
 198 10 197 9 195 9 c 0
 188 9 191 13 192 17 c 2
 231 216 l 2
 231 218 231 221 226 221 c 2
 41 221 l 1
 41 221 37 221 37 227 c 0
 37 236 51 267 53 272 c 0
 56 278 61 278 61 278 c 1
 238 278 l 2
 241 278 244 281 244 283 c 2
 281 473 l 1
 281 473 281 478 287 480 c 0
 311 487 322 488 326 488 c 0
 335 488 335 482 335 482 c 1
 296 282 l 2
 295 279 296 278 299 278 c 2
 485 278 l 2
 488 278 491 278 491 274 c 0
 491 265 475 232 473 227 c 0
 470 221 465 221 465 221 c 1
 288 221 l 2
 285 221 283 220 283 218 c 2
EndSplineSet
Validated: 1
EndChar

StartChar: radical
Encoding: 8730 8730 222
Width: 462
Flags: W
LayerCount: 2
Back
Fore
SplineSet
-19 168 m 1
 -30 174 -35 181 -35 185 c 0
 -35 193 -16 203 -10 206 c 0
 27 226 111 279 126 291 c 0
 135 298 149 298 150 290 c 0
 151 257 159 226 160 221 c 2
 220 -31 l 1
 512 791 l 1
 546 791 l 1
 209 -153 l 1
 192 -171 181 -173 175 -173 c 0
 171 -173 166 -172 166 -168 c 2
 77 220 l 1
 -19 168 l 1
EndSplineSet
Validated: 1
EndChar

StartChar: proportional
Encoding: 8733 8733 223
Width: 655
Flags: W
HStem: 41 56<132.349 237.342 530.398 554.02> 362 60<173.187 284.185 567.845 624.125>
VStem: 34 67<129.239 277.844>
LayerCount: 2
Back
Fore
SplineSet
234 362 m 0
 157 362 101 269 101 198 c 0
 101 142 134 97 189 97 c 0
 250 97 313 172 362 218 c 0
 363 219 364 219 363 220 c 0
 340 259 299 362 234 362 c 0
621 419 m 1
 623 415 625 405 625 401 c 0
 625 388 624 367 615 367 c 0
 558 367 485 286 445 246 c 0
 444 245 443 244 444 243 c 0
 476 185 512 100 576 100 c 0
 594 100 559 47 547 43 c 1
 425 43 388 180 378 180 c 2
 377 180 l 1
 315 117 245 41 153 41 c 0
 78 41 34 104 34 182 c 0
 34 308 144 422 257 422 c 0
 347 422 396 334 425 286 c 0
 426 284 429 283 430 285 c 0
 474 332 543 404 621 419 c 1
EndSplineSet
Validated: 33
EndChar

StartChar: infinity
Encoding: 8734 8734 224
Width: 821
Flags: W
HStem: 43 57<129.45 240.894 523.794 634.388> 362 60<173.472 284.588 569.184 677.059>
VStem: 34 67<129.307 278.512> 704 69<185.93 333.226>
LayerCount: 2
Back
Fore
SplineSet
614 367 m 0
 557 367 485 286 445 246 c 0
 444 245 443 244 444 243 c 0
 476 185 512 100 576 100 c 0
 653 100 704 197 704 264 c 0
 704 322 670 367 614 367 c 0
235 362 m 0
 164 362 101 279 101 199 c 0
 101 142 135 97 190 97 c 0
 251 97 314 172 363 218 c 0
 364 219 364 219 363 220 c 0
 340 259 300 362 235 362 c 0
257 422 m 0
 347 422 396 334 425 286 c 0
 426 284 430 283 431 285 c 0
 480 338 560 422 650 422 c 0
 726 422 773 359 773 281 c 0
 773 156 660 43 546 43 c 0
 424 43 388 180 378 180 c 2
 377 180 l 1
 315 117 244 41 153 41 c 0
 78 41 34 104 34 182 c 0
 34 308 144 422 257 422 c 0
EndSplineSet
Validated: 1
EndChar

StartChar: notequal
Encoding: 8800 8800 225
Width: 522
Flags: W
HStem: 117 56<40 153 241 435> 259 56<68 254 343 462>
LayerCount: 2
Back
Fore
SplineSet
343 315 m 1
 481 315 l 2
 484 315 487 316 487 312 c 0
 487 303 471 270 469 265 c 0
 466 259 462 259 462 259 c 1
 302 259 l 1
 241 173 l 1
 453 173 l 2
 457 173 460 175 459 168 c 0
 457 159 451 145 441 123 c 0
 438 117 435 117 435 117 c 1
 201 117 l 1
 128 13 l 1
 128 13 128 11 124 11 c 0
 121 11 105 15 96 31 c 0
 93 35 97 38 97 38 c 1
 153 117 l 1
 21 117 l 1
 21 117 16 117 16 124 c 0
 16 130 20 140 33 168 c 0
 36 174 40 173 40 173 c 1
 193 173 l 1
 254 259 l 1
 48 259 l 1
 48 259 42 259 44 269 c 0
 45 273 49 286 60 310 c 0
 63 316 68 315 68 315 c 1
 293 315 l 1
 358 406 l 1
 358 406 358 409 362 409 c 0
 367 409 379 406 388 391 c 0
 392 386 389 381 389 381 c 1
 343 315 l 1
EndSplineSet
Validated: 1
EndChar

StartChar: lessequal
Encoding: 8804 8804 226
Width: 464
Flags: W
HStem: 6 56<-12.3358 351.644>
LayerCount: 2
Back
Fore
SplineSet
2 62 m 1
 354 62 l 2
 357 62 358 59 358 53 c 3
 358 39 349 19 337 6 c 1
 -15 6 l 2
 -18 6 -20 9 -20 15 c 3
 -20 29 -9 48 2 62 c 1
435 529 m 17
 439 524 448 505 448 488 c 27
 448 483 447 477 443 475 c 2
 107 310 l 1
 383 142 l 1
 383 124 365 87 359 87 c 0
 358 87 357 87 355 88 c 2
 44 279 l 2
 36 284 33 292 33 302 c 0
 33 327 44 336 56 342 c 2
 435 529 l 17
EndSplineSet
Validated: 1
EndChar

StartChar: greaterequal
Encoding: 8805 8805 227
Width: 466
Flags: W
HStem: 6 56<18.6642 382.644>
LayerCount: 2
Back
Fore
SplineSet
33 62 m 1
 385 62 l 2
 388 62 389 59 389 53 c 3
 389 39 380 19 368 6 c 1
 16 6 l 2
 13 6 11 9 11 15 c 3
 11 29 22 48 33 62 c 1
41 88 m 17
 35 96 28 125 28 134 c 0
 28 138 30 140 34 142 c 2
 375 310 l 1
 104 475 l 1
 104 500 120 530 126 530 c 0
 128 530 130 530 132 529 c 2
 439 342 l 2
 446 338 451 331 451 322 c 0
 451 320 450 290 427 279 c 2
 41 88 l 17
EndSplineSet
Validated: 1
EndChar

StartChar: partialdiff
Encoding: 8706 8706 228
Width: 439
Flags: W
HStem: -5 32<128.085 201.481> 376 32<190.483 274.875> 589 42<186.637 278.926>
VStem: 24 77<48.3201 236.926> 318 62<306.035 546.199>
LayerCount: 2
Back
Fore
SplineSet
225 376 m 0
 169 376 101 251 101 145 c 0
 101 105 111 27 160 27 c 0
 248 27 300 223 300 262 c 0
 300 343 283 376 225 376 c 0
318 404 m 0
 318 423 329 589 229 589 c 0
 195 589 169 573 152 549 c 1
 149 549 145 562 146 567 c 1
 156 587 194 631 255 631 c 0
 316 631 380 585 380 418 c 0
 380 290 354 -5 136 -5 c 0
 59 -5 24 59 24 132 c 0
 24 227 99 408 241 408 c 0
 289 408 311 379 316 375 c 1
 317 382 318 393 318 404 c 0
EndSplineSet
Validated: 33
EndChar

StartChar: gravecomb
Encoding: 768 768 229
Width: 0
VWidth: 967
GlyphClass: 4
Flags: W
HStem: 490 131
VStem: -355 171
LayerCount: 2
Back
Fore
SplineSet
-192 490 m 0
 -207 490 -355 572 -355 591 c 0
 -355 614 -329 621 -316 621 c 0
 -301 621 -289 618 -279 611 c 0
 -266 602 -184 508 -184 500 c 0
 -184 497 -189 490 -192 490 c 0
EndSplineSet
Validated: 1
EndChar

StartChar: acutecomb
Encoding: 769 769 230
Width: 0
VWidth: 967
GlyphClass: 4
Flags: W
HStem: 490 131
VStem: -333 171
LayerCount: 2
Back
Fore
SplineSet
-325 490 m 0
 -328 490 -333 497 -333 500 c 0
 -333 508 -251 602 -238 611 c 0
 -228 618 -216 621 -201 621 c 0
 -188 621 -162 614 -162 591 c 0
 -162 572 -310 490 -325 490 c 0
EndSplineSet
Validated: 1
EndChar

StartChar: uni0302
Encoding: 770 770 231
Width: 0
VWidth: 960
GlyphClass: 4
Flags: W
HStem: 490 135
VStem: -368 205
LayerCount: 2
Back
Fore
SplineSet
-240 625 m 0
 -236 625 -233 621 -231 617 c 0
 -206 570 -192 546 -163 501 c 1
 -164 495 -171 490 -176 490 c 1
 -207 514 -254 554 -254 554 c 25
 -254 554 -320 515 -359 490 c 1
 -364 490 -369 495 -368 501 c 1
 -321 546 -296 570 -252 617 c 0
 -248 621 -244 625 -240 625 c 0
EndSplineSet
Validated: 1
EndChar

StartChar: tildecomb
Encoding: 771 771 232
Width: 0
VWidth: 940
GlyphClass: 4
Flags: W
HStem: 490 42<-236.285 -140.11> 526 42<-361.844 -261.502>
VStem: -396 291
LayerCount: 2
Back
Fore
SplineSet
-297 568 m 0x60
 -274 568 -257 563 -241 555 c 0
 -221 546 -205 532 -176 532 c 0xa0
 -144 532 -118 561 -111 568 c 1x60
 -108 567 -104 566 -105 559 c 0
 -107 545 -117 530 -126 522 c 0
 -152 498 -177 490 -204 490 c 0xa0
 -227 490 -242 496 -259 504 c 0
 -278 513 -297 526 -326 526 c 0x60
 -358 526 -384 497 -391 490 c 1xa0
 -394 491 -397 493 -396 500 c 0
 -394 514 -385 528 -376 536 c 0
 -350 560 -324 568 -297 568 c 0x60
EndSplineSet
Validated: 1
EndChar

StartChar: dotlessi
Encoding: 305 305 233
Width: 262
Flags: W
HStem: -6 55<76.5 140.107> 380 55<97.7782 161.5>
VStem: 53 75<46 126.683> 115 75<302.317 383>
LayerCount: 2
Back
Fore
SplineSet
111 323 m 2xe0
 112 329 115 350 115 355 c 0
 115 364 115 380 105 380 c 0
 84 380 38 325 35 322 c 1
 32 322 25 335 25 341 c 1
 36 360 104 435 151 435 c 0
 172 435 190 413 190 383 c 0xd0
 190 375 187 351 183 330 c 2
 183 330 132 106 132 106 c 2
 130 96 128 79 128 74 c 0
 128 65 128 49 138 49 c 0
 159 49 205 104 208 107 c 1
 211 107 218 94 218 88 c 1
 207 69 134 -6 87 -6 c 0
 66 -6 53 16 53 46 c 0
 53 54 56 78 60 99 c 2
 60 99 111 323 111 323 c 2xe0
EndSplineSet
Validated: 1
Substitution2: "'smcp' Lowercase to Small Capitals in Latin lookup 3-1" dotlessi.sc
EndChar

StartChar: f_f
Encoding: 65536 -1 234
Width: 554
VWidth: 0
Flags: W
HStem: -233 41<-95.9001 -28.4951> -224 59<94.3928 196.199> 361 46<47.3211 103.516 189.59 359.609 445.552 564.597> 645 38<296.352 407> 661 38<531.607 630>
LayerCount: 2
Back
Fore
SplineSet
371 683 m 0xb0
 425 683 467 666 481 653 c 1
 505 676 563 699 603 699 c 0
 657 699 677 680 685 665 c 1
 685 633 678 600 649 600 c 0
 616 600 605 661 572 661 c 0
 485 661 447 438 443 413 c 0
 443 413 443 411 443 411 c 0
 443 409 444 407 446 407 c 2
 446 407 561 407 561 407 c 2
 565 407 566 400 566 395 c 27
 566 381 560 369 555 361 c 1
 555 361 438 361 438 361 c 2
 435 361 433 361 432 353 c 2
 432 353 389 106 389 106 c 0
 341 -140 190 -224 125 -224 c 0x68
 71 -224 39 -189 29 -175 c 1
 -6 -215 -53 -233 -93 -233 c 0
 -147 -233 -168 -206 -176 -191 c 1
 -176 -166 -165 -131 -136 -131 c 0
 -103 -131 -106 -192 -63 -192 c 0
 -18 -192 33 -73 44 -10 c 0
 48 12 49 21 53 46 c 0
 53 46 106 354 106 354 c 1
 106 354 106 356 106 356 c 2
 106 359 105 361 103 361 c 2
 103 361 38 361 38 361 c 2
 37 361 36 362 36 364 c 0
 36 374 61 407 84 407 c 2
 84 407 113 407 113 407 c 2
 116 407 118 412 119 416 c 0
 151 580 277 683 371 683 c 0xb0
153 -165 m 0
 230 -165 277 -102 311 60 c 0
 311 60 362 354 362 354 c 1
 362 354 362 356 362 356 c 2
 362 359 361 361 359 361 c 1
 359 361 182 361 182 361 c 2
 179 361 177 361 176 353 c 2
 176 353 121 43 121 43 c 0
 109 -19 98 -59 76 -103 c 0
 75 -104 75 -106 75 -108 c 24
 75 -111 76 -115 76 -116 c 0
 80 -136 110 -165 153 -165 c 0
350 645 m 0x30
 273 645 216 561 194 454 c 0
 190 432 191 438 187 413 c 0
 187 413 187 411 187 411 c 0
 187 409 188 407 191 407 c 2
 191 407 369 407 369 407 c 2
 372 407 374 412 375 416 c 0
 387 478 412 551 430 584 c 0
 431 585 431 587 431 589 c 24
 431 592 430 596 430 597 c 0
 426 617 393 645 350 645 c 0x30
EndSplineSet
Validated: 1
Ligature2: "'liga' Ligatures standard lookups5-1" f f
LCarets2: 1 0 
EndChar

StartChar: f_i
Encoding: 65537 -1 235
Width: 520
VWidth: 0
Flags: W
HStem: -231 39<-120.876 -28.1497> -6 55<324.5 388.107> 361 46<47.3211 104.125 189.915 352.473> 366 52<193.103 390.528> 661 38<277.677 351.811>
VStem: 301 75<21.7226 165.594>
LayerCount: 2
Back
Fore
SplineSet
431 330 m 2xdc
 431 330 380 106 380 106 c 2
 378 96 376 79 376 74 c 0
 376 65 376 49 386 49 c 0
 407 49 453 104 456 107 c 1
 459 107 466 94 466 88 c 1
 455 69 382 -6 335 -6 c 0
 314 -6 301 16 301 46 c 0
 301 54 303 78 308 99 c 2
 308 99 352 293 352 293 c 2
 353 300 355 316 355 321 c 0
 355 343 348 366 329 366 c 8xdc
 272 366 182 361 182 361 c 2
 179 361 177 361 176 353 c 2
 176 353 121 54 121 54 c 2
 87 -142 -8 -231 -95 -231 c 0
 -146 -231 -170 -207 -176 -190 c 1
 -177 -160 -159 -131 -135 -131 c 0
 -108 -131 -103 -192 -61 -192 c 0
 -6 -192 36 -42 46 15 c 2
 46 15 106 354 106 354 c 1
 106 354 106 356 106 356 c 2
 106 359 105 361 103 361 c 2
 103 361 38 361 38 361 c 2
 37 361 36 362 36 364 c 0
 36 374 61 407 84 407 c 2
 84 407 113 407 113 407 c 2
 116 407 118 412 119 416 c 0
 146 582 247 699 347 699 c 0
 401 699 418 686 433 672 c 0
 449 657 459 644 465 630 c 1
 465 602 451 566 420 566 c 27
 398 566 388 584 377 603 c 0
 363 628 348 661 311 661 c 0
 275 661 224 591 194 450 c 0
 192 438 189 426 187 413 c 0
 187 413 187 411 187 411 c 0
 187 409 188 407 190 407 c 0xec
 214 407 313 410 331 412 c 0
 352 414 423 418 425 418 c 3
 429 418 439 410 439 401 c 3
 439 396 436 351 431 330 c 2xdc
EndSplineSet
Validated: 33
Ligature2: "'liga' Ligatures standard lookups5-1" f i
LCarets2: 1 0 
EndChar

StartChar: f_f_i
Encoding: 65538 -1 236
Width: 781
VWidth: 0
Flags: W
HStem: -233 41<-95.9001 -28.4951> -224 47<92.4828 193.45> -6 55<585.5 649.107> 361 46<47.3211 103.516 189.59 359.609 445.584 613.473> 645 38<296.352 407> 661 38<531.988 612.811>
VStem: 562 75<21.7226 165.594>
LayerCount: 2
Back
Fore
SplineSet
590 366 m 0x36
 590 366 438 361 438 361 c 2
 435 361 433 361 432 353 c 2
 432 353 389 106 389 106 c 0
 341 -140 190 -224 125 -224 c 0x76
 71 -224 39 -189 29 -175 c 1
 -6 -215 -53 -233 -93 -233 c 0
 -147 -233 -168 -206 -176 -191 c 1
 -176 -166 -165 -131 -136 -131 c 0
 -103 -131 -106 -192 -63 -192 c 0
 -18 -192 33 -73 44 -10 c 0
 48 12 49 21 53 46 c 0
 53 46 106 354 106 354 c 1
 106 354 106 356 106 356 c 2
 106 359 105 361 103 361 c 2
 103 361 38 361 38 361 c 2
 37 361 36 362 36 364 c 0
 36 374 61 407 84 407 c 2
 84 407 113 407 113 407 c 2
 116 407 118 412 119 416 c 0
 151 580 277 683 371 683 c 0xba
 425 683 467 666 481 653 c 1
 505 676 569 699 608 699 c 0
 662 699 679 686 694 672 c 0
 710 657 720 644 726 630 c 1
 726 602 712 566 681 566 c 27
 659 566 649 584 638 603 c 0
 624 628 609 661 572 661 c 0
 486 661 447 438 443 413 c 0
 443 413 443 411 443 411 c 0
 443 409 444 407 446 407 c 2
 446 407 592 412 592 412 c 0
 613 414 684 418 686 418 c 3
 690 418 700 410 700 401 c 3
 700 396 697 351 692 330 c 2
 692 330 641 106 641 106 c 2
 639 96 637 79 637 74 c 0
 637 65 637 49 647 49 c 0
 668 49 714 104 717 107 c 1
 720 107 727 94 727 88 c 1
 716 69 643 -6 596 -6 c 0
 575 -6 562 16 562 46 c 0
 562 54 564 78 569 99 c 2
 569 99 613 293 613 293 c 2
 614 300 616 316 616 321 c 0
 616 343 609 366 590 366 c 0x36
76 -116 m 0
 80 -136 93 -177 136 -177 c 0
 194 -177 277 -102 311 60 c 0
 311 60 362 354 362 354 c 1
 362 354 362 356 362 356 c 2
 362 359 361 361 359 361 c 1
 359 361 182 361 182 361 c 2
 179 361 177 361 176 353 c 2
 176 353 121 43 121 43 c 0
 109 -19 98 -59 76 -103 c 0
 75 -104 75 -106 75 -108 c 24
 75 -111 76 -115 76 -116 c 0
350 645 m 0x3a
 273 645 216 561 194 454 c 0
 190 432 191 438 187 413 c 0
 187 413 187 411 187 411 c 0
 187 409 188 407 191 407 c 2
 191 407 369 407 369 407 c 2
 372 407 374 412 375 416 c 0
 387 478 412 551 430 584 c 0
 431 585 431 587 431 589 c 24
 431 592 430 596 430 597 c 0
 426 617 393 645 350 645 c 0x3a
EndSplineSet
Validated: 1
Ligature2: "'liga' Ligatures standard lookups5-1" f f i
LCarets2: 2 0 0 
EndChar

StartChar: f_l
Encoding: 65539 -1 237
Width: 530
VWidth: 0
Flags: W
HStem: -231 39<-120.876 -28.1497> -6 55<344 408.107> 361 46<47.3211 104.125 189.684 308.597> 661 38<281.135 391.012> 674 20G<515 522.5>
VStem: 321 75<21.7226 176.133>
LayerCount: 2
Back
Fore
SplineSet
495 591 m 2xec
 495 591 400 106 400 106 c 2
 399 102 396 79 396 74 c 0
 396 65 396 49 406 49 c 0
 427 49 473 104 476 107 c 1
 479 107 486 94 486 88 c 1
 475 69 402 -6 355 -6 c 0
 333 -6 321 16 321 46 c 0
 321 54 324 78 328 99 c 2
 328 99 418 559 418 559 c 2
 419 563 422 585 422 589 c 3
 422 632 376 661 329 661 c 0
 263 661 215 579 187 413 c 0
 187 413 187 411 187 411 c 0
 187 409 189 407 190 407 c 2
 190 407 305 407 305 407 c 2
 309 407 310 400 310 395 c 27
 310 381 304 369 299 361 c 1
 299 361 182 361 182 361 c 2
 180 361 177 361 176 353 c 2
 176 353 121 54 121 54 c 2
 87 -142 -8 -231 -95 -231 c 0
 -146 -231 -170 -207 -176 -190 c 1
 -177 -160 -159 -131 -135 -131 c 0
 -108 -131 -103 -192 -61 -192 c 0
 -6 -192 36 -42 46 15 c 2
 46 15 106 354 106 354 c 1
 106 354 106 356 106 356 c 2
 106 359 105 361 103 361 c 2
 103 361 38 361 38 361 c 2
 37 361 36 362 36 364 c 0
 36 374 61 407 84 407 c 2
 84 407 113 407 113 407 c 2
 116 407 118 412 119 416 c 0
 146 582 247 699 347 699 c 0xf4
 401 699 430 678 442 678 c 0
 464 678 510 694 520 694 c 1
 525 694 525 682 525 678 c 9
 525 678 506 646 495 591 c 2xec
EndSplineSet
Validated: 33
Ligature2: "'liga' Ligatures standard lookups5-1" f l
LCarets2: 1 0 
EndChar

StartChar: f_f_l
Encoding: 65540 -1 238
Width: 791
VWidth: 0
Flags: W
HStem: -233 41<-95.9001 -28.4951> -224 47<92.4828 193.527> -6 55<605 669.107> 361 46<47.3211 103.516 189.59 359.609 450.684 569.597> 645 38<296.352 407> 661 38<541.186 652.012> 674 20G<776 783.5>
VStem: 582 75<21.7226 176.133>
LayerCount: 2
Back
Fore
SplineSet
683 589 m 3x33
 683 632 637 661 590 661 c 0
 524 661 476 579 448 413 c 0
 448 413 448 411 448 411 c 0
 448 409 450 407 451 407 c 2
 451 407 566 407 566 407 c 2
 570 407 571 400 571 395 c 27
 571 381 565 369 560 361 c 1
 560 361 443 361 443 361 c 2
 441 361 439 361 437 353 c 2
 437 353 389 106 389 106 c 2
 342 -140 190 -224 125 -224 c 0x75
 71 -224 39 -189 29 -175 c 1
 -6 -215 -53 -233 -93 -233 c 0
 -147 -233 -168 -206 -176 -191 c 1
 -176 -166 -165 -131 -136 -131 c 0
 -103 -131 -106 -192 -63 -192 c 0
 -18 -192 33 -73 44 -10 c 0
 48 12 49 21 53 46 c 0
 53 46 106 354 106 354 c 1
 106 354 106 356 106 356 c 2
 106 359 105 361 103 361 c 2
 103 361 38 361 38 361 c 2
 37 361 36 362 36 364 c 0
 36 374 61 407 84 407 c 2
 84 407 113 407 113 407 c 2
 116 407 118 412 119 416 c 0
 151 580 277 683 371 683 c 0xb9
 425 683 467 666 481 653 c 1
 505 676 569 699 608 699 c 0x35
 662 699 691 678 703 678 c 0
 725 678 771 694 781 694 c 1
 786 694 786 682 786 678 c 9
 786 678 767 646 756 591 c 2
 756 591 661 106 661 106 c 2
 660 102 657 79 657 74 c 0
 657 65 657 49 667 49 c 0
 688 49 734 104 737 107 c 1
 740 107 747 94 747 88 c 1
 736 69 663 -6 616 -6 c 0
 594 -6 582 16 582 46 c 0
 582 54 585 78 589 99 c 2
 589 99 679 559 679 559 c 2
 680 563 683 585 683 589 c 3x33
136 -177 m 0
 194 -177 277 -102 311 60 c 0
 311 60 362 354 362 354 c 1
 362 354 362 356 362 356 c 2
 362 359 361 361 359 361 c 1
 359 361 182 361 182 361 c 2
 179 361 177 361 176 353 c 2
 176 353 121 43 121 43 c 0
 109 -19 98 -59 76 -103 c 0
 75 -104 75 -106 75 -108 c 24
 75 -111 76 -115 76 -116 c 0
 80 -136 93 -177 136 -177 c 0
350 645 m 0x39
 273 645 216 561 194 454 c 0
 190 432 191 438 187 413 c 0
 187 413 187 411 187 411 c 0
 187 409 188 407 191 407 c 2
 191 407 369 407 369 407 c 2
 372 407 374 412 375 416 c 0
 387 478 412 551 430 584 c 0
 431 585 431 587 431 589 c 24
 431 592 430 596 430 597 c 0
 426 617 393 645 350 645 c 0x39
EndSplineSet
Validated: 1
Ligature2: "'liga' Ligatures standard lookups5-1" f f l
LCarets2: 2 0 0 
EndChar

StartChar: f_b
Encoding: 65541 -1 239
Width: 723
VWidth: 0
Flags: W
HStem: -231 39<-120.876 -28.1497> -6 33<414.543 487.431> 361 46<47.3211 104.125 189.684 308.597> 380 55<546.084 628> 661 38<281.135 390.535> 674 20G<510 517.5>
VStem: 601 74<202.265 374.918>
LayerCount: 2
Back
Fore
SplineSet
562 380 m 0xd2
 519 380 426 266 405 156 c 0
 389 75 404 27 451 27 c 0
 535 27 601 221 601 302 c 0
 601 339 597 380 562 380 c 0xd2
415 559 m 2
 416 564 420 585 420 589 c 0
 420 632 376 661 329 661 c 0
 263 661 215 579 187 413 c 0
 187 413 187 411 187 411 c 0
 187 409 189 407 190 407 c 2
 190 407 305 407 305 407 c 2
 309 407 310 400 310 395 c 27
 310 381 304 369 299 361 c 1
 299 361 182 361 182 361 c 2
 180 361 177 361 176 353 c 2
 176 353 121 54 121 54 c 2
 87 -142 -8 -231 -95 -231 c 0
 -146 -231 -170 -207 -176 -190 c 1
 -177 -160 -159 -131 -135 -131 c 0
 -108 -131 -103 -192 -61 -192 c 0
 -6 -192 36 -42 46 15 c 2
 46 15 106 354 106 354 c 1
 106 354 106 356 106 356 c 2
 106 359 105 361 103 361 c 2
 103 361 38 361 38 361 c 2
 37 361 36 362 36 364 c 0
 36 374 61 407 84 407 c 2
 84 407 113 407 113 407 c 2
 116 407 118 412 119 416 c 0
 146 582 247 699 347 699 c 0xea
 401 699 430 678 442 678 c 0
 464 678 505 694 515 694 c 1xc6
 520 694 520 682 520 678 c 9
 520 678 503 645 492 591 c 2
 492 591 430 285 430 285 c 1
 500 402 573 435 605 435 c 0
 651 435 675 391 675 322 c 0
 675 142 530 -6 423 -6 c 0
 367 -6 330 37 330 111 c 0
 330 121 334 146 336 158 c 2
 336 158 415 559 415 559 c 2
EndSplineSet
Validated: 33
Ligature2: "'liga' Ligatures standard lookups5-1" f b
LCarets2: 1 0 
EndChar

StartChar: f_f_b
Encoding: 65542 -1 240
Width: 985
VWidth: 0
Flags: W
HStem: -233 41<-95.9001 -28.4951> -224 47<92.4828 193.527> -6 33<674.543 747.431> 361 46<47.3211 103.516 189.59 359.609 450.684 569.597> 380 55<806.084 888> 645 38<296.352 407> 661 38<541.186 651.354> 674 20G<771 778.5>
VStem: 861 74<202.265 374.918>
LayerCount: 2
Back
Fore
SplineSet
822 380 m 0x2880
 779 380 686 266 665 156 c 0
 649 75 664 27 711 27 c 0
 795 27 861 221 861 302 c 0
 861 339 857 380 822 380 c 0x2880
681 589 m 0
 680 632 637 661 590 661 c 0
 524 661 476 579 448 413 c 0
 448 413 448 411 448 411 c 0
 448 409 450 407 451 407 c 2
 451 407 566 407 566 407 c 2
 570 407 571 400 571 395 c 27
 571 381 565 369 560 361 c 1
 560 361 443 361 443 361 c 2
 441 361 439 361 437 353 c 2
 437 353 389 106 389 106 c 2
 342 -140 190 -224 125 -224 c 0x7280
 71 -224 39 -189 29 -175 c 1
 -6 -215 -53 -233 -93 -233 c 0
 -147 -233 -168 -206 -176 -191 c 1
 -176 -166 -165 -131 -136 -131 c 0
 -103 -131 -106 -192 -63 -192 c 0
 -18 -192 33 -73 44 -10 c 0
 48 12 49 21 53 46 c 0
 53 46 106 354 106 354 c 1
 106 354 106 356 106 356 c 2
 106 359 105 361 103 361 c 2
 103 361 38 361 38 361 c 2
 37 361 36 362 36 364 c 0
 36 374 61 407 84 407 c 2
 84 407 113 407 113 407 c 2
 116 407 118 412 119 416 c 0
 151 580 277 683 371 683 c 0xb480
 425 683 467 666 481 653 c 1
 505 676 569 699 608 699 c 0x2280
 662 699 691 678 703 678 c 0
 725 678 766 694 776 694 c 1x2180
 781 694 781 682 781 678 c 9
 781 678 763 646 752 591 c 2
 752 591 690 285 690 285 c 1
 760 402 833 435 865 435 c 0
 911 435 935 391 935 322 c 0
 935 142 790 -6 683 -6 c 0
 627 -6 590 37 590 111 c 0
 590 121 594 146 596 158 c 2
 596 158 675 559 675 559 c 2
 676 564 680 585 681 589 c 0
136 -177 m 0
 194 -177 277 -102 311 60 c 0
 311 60 362 354 362 354 c 1
 362 354 362 356 362 356 c 2
 362 359 361 361 359 361 c 1
 359 361 182 361 182 361 c 2
 179 361 177 361 176 353 c 2
 176 353 121 43 121 43 c 0
 109 -19 98 -59 76 -103 c 0
 75 -104 75 -106 75 -108 c 24
 75 -111 76 -115 76 -116 c 0
 80 -136 93 -177 136 -177 c 0
350 645 m 0x3480
 273 645 216 561 194 454 c 0
 190 432 191 438 187 413 c 0
 187 413 187 411 187 411 c 0
 187 409 188 407 191 407 c 2
 191 407 369 407 369 407 c 2
 372 407 374 412 375 416 c 0
 387 478 412 551 430 584 c 0
 431 585 431 587 431 589 c 24
 431 592 430 596 430 597 c 0
 426 617 393 645 350 645 c 0x3480
EndSplineSet
Validated: 33
Ligature2: "'liga' Ligatures standard lookups5-1" f f b
LCarets2: 2 0 0 
EndChar

StartChar: f_k
Encoding: 65543 -1 241
Width: 743
VWidth: 0
Flags: W
HStem: -231 39<-120.876 -28.1497> -4 55<581.109 640.184> 361 46<47.3211 104.125 189.684 308.597> 388 47<542.169 631.5> 661 38<281.135 391.012> 674 20G<515 522.5>
VStem: 609 78<300.053 386.608>
LayerCount: 2
Back
Fore
SplineSet
576 388 m 0xd2
 518 388 437 291 425 230 c 1
 492 230 609 271 609 354 c 0
 609 372 604 388 576 388 c 0xd2
418 559 m 2
 419 564 422 585 422 589 c 0
 422 632 376 661 329 661 c 0
 263 661 215 579 187 413 c 0
 187 413 187 411 187 411 c 0
 187 409 189 407 190 407 c 2
 190 407 305 407 305 407 c 2
 309 407 310 400 310 395 c 27
 310 381 304 369 299 361 c 1
 299 361 182 361 182 361 c 2
 180 361 177 361 176 353 c 2
 176 353 121 54 121 54 c 2
 87 -142 -8 -231 -95 -231 c 0
 -146 -231 -170 -207 -176 -190 c 1
 -177 -160 -159 -131 -135 -131 c 0
 -108 -131 -103 -192 -61 -192 c 0
 -6 -192 36 -42 46 15 c 2
 46 15 106 354 106 354 c 1
 106 354 106 356 106 356 c 2
 106 359 105 361 103 361 c 2
 103 361 38 361 38 361 c 2
 37 361 36 362 36 364 c 0
 36 374 61 407 84 407 c 2
 84 407 113 407 113 407 c 2
 116 407 118 412 119 416 c 0
 146 582 247 699 347 699 c 0xea
 401 699 430 678 442 678 c 0
 464 678 510 694 520 694 c 1xc6
 525 694 525 682 525 678 c 9
 525 678 506 646 495 591 c 2
 495 591 443 322 443 322 c 1
 448 326 526 435 612 435 c 0
 651 435 687 406 687 367 c 0
 687 276 587 230 476 211 c 1
 564 79 592 51 633 51 c 0
 650 51 690 93 701 107 c 1
 704 107 711 93 711 88 c 1
 703 74 633 -4 589 -4 c 0
 510 -4 460 119 417 191 c 1
 417 191 380 0 380 0 c 1
 369 -3 356 -5 345 -5 c 0
 334 -5 321 -3 309 0 c 1
 309 0 418 559 418 559 c 2
EndSplineSet
Validated: 33
Ligature2: "'liga' Ligatures standard lookups5-1" f k
LCarets2: 1 0 
EndChar

StartChar: f_f_k
Encoding: 65544 -1 242
Width: 1004
VWidth: 0
Flags: W
HStem: -233 41<-95.9001 -28.4951> -224 47<92.4828 193.527> -4 55<842.109 901.184> 361 46<47.3211 103.516 189.59 359.609 450.684 569.597> 388 47<803.169 892.5> 645 38<296.352 407> 661 38<541.186 652.012> 674 20G<776 783.5>
VStem: 870 78<300.053 386.608>
LayerCount: 2
Back
Fore
SplineSet
837 388 m 0x2880
 779 388 698 291 686 230 c 1
 753 230 870 271 870 354 c 0
 870 372 865 388 837 388 c 0x2880
703 678 m 0
 725 678 771 694 781 694 c 1
 786 694 786 682 786 678 c 9
 786 678 767 646 756 591 c 2
 756 591 704 322 704 322 c 1
 709 326 787 435 873 435 c 0x2980
 912 435 948 406 948 367 c 0
 948 276 848 230 737 211 c 1
 825 79 853 51 894 51 c 0
 911 51 951 93 962 107 c 1
 965 107 972 93 972 88 c 1
 964 74 894 -4 850 -4 c 0
 771 -4 721 119 678 191 c 1
 678 191 641 0 641 0 c 1
 630 -3 617 -5 606 -5 c 0
 595 -5 582 -3 570 0 c 1
 570 0 679 559 679 559 c 2
 680 564 683 585 683 589 c 0
 683 632 637 661 590 661 c 0
 524 661 476 579 448 413 c 0
 448 413 448 411 448 411 c 0
 448 409 450 407 451 407 c 2
 451 407 566 407 566 407 c 2
 570 407 571 400 571 395 c 27
 571 381 565 369 560 361 c 1
 560 361 443 361 443 361 c 2
 441 361 439 361 437 353 c 2
 437 353 389 106 389 106 c 2
 342 -140 190 -224 125 -224 c 0x7280
 71 -224 39 -189 29 -175 c 1
 -6 -215 -53 -233 -93 -233 c 0
 -147 -233 -168 -206 -176 -191 c 1
 -176 -166 -165 -131 -136 -131 c 0
 -103 -131 -106 -192 -63 -192 c 0
 -18 -192 33 -73 44 -10 c 0
 48 12 49 21 53 46 c 0
 53 46 106 354 106 354 c 1
 106 354 106 356 106 356 c 2
 106 359 105 361 103 361 c 2
 103 361 38 361 38 361 c 2
 37 361 36 362 36 364 c 0
 36 374 61 407 84 407 c 2
 84 407 113 407 113 407 c 2
 116 407 118 412 119 416 c 0
 151 580 277 683 371 683 c 0xb480
 425 683 467 666 481 653 c 1
 505 676 569 699 608 699 c 0x2280
 662 699 691 678 703 678 c 0
136 -177 m 0x7080
 194 -177 277 -102 311 60 c 0
 311 60 362 354 362 354 c 1
 362 354 362 356 362 356 c 2
 362 359 361 361 359 361 c 1
 359 361 182 361 182 361 c 2
 179 361 177 361 176 353 c 2
 176 353 121 43 121 43 c 0
 109 -19 98 -59 76 -103 c 0
 75 -104 75 -106 75 -108 c 24
 75 -111 76 -115 76 -116 c 0
 80 -136 93 -177 136 -177 c 0x7080
350 645 m 0x3480
 273 645 216 561 194 454 c 0
 190 432 191 438 187 413 c 0
 187 413 187 411 187 411 c 0
 187 409 188 407 191 407 c 2
 191 407 369 407 369 407 c 2
 372 407 374 412 375 416 c 0
 387 478 412 551 430 584 c 0
 431 585 431 587 431 589 c 24
 431 592 430 596 430 597 c 0
 426 617 393 645 350 645 c 0x3480
EndSplineSet
Validated: 1
Ligature2: "'liga' Ligatures standard lookups5-1" f f k
LCarets2: 2 0 0 
EndChar

StartChar: f_h
Encoding: 65545 -1 243
Width: 752
VWidth: 0
Flags: W
HStem: -231 39<-120.876 -28.1497> -6 55<577 641.107> 361 74<574.866 632.947> 361 46<47.3211 104.125 189.684 308.597> 661 38<281.135 391.012> 674 20G<516 523.5>
VStem: 554 75<21.7226 171.078> 603 77<222.125 388>
LayerCount: 2
Back
Fore
SplineSet
418 559 m 2xe5
 419 564 422 585 422 589 c 3
 422 632 376 661 329 661 c 0
 263 661 215 579 187 413 c 0
 187 413 187 411 187 411 c 0
 187 409 189 407 190 407 c 2
 190 407 305 407 305 407 c 2
 309 407 310 400 310 395 c 27
 310 381 304 369 299 361 c 1
 299 361 182 361 182 361 c 2
 180 361 177 361 176 353 c 2
 176 353 121 54 121 54 c 2
 87 -142 -8 -231 -95 -231 c 0
 -146 -231 -170 -207 -176 -190 c 1
 -177 -160 -159 -131 -135 -131 c 0
 -108 -131 -103 -192 -61 -192 c 0
 -6 -192 36 -42 46 15 c 2
 46 15 106 354 106 354 c 1
 106 354 106 356 106 356 c 2
 106 359 105 361 103 361 c 2
 103 361 38 361 38 361 c 2
 37 361 36 362 36 364 c 0
 36 374 61 407 84 407 c 2
 84 407 113 407 113 407 c 2
 116 407 118 412 119 416 c 0
 146 582 247 699 347 699 c 0xd9
 401 699 430 678 442 678 c 0
 464 678 511 694 521 694 c 1
 526 694 526 682 526 678 c 9
 526 678 506 646 495 591 c 2
 495 591 444 330 444 330 c 1
 444 330 426 238 426 238 c 1
 439 263 559 435 625 435 c 0
 664 435 680 407 680 369 c 0xe5
 680 335 674 298 666 260 c 2
 666 260 633 106 633 106 c 2
 632 102 629 79 629 74 c 0
 629 65 629 49 639 49 c 0
 660 49 706 104 709 107 c 1
 712 107 719 94 719 88 c 1
 708 69 635 -6 588 -6 c 0
 566 -6 554 16 554 46 c 0xe6
 554 54 556 78 561 99 c 2
 561 99 596 264 596 264 c 2
 598 273 603 307 603 318 c 0
 603 341 601 361 584 361 c 0
 548 361 428 236 405 119 c 0
 399 88 390 46 380 0 c 1
 370 -3 354 -4 344 -4 c 0
 334 -4 322 -3 310 0 c 1
 310 0 418 559 418 559 c 2xe5
EndSplineSet
Validated: 33
Ligature2: "'liga' Ligatures standard lookups5-1" f h
LCarets2: 1 0 
EndChar

StartChar: f_f_h
Encoding: 65546 -1 244
Width: 1013
VWidth: 0
Flags: W
HStem: -233 41<-95.9001 -28.4951> -224 47<92.4828 193.527> -6 55<838 902.107> 361 74<835.866 893.947> 361 46<47.3211 103.516 189.59 359.609 450.684 569.597> 645 38<296.352 407> 661 38<541.186 652.012> 674 20G<777 784.5>
VStem: 815 75<21.7226 171.078> 864 77<222.125 388>
LayerCount: 2
Back
Fore
SplineSet
703 678 m 0x2240
 725 678 772 694 782 694 c 1
 787 694 787 682 787 678 c 9
 787 678 767 646 756 591 c 2
 756 591 705 330 705 330 c 1
 705 330 687 238 687 238 c 1
 700 263 820 435 886 435 c 0
 925 435 941 407 941 369 c 0x3140
 941 335 935 298 927 260 c 2
 927 260 894 106 894 106 c 2
 893 102 890 79 890 74 c 0
 890 65 890 49 900 49 c 0
 921 49 967 104 970 107 c 1
 973 107 980 94 980 88 c 1
 969 69 896 -6 849 -6 c 0
 827 -6 815 16 815 46 c 0x3180
 815 54 817 78 822 99 c 2
 822 99 857 264 857 264 c 2
 859 273 864 307 864 318 c 0
 864 341 862 361 845 361 c 0x3140
 809 361 689 236 666 119 c 0
 660 88 651 46 641 0 c 1
 631 -3 615 -4 605 -4 c 0
 595 -4 583 -3 571 0 c 1
 571 0 679 559 679 559 c 2
 680 564 683 585 683 589 c 3
 683 632 637 661 590 661 c 0
 524 661 476 579 448 413 c 0
 448 413 448 411 448 411 c 0
 448 409 450 407 451 407 c 2
 451 407 566 407 566 407 c 2
 570 407 571 400 571 395 c 27
 571 381 565 369 560 361 c 1
 560 361 443 361 443 361 c 2
 441 361 439 361 437 353 c 2
 437 353 389 106 389 106 c 2
 342 -140 190 -224 125 -224 c 0x6a40
 71 -224 39 -189 29 -175 c 1
 -6 -215 -53 -233 -93 -233 c 0
 -147 -233 -168 -206 -176 -191 c 1
 -176 -166 -165 -131 -136 -131 c 0
 -103 -131 -106 -192 -63 -192 c 0
 -18 -192 33 -73 44 -10 c 0
 48 12 49 21 53 46 c 0
 53 46 106 354 106 354 c 1
 106 354 106 356 106 356 c 2
 106 359 105 361 103 361 c 2
 103 361 38 361 38 361 c 2
 37 361 36 362 36 364 c 0
 36 374 61 407 84 407 c 2
 84 407 113 407 113 407 c 2
 116 407 118 412 119 416 c 0
 151 580 277 683 371 683 c 0xac40
 425 683 467 666 481 653 c 1
 505 676 569 699 608 699 c 0
 662 699 691 678 703 678 c 0x2240
136 -177 m 0x68
 194 -177 277 -102 311 60 c 0
 311 60 362 354 362 354 c 1
 362 354 362 356 362 356 c 2
 362 359 361 361 359 361 c 1
 359 361 182 361 182 361 c 2
 179 361 177 361 176 353 c 2
 176 353 121 43 121 43 c 0
 109 -19 98 -59 76 -103 c 0
 75 -104 75 -106 75 -108 c 24
 75 -111 76 -115 76 -116 c 0
 80 -136 93 -177 136 -177 c 0x68
350 645 m 0x2c
 273 645 216 561 194 454 c 0
 190 432 191 438 187 413 c 0
 187 413 187 411 187 411 c 0
 187 409 188 407 191 407 c 2
 191 407 369 407 369 407 c 2
 372 407 374 412 375 416 c 0
 387 478 412 551 430 584 c 0
 431 585 431 587 431 589 c 24
 431 592 430 596 430 597 c 0
 426 617 393 645 350 645 c 0x2c
EndSplineSet
Validated: 1
Ligature2: "'liga' Ligatures standard lookups5-1" f f h
LCarets2: 2 0 0 
EndChar

StartChar: f_j
Encoding: 65547 -1 245
Width: 483
VWidth: 0
Flags: W
HStem: -231 39<-120.876 -28.1497> 361 46<47.3211 104.125 189.709 352.473> 366 52<193.103 394.894> 661 38<277.24 351.811>
VStem: 355 84<263.281 408.113>
LayerCount: 2
Back
Fore
SplineSet
430 330 m 0xb8
 430 330 375 45 375 45 c 2
 368 9 347 -67 304 -124 c 0
 262 -179 200 -221 165 -235 c 1
 161 -232 156 -222 156 -215 c 1
 223 -177 276 -89 298 22 c 2
 298 22 352 293 352 293 c 2
 354 301 355 316 355 321 c 0
 355 343 348 366 329 366 c 8xb8
 272 366 182 361 182 361 c 2
 179 361 177 361 176 353 c 2
 176 353 121 54 121 54 c 2
 87 -142 -8 -231 -95 -231 c 0
 -146 -231 -170 -207 -176 -190 c 1
 -177 -160 -159 -131 -135 -131 c 0
 -108 -131 -103 -192 -61 -192 c 0
 -6 -192 36 -42 46 15 c 2
 46 15 106 354 106 354 c 1
 106 354 106 356 106 356 c 2
 106 359 105 361 103 361 c 2
 103 361 38 361 38 361 c 2
 37 361 36 362 36 364 c 0
 36 374 61 407 84 407 c 2
 84 407 113 407 113 407 c 2
 116 407 118 412 119 416 c 0
 146 582 247 699 347 699 c 0
 401 699 418 686 433 672 c 0
 449 657 459 644 465 630 c 1
 465 602 451 566 420 566 c 27
 398 566 388 584 377 603 c 0
 363 628 348 661 311 661 c 0
 272 661 215 579 187 413 c 0
 187 413 187 411 187 411 c 0
 187 409 188 407 190 407 c 0xd8
 214 407 313 410 331 412 c 0
 352 414 423 418 425 418 c 3
 429 418 439 410 439 401 c 3
 439 396 433 351 430 330 c 0xb8
EndSplineSet
Validated: 33
Ligature2: "'liga' Ligatures standard lookups5-1" f j
LCarets2: 1 0 
EndChar

StartChar: f_f_j
Encoding: 65548 -1 246
Width: 743
VWidth: 0
Flags: W
HStem: -233 41<-95.9001 -28.4951> -224 47<92.4828 193.45> 361 46<47.3211 103.516 189.59 359.609 445.584 613.473> 645 38<296.352 407> 661 38<531.988 612.811>
VStem: 616 84<263.281 408.113>
LayerCount: 2
Back
Fore
SplineSet
686 418 m 3x2c
 690 418 700 410 700 401 c 3
 700 396 694 351 691 330 c 0
 691 330 636 45 636 45 c 2
 629 9 608 -67 565 -124 c 0
 523 -179 461 -221 426 -235 c 1
 422 -232 417 -222 417 -215 c 1
 484 -177 537 -89 559 22 c 2
 559 22 613 293 613 293 c 2
 615 301 616 316 616 321 c 0
 616 343 609 366 590 366 c 0
 581 366 438 361 438 361 c 0
 435 361 433 361 432 353 c 2
 432 353 389 106 389 106 c 0
 341 -140 190 -224 125 -224 c 0x6c
 71 -224 39 -189 29 -175 c 1
 -6 -215 -53 -233 -93 -233 c 0
 -147 -233 -168 -206 -176 -191 c 1
 -176 -166 -165 -131 -136 -131 c 0
 -103 -131 -106 -192 -63 -192 c 0
 -18 -192 33 -73 44 -10 c 0
 48 12 49 21 53 46 c 0
 53 46 106 354 106 354 c 1
 106 354 106 356 106 356 c 2
 106 359 105 361 103 361 c 2
 103 361 38 361 38 361 c 2
 37 361 36 362 36 364 c 0
 36 374 61 407 84 407 c 2
 84 407 113 407 113 407 c 2
 116 407 118 412 119 416 c 0
 151 580 277 683 371 683 c 0xb4
 425 683 467 666 481 653 c 1
 505 676 569 699 608 699 c 0
 662 699 679 686 694 672 c 0
 710 657 720 644 726 630 c 1
 726 602 712 566 681 566 c 27
 659 566 649 584 638 603 c 0
 624 628 609 661 572 661 c 0
 486 661 447 438 443 413 c 0
 443 413 443 411 443 411 c 0
 443 409 444 407 446 407 c 0
 472 407 574 410 592 412 c 0
 613 414 684 418 686 418 c 3x2c
76 -116 m 0
 80 -136 93 -177 136 -177 c 0
 194 -177 277 -102 311 60 c 0
 311 60 362 354 362 354 c 1
 362 354 362 356 362 356 c 2
 362 359 361 361 359 361 c 1
 359 361 182 361 182 361 c 2
 179 361 177 361 176 353 c 2
 176 353 121 43 121 43 c 0
 109 -19 98 -59 76 -103 c 0
 75 -104 75 -106 75 -108 c 24
 75 -111 76 -115 76 -116 c 0
350 645 m 0x34
 273 645 216 561 194 454 c 0
 190 432 191 438 187 413 c 0
 187 413 187 411 187 411 c 0
 187 409 188 407 191 407 c 2
 191 407 369 407 369 407 c 2
 372 407 374 412 375 416 c 0
 387 478 412 551 430 584 c 0
 431 585 431 587 431 589 c 24
 431 592 430 596 430 597 c 0
 426 617 393 645 350 645 c 0x34
EndSplineSet
Validated: 1
Ligature2: "'liga' Ligatures standard lookups5-1" f f j
LCarets2: 2 0 0 
EndChar

StartChar: T_h
Encoding: 65549 -1 247
Width: 983
VWidth: 0
Flags: W
HStem: -6 55<802 866.107> 2 22<131.898 185.571> 361 74<799.866 869.5> 615 45<129.087 310.003 403.06 629.794> 674 20G<739.5 747.5>
VStem: 59 30<521.522 551.296> 131 166<3.5 63.5> 779 75<21.7226 171.078> 828 77<222.125 388>
LayerCount: 2
Back
Fore
SplineSet
638 530 m 2xbe80
 639 536 640 539 640 543 c 0
 640 614 630 615 512 615 c 0
 453 615 411 610 406 600 c 0
 393 572 386 540 378 500 c 2
 378 500 308 139 308 139 c 2
 301 104 297 78 297 49 c 0xbe80
 297 30 351 24 351 24 c 2
 352 24 353 22 353 20 c 0
 353 14 349 1 347 -3 c 1
 310 -1 284 2 243 2 c 0
 200 2 176 -1 133 -3 c 1
 132 -2 131 2 131 5 c 0
 131 13 134 24 138 24 c 0
 149 24 196 33 202 46 c 0
 214 74 221 104 228 142 c 2
 228 142 297 497 297 497 c 2
 304 534 310 563 310 594 c 0
 310 604 314 615 211 615 c 0
 139 615 122 599 89 526 c 0
 87 522 84 521 79 521 c 0
 71 521 62 525 59 528 c 1
 59 528 103 671 103 671 c 1
 117 667 153 660 166 660 c 0
 249 659 293 654 368 654 c 0
 443 654 484 658 556 660 c 0
 646 662 734 694 745 694 c 1
 750 694 750 682 750 678 c 9
 750 678 731 646 720 591 c 2
 720 591 669 330 669 330 c 1
 669 330 651 238 651 238 c 1
 664 263 784 435 850 435 c 0
 889 435 905 407 905 369 c 0x7e80
 905 335 899 298 891 260 c 2
 891 260 858 106 858 106 c 2
 857 102 854 79 854 74 c 0
 854 65 854 49 864 49 c 0
 885 49 931 104 934 107 c 1
 937 107 944 94 944 88 c 1
 933 69 860 -6 813 -6 c 0
 791 -6 779 16 779 46 c 0xbf
 779 54 781 78 786 99 c 2
 786 99 821 264 821 264 c 2
 823 273 828 307 828 318 c 0
 828 341 826 361 809 361 c 0
 773 361 653 236 630 119 c 0
 624 88 615 46 605 0 c 1
 595 -3 579 -4 569 -4 c 0
 559 -4 547 -3 535 0 c 1
 535 0 638 530 638 530 c 2xbe80
EndSplineSet
Validated: 33
Ligature2: "'liga' Ligatures standard lookups5-1" T h
LCarets2: 1 0 
EndChar

StartChar: uni0304
Encoding: 772 772 261
Width: 0
VWidth: 957
GlyphClass: 4
Flags: W
HStem: 490 39<-367 -148.604>
VStem: -370 223<490.428 529>
LayerCount: 2
Back
Fore
SplineSet
-157 490 m 1
 -367 490 l 1
 -367 490 -370 493 -370 499 c 0
 -370 506 -363 529 -358 529 c 2
 -152 529 l 2
 -150 529 -147 526 -147 522 c 0
 -147 517 -149 499 -157 490 c 1
EndSplineSet
Validated: 1
EndChar

StartChar: uni0305
Encoding: 773 773 262
Width: 0
GlyphClass: 4
Flags: W
HStem: 739 63<138.047 672>
LayerCount: 2
Back
Fore
SplineSet
129 749 m 0
 129 751 142 802 152 802 c 2
 694 802 l 2
 696 802 699 801 697 793 c 0
 694 775 683 750 681 746 c 0
 678 740 672 739 672 739 c 1
 133 739 l 1
 133 739 127 739 129 749 c 0
EndSplineSet
Validated: 1
EndChar

StartChar: uni0306
Encoding: 774 774 263
Width: 0
VWidth: 994
GlyphClass: 4
Flags: W
HStem: 490 46<-294.324 -192.717>
VStem: -335 23<567.811 605.105> -150 18<590.732 607.038>
LayerCount: 2
Back
Fore
SplineSet
-132 600 m 1
 -132 597 -133 592 -134 590 c 0
 -153 537 -204 490 -254 490 c 0
 -304 490 -338 534 -335 591 c 0
 -335 593 -334 598 -334 599 c 1
 -331 604 -319 613 -312 608 c 1
 -311 565 -284 536 -245 536 c 0
 -206 536 -168 565 -150 608 c 1
 -146 612 -134 606 -132 600 c 1
EndSplineSet
Validated: 33
EndChar

StartChar: uni0307
Encoding: 775 775 264
Width: 0
VWidth: 1019
GlyphClass: 4
Flags: W
HStem: 490 100<-284.623 -218.061>
VStem: -298 93<502.854 576.333>
LayerCount: 2
Back
Fore
SplineSet
-298 540 m 0
 -293 568 -267 590 -241 590 c 0
 -215 590 -200 568 -205 540 c 0
 -210 512 -235 490 -261 490 c 0
 -287 490 -303 512 -298 540 c 0
EndSplineSet
Validated: 33
EndChar

StartChar: uni0308
Encoding: 776 776 265
Width: 0
VWidth: 1043
GlyphClass: 4
Flags: W
HStem: 490 92<-370.253 -306.079 -200.253 -136.079>
VStem: -382 87<500.924 569.908> -212 87<500.924 569.455>
LayerCount: 2
Back
Fore
SplineSet
-158 582 m 27
 -135 582 -120 560 -125 535 c 24
 -130 510 -154 490 -177 490 c 27
 -200 490 -217 511 -212 536 c 24
 -207 561 -181 582 -158 582 c 27
-329 582 m 27
 -306 582 -290 560 -295 535 c 24
 -300 510 -324 490 -347 490 c 27
 -370 490 -387 511 -382 536 c 24
 -377 561 -352 582 -329 582 c 27
EndSplineSet
Validated: 33
EndChar

StartChar: hookabovecomb
Encoding: 777 777 266
Width: 0
GlyphClass: 4
Flags: W
HStem: 487 58<-308.433 -278.172> 607 35<-306.016 -243.858>
VStem: -310 32<491.611 527.486> -241 45<551.189 604.214>
LayerCount: 2
Back
Fore
SplineSet
-278 607 m 0
 -297 607 -314 596 -318 590 c 1
 -321 591 -324 596 -324 601 c 0
 -324 617 -288 642 -259 642 c 0
 -222 642 -196 621 -196 590 c 0
 -196 551 -243 536 -264 527 c 0
 -276 522 -278 516 -278 510 c 0
 -278 504 -275 498 -273 495 c 1
 -277 491 -287 487 -292 487 c 1
 -297 489 -310 498 -310 515 c 0
 -310 532 -291 538 -276 545 c 0
 -256 554 -241 562 -241 579 c 0
 -241 597 -261 607 -278 607 c 0
EndSplineSet
Validated: 1
EndChar

StartChar: uni030A
Encoding: 778 778 267
Width: 0
VWidth: 1012
GlyphClass: 4
Flags: W
HStem: 490 34<-292.933 -221.156> 635 34<-278.094 -205.221>
VStem: -331 163
LayerCount: 2
Back
Fore
SplineSet
-300 580 m 0
 -306 549 -288 524 -260 524 c 0
 -232 524 -204 549 -198 580 c 0
 -192 611 -210 635 -238 635 c 0
 -266 635 -294 611 -300 580 c 0
-331 580 m 0
 -321 629 -276 669 -231 669 c 0
 -186 669 -158 629 -168 580 c 0
 -178 531 -221 490 -266 490 c 0
 -311 490 -341 531 -331 580 c 0
EndSplineSet
Validated: 33
EndChar

StartChar: uni030C
Encoding: 780 780 269
Width: 0
GlyphClass: 4
Flags: W
HStem: 493 135
VStem: -347 205
LayerCount: 2
Back
Fore
SplineSet
-270 493 m 0
 -274 493 -277 497 -279 501 c 0
 -304 548 -318 572 -347 617 c 1
 -346 623 -339 628 -334 628 c 1
 -302 601 -256 564 -256 564 c 25
 -256 564 -190 603 -151 628 c 1
 -146 628 -141 623 -142 617 c 1
 -189 572 -214 548 -258 501 c 0
 -262 497 -266 493 -270 493 c 0
EndSplineSet
Validated: 1
EndChar

StartChar: uni0312
Encoding: 786 786 270
Width: 0
GlyphClass: 4
Flags: W
HStem: 458 180
VStem: 111 99<477.748 543.702>
LayerCount: 2
Back
Fore
SplineSet
210 513 m 0
 210 481 163 458 124 458 c 1
 111 468 111 491 111 499 c 0
 111 554 172 618 205 636 c 1
 206 637 209 638 213 638 c 0
 225 638 231 634 231 631 c 0
 231 625 188 611 180 570 c 0
 174 540 210 539 210 513 c 0
EndSplineSet
Validated: 33
EndChar

StartChar: uni0315
Encoding: 789 789 271
Width: 0
GlyphClass: 4
Flags: W
HStem: 465 187
VStem: 173 68<546.578 633.614>
LayerCount: 2
Back
Fore
SplineSet
162 592 m 0
 162 630 196 652 236 652 c 1
 240 645 241 636 241 624 c 0
 241 614 240 603 238 590 c 0
 229 545 169 480 144 466 c 0
 143 465 139 465 137 465 c 0
 132 465 127 472 127 477 c 0
 127 481 173 504 173 551 c 0
 173 562 162 574 162 592 c 0
EndSplineSet
Validated: 1
EndChar

StartChar: dotbelowcomb
Encoding: 803 803 272
Width: 0
GlyphClass: 4
Flags: W
HStem: -132 100<-291.939 -225.377>
VStem: -305 93<-118.333 -44.854>
LayerCount: 2
Back
Fore
SplineSet
-305 -82 m 0
 -300 -54 -275 -32 -249 -32 c 0
 -223 -32 -207 -54 -212 -82 c 0
 -217 -110 -243 -132 -269 -132 c 0
 -295 -132 -310 -110 -305 -82 c 0
EndSplineSet
Validated: 33
EndChar

StartChar: uni0326
Encoding: 806 806 273
Width: 0
GlyphClass: 4
Flags: W
HStem: -193 180
VStem: -302 99<-98.7024 -32.7479>
LayerCount: 2
Back
Fore
SplineSet
-302 -68 m 0
 -302 -36 -255 -13 -216 -13 c 1
 -203 -23 -203 -46 -203 -54 c 0
 -203 -109 -264 -173 -297 -191 c 1
 -298 -192 -301 -193 -305 -193 c 0
 -317 -193 -323 -189 -323 -186 c 0
 -323 -180 -280 -166 -272 -125 c 0
 -266 -95 -302 -94 -302 -68 c 0
EndSplineSet
Validated: 33
EndChar

StartChar: uni0327
Encoding: 807 807 274
Width: 0
GlyphClass: 4
Flags: W
HStem: -152 24<-303.713 -242.836> -61 34<-247 -230.016> -24 20G<-250 -226>
VStem: -324 132
LayerCount: 2
Back
Fore
SplineSet
-247 -27 m 1
 -224 -27 l 2
 -200 -27 -187 -50 -192 -76 c 0
 -201 -123 -246 -152 -294 -152 c 0
 -305 -152 -319 -147 -324 -143 c 1
 -324 -138 -325 -135 -324 -129 c 0
 -323 -122 -315 -115 -309 -115 c 0
 -298 -115 -292 -128 -277 -128 c 0
 -251 -128 -233 -112 -230 -95 c 0
 -225 -71 -240 -61 -252 -61 c 0
 -262 -61 -268 -64 -278 -68 c 0
 -280 -68 -288 -59 -285 -55 c 0
 -274 -40 -255 -18 -245 -4 c 1
 -226 -4 l 1
 -247 -27 l 1
EndSplineSet
Validated: 33
EndChar

StartChar: uni0328
Encoding: 808 808 275
Width: 0
GlyphClass: 4
Flags: W
HStem: -218 59<-226 -139.916>
LayerCount: 2
Back
Fore
SplineSet
-72 42 m 3
 -56 42 -35 37 -48 25 c 0
 -74 3 -184 -52 -196 -116 c 0
 -199 -131 -198 -159 -166 -159 c 3
 -119 -159 -89 -121 -83 -121 c 3
 -82 -121 -79 -126 -81 -134 c 0
 -82 -139 -85 -147 -89 -151 c 0
 -115 -180 -158 -218 -200 -218 c 0
 -252 -218 -256 -168 -251 -141 c 0
 -238 -75 -99 42 -72 42 c 3
EndSplineSet
Validated: 33
EndChar

StartChar: gravecomb.cap
Encoding: 65550 -1 284
Width: 222
GlyphClass: 4
Flags: W
HStem: 694 108
VStem: 164 181
LayerCount: 2
Back
Fore
SplineSet
339 694 m 0
 324 694 164 755 164 780 c 0
 164 791 183 802 212 802 c 0
 219 802 236 799 239 797 c 0
 264 781 345 711 345 704 c 0
 345 701 340 694 339 694 c 0
EndSplineSet
Validated: 1
EndChar

StartChar: acutecomb.cap
Encoding: 65551 -1 285
Width: 225
GlyphClass: 4
Flags: W
HStem: 694 108
VStem: 150 181
LayerCount: 2
Back
Fore
SplineSet
156 694 m 0
 155 694 150 701 150 704 c 0
 150 711 231 781 256 797 c 0
 259 799 276 802 283 802 c 0
 312 802 331 791 331 780 c 0
 331 755 171 694 156 694 c 0
EndSplineSet
Validated: 1
EndChar

StartChar: uni0302.cap
Encoding: 65552 -1 286
Width: 295
GlyphClass: 4
Flags: W
HStem: 711 125
VStem: 173 234
LayerCount: 2
Back
Fore
SplineSet
319 836 m 0
 323 836 327 833 329 829 c 0
 355 787 373 762 407 721 c 1
 406 715 398 711 392 711 c 1
 355 736 303 770 303 770 c 25
 303 770 231 735 183 711 c 1
 177 711 172 715 173 721 c 1
 229 763 257 786 305 829 c 0
 310 833 315 836 319 836 c 0
EndSplineSet
Validated: 1
EndChar

StartChar: uni030A.cap
Encoding: 65553 -1 287
Width: 385
GlyphClass: 4
Flags: W
HStem: 502 34<239.756 311.594> 647 34<254.497 327.518>
VStem: 201 164
LayerCount: 2
Back
Fore
SplineSet
232 592 m 0
 226 561 245 536 273 536 c 0
 301 536 328 561 334 592 c 0
 340 623 323 647 295 647 c 0
 267 647 238 623 232 592 c 0
201 592 m 0
 211 641 257 681 302 681 c 0
 347 681 375 641 365 592 c 0
 355 543 312 502 267 502 c 0
 222 502 191 543 201 592 c 0
EndSplineSet
Validated: 33
EndChar

StartChar: tildecomb.cap
Encoding: 65554 -1 288
Width: 284
GlyphClass: 4
Flags: W
HStem: 725 42<336.703 441.229> 763 42<206.771 311.297>
VStem: 173 301
LayerCount: 2
Back
Fore
SplineSet
270 805 m 0x60
 294 805 310 803 331 791 c 0
 352 779 372 767 403 767 c 0xa0
 437 767 462 798 468 805 c 1x60
 471 804 474 802 474 795 c 0
 474 781 465 767 456 758 c 0
 431 734 407 725 378 725 c 0xa0
 354 725 338 727 317 739 c 0
 296 751 276 763 245 763 c 0x60
 211 763 186 732 180 725 c 1xa0
 177 726 173 728 173 735 c 0
 173 749 183 763 192 772 c 0
 217 796 241 805 270 805 c 0x60
EndSplineSet
Validated: 1
EndChar

StartChar: uni0304.cap
Encoding: 65555 -1 289
Width: 352
GlyphClass: 4
Flags: W
HStem: 557 39<171 415.396>
VStem: 168 249<557.428 596>
LayerCount: 2
Back
Fore
SplineSet
407 557 m 1
 171 557 l 1
 171 557 168 560 168 566 c 0
 168 573 175 596 180 596 c 2
 412 596 l 2
 414 596 417 593 417 589 c 0
 417 584 415 566 407 557 c 1
EndSplineSet
Validated: 1
EndChar

StartChar: uni0306.cap
Encoding: 65556 -1 290
Width: 231
GlyphClass: 4
Flags: W
HStem: 525 48<169.263 279.447>
VStem: 133 23<598.719 630.925> 317 19<615.095 631.975>
LayerCount: 2
Back
Fore
SplineSet
225 573 m 0
 264 573 301 594 317 631 c 0
 317 633 320 633 322 633 c 0
 328 633 337 626 336 622 c 0
 336 621 334 617 334 615 c 0
 317 569 266 525 216 525 c 0
 166 525 132 566 133 616 c 0
 133 618 133 621 133 622 c 0
 134 626 146 633 152 633 c 0
 154 633 156 633 156 631 c 0
 158 594 186 573 225 573 c 0
EndSplineSet
Validated: 33
EndChar

StartChar: uni0327.cap
Encoding: 65557 -1 291
Width: 402
GlyphClass: 4
Flags: W
HStem: -174 28<124.253 195.388> -67 40<191 210.29> -20 20G<187 216>
VStem: 100 156
LayerCount: 2
Back
Fore
SplineSet
191 -27 m 1
 219 -27 l 2
 248 -27 262 -54 256 -85 c 0
 245 -140 192 -174 135 -174 c 0
 122 -174 106 -169 100 -164 c 1
 100 -158 99 -154 100 -147 c 0
 102 -139 111 -131 118 -131 c 0
 131 -131 138 -146 156 -146 c 0
 187 -146 207 -127 211 -107 c 0
 216 -79 199 -67 185 -67 c 0
 173 -67 166 -70 154 -75 c 0
 152 -75 143 -65 146 -60 c 0
 160 -42 181 -17 193 0 c 1
 216 0 l 1
 191 -27 l 1
EndSplineSet
Validated: 33
EndChar

StartChar: uni0323.cap
Encoding: 65559 -1 293
Width: 238
GlyphClass: 4
Flags: W
HStem: -136 100<82.0605 148.939>
VStem: 69 93<-123.146 -48.854>
LayerCount: 2
Back
Fore
SplineSet
69 -86 m 0
 74 -58 99 -36 125 -36 c 0
 151 -36 167 -58 162 -86 c 0
 157 -114 132 -136 106 -136 c 0
 80 -136 64 -114 69 -86 c 0
EndSplineSet
Validated: 33
EndChar

StartChar: uni0305.cap
Encoding: 65560 -1 294
Width: 526
GlyphClass: 4
Flags: W
HStem: 739 63<139.047 673>
LayerCount: 2
Back
Fore
SplineSet
130 749 m 0
 130 751 143 802 153 802 c 2
 695 802 l 2
 697 802 700 801 698 793 c 0
 695 775 684 750 682 746 c 0
 679 740 673 739 673 739 c 1
 134 739 l 1
 134 739 128 739 130 749 c 0
EndSplineSet
Validated: 1
EndChar

StartChar: hookabovecomb.cap
Encoding: 65561 -1 295
Width: 164
GlyphClass: 4
Flags: W
HStem: 481 62<143.547 175.781> 596 36<138.084 210.094>
VStem: 140 36<486.303 523.232> 212 47<548.303 593.127>
LayerCount: 2
Back
Fore
SplineSet
170 596 m 0
 149 596 130 585 125 578 c 1
 122 579 118 583 118 589 c 0
 118 606 158 632 191 632 c 0
 233 632 259 607 259 584 c 0
 259 548 219 532 196 524 c 0
 185 520 176 516 176 509 c 0
 176 502 180 493 182 490 c 1
 177 485 167 481 161 481 c 1
 155 483 140 492 140 511 c 0
 140 525 161 536 178 543 c 0
 196 550 212 560 212 571 c 0
 212 590 189 596 170 596 c 0
EndSplineSet
Validated: 1
EndChar

StartChar: uni030B.cap
Encoding: 65562 -1 296
Width: 359
GlyphClass: 4
Flags: W
HStem: 694 108<300 312>
VStem: 150 326
LayerCount: 2
Back
Fore
SplineSet
301 694 m 0
 300 694 295 701 295 704 c 0
 295 711 376 781 401 797 c 0
 404 799 421 802 428 802 c 0
 457 802 476 791 476 780 c 0
 476 755 316 694 301 694 c 0
156 694 m 0
 155 694 150 701 150 704 c 0
 150 711 231 781 256 797 c 0
 259 799 276 802 283 802 c 0
 312 802 331 791 331 780 c 0
 331 755 171 694 156 694 c 0
EndSplineSet
Validated: 1
EndChar

StartChar: uni0308.cap
Encoding: 65563 -1 297
Width: 312
GlyphClass: 4
Flags: W
HStem: 712 100<186.061 252.623 354.061 420.939>
VStem: 173 93<725.667 799.146> 341 93<724.854 799.146>
LayerCount: 2
Back
Fore
SplineSet
341 762 m 0
 346 790 371 812 397 812 c 0
 423 812 439 790 434 762 c 0
 429 734 404 712 378 712 c 0
 352 712 336 734 341 762 c 0
173 762 m 0
 178 790 203 812 229 812 c 0
 255 812 271 790 266 762 c 0
 261 734 235 712 209 712 c 0
 183 712 168 734 173 762 c 0
EndSplineSet
Validated: 33
EndChar

StartChar: uni0308.narrow
Encoding: 65564 -1 298
Width: 269
VWidth: 0
GlyphClass: 4
Flags: W
HStem: 477 100<144.312 209.228 277.312 342.228>
VStem: 134 88<488.666 567.191> 267 88<488.666 567.191>
LayerCount: 2
Back
Fore
SplineSet
318 577 m 27
 339 577 355 558 355 537 c 27
 355 506 332 477 301 477 c 27
 279 477 267 499 267 521 c 27
 267 551 288 577 318 577 c 27
185 577 m 27
 206 577 222 558 222 537 c 27
 222 506 199 477 168 477 c 27
 146 477 134 499 134 521 c 27
 134 551 155 577 185 577 c 27
EndSplineSet
Validated: 1
EndChar

StartChar: uni030C.cap
Encoding: 65565 -1 299
Width: 240
GlyphClass: 4
Flags: W
HStem: 711 125
VStem: 173 234
LayerCount: 2
Back
Fore
SplineSet
261 711 m 0
 256 711 253 714 251 718 c 0
 225 763 206 784 173 826 c 1
 174 832 182 836 188 836 c 1
 225 811 277 777 277 777 c 25
 277 777 352 813 397 836 c 1
 403 836 408 832 407 826 c 1
 353 784 324 763 275 718 c 0
 270 714 266 711 261 711 c 0
EndSplineSet
Validated: 1
EndChar

StartChar: Aogonek
Encoding: 260 260 302
Width: 586
Flags: W
HStem: -230 59<289 364.084> -3 29<-51.9062 2.55664 79.1218 134.297 503.894 543.297> 256 33<192 367> 643 20G<382 387.5>
VStem: 253 54<-191.5 -113.016>
LayerCount: 2
Back
Fore
SplineSet
488 60 m 0
 493 36 537 26 544 26 c 1
 547 19 543 0 541 -3 c 1
 504 -1 529 0 493 0 c 0
 384 0 307 -104 307 -139 c 0
 307 -154 313 -171 338 -171 c 0
 385 -171 415 -133 421 -133 c 0
 429 -133 418 -160 415 -163 c 0
 389 -192 346 -230 304 -230 c 0
 274 -230 253 -205 253 -178 c 0
 253 -123 316 -56 361 -11 c 0
 382 10 398 15 398 53 c 0
 398 65 396 97 395 106 c 2
 373 256 l 1
 174 256 l 1
 140 194 112 142 103 125 c 0
 85 90 74 65 74 50 c 0
 74 29 129 26 136 26 c 1
 138 23 135 3 132 -3 c 1
 95 -1 84 2 43 2 c 0
 0 2 -12 -1 -55 -3 c 1
 -57 0 -53 19 -49 26 c 1
 -38 26 -4 32 8 45 c 0
 32 71 50 103 70 139 c 2
 346 634 l 2
 355 650 378 663 386 663 c 0
 389 663 390 661 391 660 c 1
 477 126 l 2
 479 115 484 80 488 60 c 0
192 289 m 1
 367 289 l 1
 329 535 l 1
 192 289 l 1
EndSplineSet
Validated: 1
Substitution2: "'c2sc' Capitals to Small Capitals lookup 5-1" aogonek.sc
EndChar

StartChar: aogonek
Encoding: 261 261 303
Width: 449
Flags: W
HStem: -230 59<194 269.084> -5 58<80.9231 161.03> 395 40<221.739 322.5>
VStem: 19 74<65.1934 221.895> 158 54<-193.5 -113.684> 243 75<21.1457 164.743>
LayerCount: 2
Back
Fore
SplineSet
259 395 m 0
 182 395 93 266 93 151 c 0
 93 89 109 53 144 53 c 0
 194 53 265 178 284 274 c 2
 305 380 l 1
 296 390 272 395 259 395 c 0
408 88 m 1
 402 77 372 47 345 25 c 0
 308 -5 212 -88 212 -139 c 0
 212 -154 218 -171 243 -171 c 0
 290 -171 320 -133 326 -133 c 0
 334 -133 323 -160 320 -163 c 0
 294 -192 251 -230 209 -230 c 0
 179 -230 158 -207 158 -180 c 0
 158 -129 219 -51 266 -4 c 1
 251 2 243 22 243 46 c 0
 243 54 246 78 250 99 c 0
 253 117 254 123 255 130 c 1
 235 94 166 -5 108 -5 c 0
 54 -5 19 43 19 113 c 0
 19 287 183 435 305 435 c 0
 340 435 364 429 383 422 c 1
 322 106 l 2
 321 102 318 79 318 74 c 0
 318 65 318 49 328 49 c 0
 349 49 395 104 398 107 c 1
 401 107 408 94 408 88 c 1
EndSplineSet
Validated: 1
Substitution2: "'smcp' Lowercase to Small Capitals in Latin lookup 3-1" aogonek.sc
EndChar

StartChar: Eogonek
Encoding: 280 280 319
Width: 554
Flags: W
HStem: -230 59<232 307.084> 0 30<-2.03058 69.1056 158.472 315.089> 316 33<214.68 369.546> 630 27<120.525 179 269.882 468.353>
VStem: 196 54<-193.5 -110.914> 383 29<230.036 271.632> 505 29<523.182 590.783>
LayerCount: 2
Back
Fore
SplineSet
422 -4 m 1
 327 -4 250 -89 250 -139 c 0
 250 -154 256 -171 281 -171 c 0
 328 -171 358 -133 364 -133 c 0
 372 -133 361 -160 358 -163 c 0
 332 -192 289 -230 247 -230 c 0
 217 -230 196 -207 196 -180 c 0
 196 -127 260 -30 317 -3 c 1
 255 -2 183 0 106 0 c 0
 62 0 31 -3 -5 -3 c 1
 -9 2 -5 21 -0 26 c 1
 11 26 63 31 68 42 c 0
 76 58 81 86 87 116 c 2
 170 543 l 2
 176 573 181 601 179 617 c 0
 178 628 129 633 118 633 c 1
 115 638 118 657 124 662 c 1
 162 660 196 657 233 657 c 0
 320 657 432 664 533 664 c 1
 530 614 534 573 534 528 c 1
 531 525 523 523 516 523 c 0
 509 523 505 525 505 530 c 0
 500 610 466 630 417 630 c 2
 337 630 l 2
 326 630 276 629 271 619 c 0
 263 603 256 574 251 547 c 2
 214 355 l 2
 213 350 233 349 253 349 c 2
 302 349 l 2
 391 349 389 355 418 421 c 0
 420 426 427 428 434 428 c 0
 441 428 446 426 448 423 c 1
 412 234 l 1
 410 232 403 230 396 230 c 0
 389 230 384 233 383 238 c 0
 380 295 377 302 370 308 c 0
 361 315 308 316 273 316 c 0
 247 316 206 316 204 307 c 2
 165 109 l 2
 162 94 153 45 158 40 c 0
 168 30 183 30 222 30 c 2
 266 30 l 2
 317 30 358 40 390 61 c 0
 417 79 443 109 468 162 c 0
 470 166 476 168 483 168 c 0
 492 168 503 165 505 162 c 1
 477 108 437 40 422 -4 c 1
EndSplineSet
Validated: 33
Substitution2: "'c2sc' Capitals to Small Capitals lookup 5-1" eogonek.sc
EndChar

StartChar: eogonek
Encoding: 281 281 320
Width: 363
Flags: W
HStem: -230 59<55 130.084> -6 59<123.607 141> 193 25<105 147.895> 394 41<196.759 299.5>
VStem: 20 53<-170.24 -123.894> 23 78<76.3633 217.001 218 241.157> 266 74<313.223 388.912>
LayerCount: 2
Back
Fore
SplineSet
105 218 m 1xf2
 144 218 266 280 266 354 c 0
 266 381 243 394 224 394 c 0
 155 394 110 269 105 218 c 1xf2
20 -180 m 0xfa
 19 -131 114 -30 141 -6 c 1
 138 -6 136 -6 133 -6 c 0
 62 -6 23 46 23 139 c 0
 23 287 159 435 274 435 c 0
 325 435 340 403 340 373 c 0
 340 277 165 193 103 193 c 1
 102 190 101 166 101 161 c 0xf6
 101 100 120 53 170 53 c 0
 215 53 270 119 273 122 c 1
 276 122 285 108 285 102 c 1
 280 93 266 76 244 54 c 0
 189 0 73 -99 73 -139 c 0
 73 -154 79 -171 104 -171 c 0
 151 -171 181 -133 187 -133 c 0
 195 -133 184 -160 181 -163 c 0
 155 -192 112 -230 70 -230 c 0
 40 -230 20 -207 20 -180 c 0xfa
EndSplineSet
Validated: 33
Substitution2: "'smcp' Lowercase to Small Capitals in Latin lookup 3-1" eogonek.sc
EndChar

StartChar: Iogonek
Encoding: 302 302 339
Width: 313
Flags: W
HStem: -230 59<21 96.0836> -3 29<-4.82571 65.9961 158.304 214.525> 633 29<118.716 177.552 269.997 340.019>
VStem: -14 53<-193.5 -106.025>
LayerCount: 2
Back
Fore
SplineSet
218 26 m 1
 220 22 214 1 212 -3 c 1
 196 -3 180 -6 165 -10 c 0
 93 -31 39 -97 39 -139 c 0
 39 -154 45 -171 70 -171 c 0
 117 -171 147 -133 153 -133 c 0
 161 -133 150 -160 147 -163 c 0
 121 -192 78 -230 36 -230 c 0
 6 -230 -14 -207 -14 -180 c 0
 -14 -118 51 -25 108 2 c 1
 72 2 33 -1 -6 -3 c 1
 -10 2 -6 21 -1 26 c 1
 10 26 62 31 67 42 c 0
 75 58 80 86 86 116 c 2
 169 543 l 2
 175 573 180 601 178 617 c 0
 177 628 128 633 117 633 c 1
 114 638 117 657 123 662 c 1
 161 660 196 657 232 657 c 0
 268 657 303 660 342 662 c 1
 346 657 341 638 336 633 c 1
 325 633 274 628 269 617 c 0
 261 601 256 573 250 543 c 2
 167 116 l 2
 161 86 155 58 157 42 c 0
 158 31 207 26 218 26 c 1
EndSplineSet
Validated: 33
Substitution2: "'c2sc' Capitals to Small Capitals lookup 5-1" iogonek.sc
EndChar

StartChar: iogonek
Encoding: 303 303 340
Width: 263
Flags: W
HStem: -230 59<40 115.084> 380 55<97.7782 161.5> 546 100<127.035 191.228>
VStem: 4 54<-193.5 -108.84> 115 75<302.317 383> 116 88<557.783 635.875>
LayerCount: 2
Back
Fore
SplineSet
168 646 m 0xf4
 189 646 204 627 204 606 c 0
 204 575 181 546 150 546 c 0
 128 546 116 567 116 589 c 0
 116 619 138 646 168 646 c 0xf4
218 88 m 1
 213 79 190 55 169 36 c 0
 116 -12 58 -88 58 -139 c 0
 58 -154 64 -171 89 -171 c 0
 136 -171 166 -133 172 -133 c 0
 180 -133 169 -160 166 -163 c 0
 140 -192 97 -230 55 -230 c 0
 25 -230 4 -207 4 -180 c 0
 4 -130 61 -43 93 -6 c 1
 91 -6 89 -6 87 -6 c 0
 66 -6 53 16 53 46 c 0
 53 54 56 78 60 99 c 2
 60 99 111 323 111 323 c 2
 112 329 115 350 115 355 c 0
 115 364 115 380 105 380 c 0
 84 380 38 325 35 322 c 1
 32 322 25 335 25 341 c 1
 36 360 104 435 151 435 c 0
 172 435 190 413 190 383 c 0xf8
 190 375 187 351 183 330 c 2
 183 330 132 106 132 106 c 2
 130 96 128 79 128 74 c 0
 128 65 128 49 138 49 c 0
 159 49 205 104 208 107 c 1
 211 107 218 94 218 88 c 1
EndSplineSet
Validated: 1
Substitution2: "'smcp' Lowercase to Small Capitals in Latin lookup 3-1" iogonek.sc
EndChar

StartChar: Uogonek
Encoding: 370 370 388
Width: 682
Flags: W
HStem: -230 59<253 328.084> -4 58<231.075 376.699> 633 29<107.109 165.552 256.997 327.019 533.409 590.459 664.383 738.014>
VStem: 217 54<-188.5 -113.035>
LayerCount: 2
Back
Fore
SplineSet
271 -139 m 0
 271 -154 277 -171 302 -171 c 0
 349 -171 379 -133 385 -133 c 0
 393 -133 382 -160 379 -163 c 0
 353 -192 310 -230 268 -230 c 0
 238 -230 217 -202 217 -175 c 0
 217 -124 286 -41 340 0 c 1
 322 -3 303 -4 284 -4 c 0
 211 -4 154 24 122 74 c 0
 94 118 85 178 99 251 c 2
 156 543 l 2
 162 573 168 601 166 617 c 0
 165 628 116 633 105 633 c 1
 102 638 105 657 111 662 c 1
 149 660 183 657 219 657 c 0
 255 657 290 660 329 662 c 1
 333 657 328 638 323 633 c 1
 312 633 261 628 256 617 c 0
 248 601 243 573 237 543 c 2
 189 296 l 2
 174 219 175 162 193 122 c 0
 213 76 255 54 315 54 c 0
 411 54 502 102 538 274 c 1
 591 545 l 2
 598 581 601 598 595 614 c 0
 591 624 547 634 532 634 c 1
 529 641 533 657 536 663 c 1
 573 661 597 658 638 658 c 0
 681 658 697 661 740 663 c 1
 742 658 742 645 735 634 c 1
 724 634 667 626 658 614 c 0
 647 599 643 584 636 546 c 2
 583 276 l 2
 560 161 512 87 449 43 c 0
 366 -15 271 -91 271 -139 c 0
EndSplineSet
Validated: 33
Substitution2: "'c2sc' Capitals to Small Capitals lookup 5-1" uogonek.sc
EndChar

StartChar: uogonek
Encoding: 371 371 389
Width: 490
Flags: W
HStem: -230 59<235 310.084> -6 74<89.5 164.733> 380 55<92.7782 156.5>
VStem: 59 77<47 206.875> 110 75<257.922 406.545> 199 54<-193.5 -113.684>
LayerCount: 2
Back
Fore
SplineSet
199 -180 m 0xf4
 199 -129 260 -51 307 -4 c 1
 292 2 284 22 284 46 c 0
 285 54 288 78 292 99 c 0
 298 133 303 152 310 186 c 1
 284 130 175 -6 109 -6 c 0
 70 -6 59 28 59 66 c 0xf4
 59 94 67 140 73 169 c 2
 73 169 106 323 106 323 c 2
 107 329 110 350 110 355 c 0
 110 364 110 380 100 380 c 0
 79 380 33 325 30 322 c 1
 27 322 20 335 20 341 c 1
 31 360 99 435 146 435 c 0
 167 435 185 413 185 383 c 0xec
 185 375 182 351 178 330 c 2
 178 330 143 165 143 165 c 2
 141 156 136 122 136 111 c 0
 136 88 138 68 155 68 c 0
 191 68 310 194 334 319 c 0
 342 362 347 386 356 429 c 1
 366 432 377 433 387 433 c 0
 397 433 414 432 426 429 c 1
 426 429 364 106 364 106 c 2
 362 96 360 79 359 74 c 0
 359 65 359 49 369 49 c 0
 390 49 436 104 439 107 c 1
 442 107 449 94 449 88 c 1
 443 77 413 47 386 25 c 0
 349 -5 253 -88 253 -139 c 0
 253 -154 259 -171 284 -171 c 0
 331 -171 361 -133 367 -133 c 0
 375 -133 364 -160 361 -163 c 0
 335 -192 292 -230 250 -230 c 0
 220 -230 199 -207 199 -180 c 0xf4
EndSplineSet
Validated: 1
Substitution2: "'smcp' Lowercase to Small Capitals in Latin lookup 3-1" uogonek.sc
EndChar

StartChar: Hbar
Encoding: 294 294 402
Width: 686
Flags: W
HStem: -3 29<-2.82571 67.9961 159.448 218.284 370.174 440.996 532.448 591.284> 316 40<215 500> 472 34<106.727 668.069> 633 29<120.716 179.552 271.997 342.019 493.716 552.552 644.997 715.019>
LayerCount: 2
Back
Fore
SplineSet
116 506 m 1
 141 506 656 506 668 506 c 0
 671 506 672 502 671 498 c 0
 670 493 665 480 660 472 c 1
 635 472 119 472 107 472 c 0
 104 472 104 479 105 483 c 0
 106 488 109 498 116 506 c 1
EndSplineSet
Refer: 39 72 N 1 0 0 1 1 0 2
Validated: 5
Substitution2: "'c2sc' Capitals to Small Capitals lookup 5-1" hbar.sc
EndChar

StartChar: hbar
Encoding: 295 295 403
Width: 470
Flags: W
HStem: -6 55<289 353.107> 361 74<286.866 356.5> 531 34<79.7275 318.069> 631 21<78.307 134.742> 665 20<203 216.5>
VStem: 139 81<548.203 666.737> 266 75<21.7226 171.078> 315 77<222.125 388>
LayerCount: 2
Back
Fore
SplineSet
89 565 m 1xfc
 114 565 306 565 318 565 c 0
 321 565 322 561 321 557 c 0
 320 552 315 539 310 531 c 1
 285 531 92 531 80 531 c 0
 77 531 77 538 78 542 c 0
 79 547 82 557 89 565 c 1xfc
EndSplineSet
Refer: 71 104 N 1 0 0 1 0 0 2
Validated: 5
Substitution2: "'smcp' Lowercase to Small Capitals in Latin lookup 3-1" hbar.sc
EndChar

StartChar: Lslash
Encoding: 321 321 404
Width: 529
Flags: W
HStem: 0 30<-2.08435 68.1056 157.472 355.306> 633 29<118.909 178.552 269.997 340.019>
LayerCount: 2
Back
Fore
SplineSet
65 207 m 2
 438 447 l 1
 442 442 452 419 448 416 c 2
 75 178 l 1
 71 184 61 204 65 207 c 2
EndSplineSet
Refer: 43 76 N 1 0 0 1 -1 0 2
Validated: 37
Substitution2: "'c2sc' Capitals to Small Capitals lookup 5-1" lslash.sc
EndChar

StartChar: lslash
Encoding: 322 322 405
Width: 245
Flags: W
HStem: -6 55<60 124.107> 631 21<82.307 138.742> 665 20<207 220.5>
VStem: 37 75<21.7226 176.133> 143 81<545.078 666.737>
LayerCount: 2
Back
Fore
SplineSet
42 288 m 2
 240 423 l 1
 243 418 253 399 248 396 c 2
 49 260 l 1
 45 266 37 285 42 288 c 2
EndSplineSet
Refer: 75 108 N 1 0 0 1 0 0 2
Validated: 5
Substitution2: "'smcp' Lowercase to Small Capitals in Latin lookup 3-1" lslash.sc
EndChar

StartChar: Tbar
Encoding: 358 358 406
Width: 588
Flags: W
HStem: -3 29<134.981 205.003 296.448 356.091> 308 40<143.682 473.883> 620 35<158.974 324 405 560.987>
VStem: 587 32<494.463 587.263>
LayerCount: 2
Back
Fore
SplineSet
153 348 m 1
 180 348 460 348 473 348 c 0
 477 348 478 343 477 338 c 0
 476 332 470 317 465 308 c 1
 438 308 158 308 145 308 c 0
 141 308 141 316 142 321 c 0
 143 327 146 339 153 348 c 1
EndSplineSet
Refer: 51 84 N 1 0 0 1 1 0 2
Validated: 5
Substitution2: "'c2sc' Capitals to Small Capitals lookup 5-1" tbar.sc
EndChar

StartChar: tbar
Encoding: 359 359 407
Width: 285
VWidth: 0
Flags: W
HStem: -6 55<73.5 137.107> 275 40<44.6816 282.883> 376 37<51.1577 111 189 268.371>
VStem: 43 243 50 75<21.7226 177.312>
LayerCount: 2
Back
Fore
SplineSet
54 315 m 1xf0
 81 315 269 315 282 315 c 0
 286 315 287 310 286 305 c 0
 285 299 279 284 274 275 c 1
 247 275 59 275 46 275 c 0
 42 275 42 283 43 288 c 0
 44 294 47 306 54 315 c 1xf0
EndSplineSet
Refer: 83 116 N 1 0 0 1 1 0 2
Validated: 5
Substitution2: "'smcp' Lowercase to Small Capitals in Latin lookup 3-1" tbar.sc
EndChar

StartChar: dcroat
Encoding: 273 273 408
Width: 446
Flags: W
HStem: -5 58<76.4454 158.959 287 328.674> 395 40<222.947 290.664> 531 34<246.727 485.069> 631 21<287.307 343.742> 665 20<412 425.5>
VStem: 19 74<65.1712 219.36> 243 75<21.7226 163.305> 348 81<544.516 666.737>
LayerCount: 2
Back
Fore
SplineSet
256 565 m 1
 281 565 473 565 485 565 c 0
 488 565 489 561 488 557 c 0
 487 552 482 539 477 531 c 1
 452 531 259 531 247 531 c 0
 244 531 244 538 245 542 c 0
 246 547 249 557 256 565 c 1
EndSplineSet
Refer: 67 100 N 1 0 0 1 0 0 2
Validated: 5
Substitution2: "'smcp' Lowercase to Small Capitals in Latin lookup 3-1" dcroat.sc
EndChar

StartChar: kgreenlandic
Encoding: 312 312 411
Width: 482
Flags: W
HStem: -4 55<316.109 375.184> 380 55<93.7782 157.5> 388 47<277.169 366.5>
VStem: 44 71<-4.14408 36.7502> 111 75<285.211 406.545> 344 78<300.053 386.608>
LayerCount: 2
Back
Fore
SplineSet
107 323 m 2xb4
 108 329 111 350 111 355 c 0
 111 364 111 380 101 380 c 0
 80 380 34 325 31 322 c 1
 28 322 21 335 21 341 c 1
 32 360 100 435 147 435 c 0
 168 435 186 413 186 383 c 0xcc
 186 375 182 351 179 330 c 2
 179 330 178 322 178 322 c 1
 183 326 261 435 347 435 c 0
 386 435 422 406 422 367 c 0
 422 276 322 230 211 211 c 1
 299 79 327 51 368 51 c 0
 385 51 425 93 436 107 c 1
 439 107 446 93 446 88 c 1
 438 74 368 -4 324 -4 c 0
 245 -4 195 119 152 191 c 1
 152 191 115 0 115 0 c 1
 104 -3 91 -5 80 -5 c 0
 69 -5 56 -3 44 0 c 1
 44 0 107 323 107 323 c 2xb4
311 388 m 0xa4
 253 388 172 291 160 230 c 1
 227 230 344 271 344 354 c 0
 344 372 339 388 311 388 c 0xa4
EndSplineSet
Validated: 1
Substitution2: "'smcp' Lowercase to Small Capitals in Latin lookup 3-1" kgreenlandic.sc
EndChar

StartChar: Eng
Encoding: 330 330 412
Width: 731
Flags: W
HStem: -233 19<318 339.743> -3 29<-9.54809 61.6612 140.383 199.591> 634 29<114.31 178.048 566.115 624.617 702.417 774.441>
LayerCount: 2
Back
Fore
SplineSet
510 44 m 9
 226 569 l 1
 138 115 l 2
 131 79 128 62 134 46 c 0
 138 36 186 26 201 26 c 1
 204 19 200 3 197 -3 c 1
 160 -1 132 2 91 2 c 0
 48 2 31 -1 -12 -3 c 1
 -14 2 -13 15 -6 26 c 1
 5 26 61 34 70 46 c 0
 81 61 86 76 93 114 c 2
 177 548 l 2
 184 586 186 601 181 616 c 0
 177 628 124 636 113 636 c 1
 110 647 114 660 118 665 c 1
 160 663 183 660 214 660 c 0
 242 660 272 661 285 662 c 1
 317 582 480 321 553 166 c 1
 627 545 l 2
 634 581 637 598 631 614 c 0
 627 624 579 634 564 634 c 1
 561 641 565 657 568 663 c 1
 605 661 633 658 674 658 c 0
 717 658 733 661 776 663 c 1
 778 658 778 645 771 634 c 1
 760 634 703 626 694 614 c 0
 683 599 679 584 672 546 c 2
 589 116 l 2
 538 -148 400 -233 320 -233 c 1
 318 -230 317 -225 317 -220 c 0
 317 -218 318 -214 318 -214 c 1
 418 -183 481 -68 510 44 c 9
EndSplineSet
Validated: 33
Substitution2: "'c2sc' Capitals to Small Capitals lookup 5-1" eng.sc
EndChar

